<svg id="Layer_1" data-name="Layer 1" xmlns="http://www.w3.org/2000/svg" xmlns:xlink="http://www.w3.org/1999/xlink" width="1920" height="1080" viewBox="0 0 1920 1080"><defs><style>.cls-1{fill:url(#linear-gradient);}.cls-2{filter:url(#AI_Shadow_2);}.cls-3{fill:url(#linear-gradient-2);}.cls-4{opacity:0.3;}.cls-5{fill:#d1d66e;}.cls-6{fill:#698e4c;}.cls-7{fill:#97d35e;}.cls-8{fill:url(#linear-gradient-3);}.cls-9{fill:url(#linear-gradient-4);}</style><linearGradient id="linear-gradient" x1="954.62" y1="14.88" x2="965.79" y2="1462.58" gradientUnits="userSpaceOnUse"><stop offset="0" stop-color="#3994b7"/><stop offset="1"/></linearGradient><filter id="AI_Shadow_2" x="-15" y="-15" width="140" height="130" name="AI_Shadow_2"><feGaussianBlur result="blur" stdDeviation="6" in="SourceAlpha"/><feOffset result="offsetBlurredAlpha" dx="8" dy="8" in="blur"/><feMerge><feMergeNode in="offsetBlurredAlpha"/><feMergeNode in="SourceGraphic"/></feMerge></filter><linearGradient id="linear-gradient-2" x1="895.3" y1="727.75" x2="884.13" y2="1718.13" gradientUnits="userSpaceOnUse"><stop offset="0" stop-color="#bab55b"/><stop offset="1"/></linearGradient><linearGradient id="linear-gradient-3" x1="429.36" y1="839.08" x2="418.06" y2="1840.88" xlink:href="#linear-gradient-2"/><linearGradient id="linear-gradient-4" x1="1490.07" y1="892.01" x2="1482.62" y2="1386.97" xlink:href="#linear-gradient-2"/></defs><title>baggrund</title><rect class="cls-1" x="-2.33" width="1922" height="1079"/><g class="cls-2"><ellipse class="cls-3" cx="892.67" cy="961" rx="1070" ry="250"/></g><path class="cls-4" d="M1334.59,904.69c-36.73-68-50.93-131.58-31.71-142s64.57,36.36,101.3,104.39,41.21,159.55,31.7,142C1419.45,978.64,1371.31,972.71,1334.59,904.69Z"/><path class="cls-4" d="M1424.3,859.49c-36.73-68-50.93-131.58-31.71-142s64.57,36.36,101.3,104.38,79.41,281.75,31.7,142C1514.4,931.06,1461,927.51,1424.3,859.49Z"/><path class="cls-4" d="M1370,872.14c-36.73-68-50.93-131.58-31.71-141.95s105,25.44,101.3,104.38c-2.17,46.49,42.5,158.81,31.71,141.95C1413.25,885.8,1406.76,940.17,1370,872.14Z"/><path class="cls-4" d="M996.53,863.29C978.85,805.75,977.7,755.06,994,750.06s43.77,37.61,61.45,95.15,7.15,128.11,2.58,113.23C1050.07,932.69,1014.21,920.83,996.53,863.29Z"/><path class="cls-4" d="M1071.92,842.45c-17.68-57.54-18.83-108.24-2.58-113.23s43.77,37.6,61.45,95.14,17.71,227.25,2.58,113.23C1129.82,910.83,1089.61,900,1071.92,842.45Z"/><path class="cls-4" d="M1028.56,843.84c-17.68-57.54-18.84-108.24-2.58-113.23s76.28,35.43,61.44,95.14c-8.73,35.17,8.25,127.75,2.59,113.23C1059.48,860.86,1046.24,901.38,1028.56,843.84Z"/><path class="cls-5" d="M1449.75,637.78c0,84.42-17.7,152.85-39.54,152.85s-39.55-68.43-39.55-152.85,39.55-174.68,39.55-152.84C1410.21,522.71,1449.75,553.37,1449.75,637.78Z"/><path class="cls-6" d="M1349.34,634.67c0,84.42-17.71,152.85-39.55,152.85s-39.54-68.43-39.54-152.85,64-311.9,39.54-152.84C1304.06,519.16,1349.34,550.26,1349.34,634.67Z"/><path class="cls-7" d="M1403.1,650.67c0,84.41-17.71,152.84-39.55,152.84S1283.27,724.6,1324,650.67c24-43.54,38.06-174.63,39.54-152.84C1371.55,615.13,1403.1,566.26,1403.1,650.67Z"/><path class="cls-5" d="M1116.67,611.24c0,81.12-17,146.88-38,146.88s-38-65.76-38-146.88,38-167.87,38-146.88C1078.67,500.65,1116.67,530.12,1116.67,611.24Z"/><path class="cls-6" d="M1020.17,608.25c0,81.12-17,146.88-38,146.88s-38-65.76-38-146.88,61.48-299.74,38-146.88C976.66,497.24,1020.17,527.13,1020.17,608.25Z"/><path class="cls-7" d="M1071.83,623.62c0,81.12-17,146.88-38,146.88s-77.15-75.83-38-146.88c23.06-41.85,36.58-167.82,38-146.88C1041.52,589.46,1071.83,542.5,1071.83,623.62Z"/><g class="cls-2"><path class="cls-8" d="M1226.67,1078c0,138.07-358.17,250-800,250s-800-111.93-800-250,358.17-256,800-256S1226.67,939.93,1226.67,1078Z"/></g><path class="cls-4" d="M640.77,983.29c-25.61-47.44-35.52-91.78-22.11-99s45,25.36,70.66,72.81,28.74,111.29,22.11,99C700,1034.87,666.39,1030.74,640.77,983.29Z"/><path class="cls-4" d="M703.35,951.77c-25.62-47.45-35.52-91.78-22.12-99s45,25.36,70.66,72.81,55.4,202.52,22.12,105C766.2,1007.69,729,999.21,703.35,951.77Z"/><path class="cls-4" d="M665.5,960.59c-25.62-47.45-35.52-91.78-22.12-99S716.6,879.32,714,934.38c-1.51,32.43,29.64,110.78,22.12,99C695.65,970.12,691.12,1008,665.5,960.59Z"/><path class="cls-5" d="M740.67,754.31c0,81.12-17,146.88-38,146.88s-38-65.76-38-146.88,38-167.87,38-146.88C702.67,643.72,740.67,673.19,740.67,754.31Z"/><path class="cls-6" d="M644.17,751.32c0,81.12-17,146.88-38,146.88s-38-65.76-38-146.88,61.48-299.74,38-146.88C600.66,640.31,644.17,670.2,644.17,751.32Z"/><path class="cls-7" d="M695.83,766.69c0,81.12-17,146.89-38,146.89s-77.15-75.84-38-146.89c23.06-41.84,36.58-167.82,38-146.88C665.52,732.54,695.83,685.57,695.83,766.69Z"/><path class="cls-9" d="M2286.67,1121c0,138.07-358.17,250-800,250s-800-117.93-800-256,358.17-244,800-244S2286.67,982.93,2286.67,1121Z"/><path class="cls-4" d="M190.77,1058.29c-25.61-47.44-35.52-91.78-22.11-99s45,25.36,70.66,72.81c23.11,42.81,26.26,106.7,22.11,99C250,1109.87,216.39,1105.74,190.77,1058.29Z"/><path class="cls-4" d="M253.35,1026.77c-25.62-47.45-35.52-91.78-22.12-99s45,19.36,70.66,66.81,55.4,196.52,22.12,99C316.2,1070.69,279,1074.21,253.35,1026.77Z"/><path class="cls-4" d="M215.5,1035.59c-25.62-47.45-35.52-91.78-22.12-99s73.22,11.75,70.66,66.81c-1.51,32.43,29.64,110.78,22.12,99C245.65,1039.12,241.12,1083,215.5,1035.59Z"/><path class="cls-5" d="M290.67,823.31c0,81.12-17,152.88-38,152.88s-38-65.76-38-146.88,38-167.87,38-146.88C252.67,718.72,290.67,742.19,290.67,823.31Z"/><path class="cls-6" d="M194.17,826.32c0,81.12-17,146.88-38,146.88s-38-65.76-38-146.88,61.48-299.74,38-146.88C150.66,715.31,194.17,745.2,194.17,826.32Z"/><path class="cls-7" d="M245.83,841.69c0,81.12-17,146.89-38,146.89s-77.15-75.84-38-146.89c23.06-41.84,36.58-167.82,38-146.88C215.52,807.54,245.83,760.57,245.83,841.69Z"/></svg>
