<svg id="Layer_1" data-name="Layer 1" xmlns="http://www.w3.org/2000/svg" width="100" height="150" viewBox="0 0 100 150"><defs><style>.cls-1{fill:#c64242;}.cls-2{fill:#c4ccce;}.cls-3{fill:gray;}.cls-4{fill:#fff;}</style></defs><title>daese</title><path class="cls-1" d="M76.47,113.12,94.3,36,25.13,20l-18,78.1h0c0,.05,0,.11,0,.16-1.08,4.66,13.6,12,32.8,16.47s35.62,4.26,36.69-.4A2.29,2.29,0,0,0,76.47,113.12Z"/><ellipse class="cls-2" cx="59.71" cy="28.02" rx="8.66" ry="35.67" transform="translate(18.96 79.89) rotate(-76.98)"/><path class="cls-3" d="M81.76,32.94c-.57,2.47-5.18,3.51-10.3,2.33s-3.22-2.68-2.65-5.15-.4-5,4.72-3.79S82.33,30.47,81.76,32.94Z"/><rect class="cls-4" x="17.4" y="39.17" width="4.08" height="57.74" rx="2.04" transform="translate(15.82 -2.63) rotate(13.02)"/><rect class="cls-4" x="25.05" y="32.19" width="3.74" height="5.43" rx="1.87" transform="translate(8.55 -5.17) rotate(13.02)"/></svg>
