<svg id="Layer_1" data-name="Layer 1" xmlns="http://www.w3.org/2000/svg" xmlns:xlink="http://www.w3.org/1999/xlink" width="1920" height="1080" viewBox="0 0 1920 1080"><defs><style>.cls-1{fill:none;}.cls-2{fill:#caeffc;}.cls-3,.cls-48{fill:#fff;}.cls-4{fill:#555a5b;}.cls-5{fill:#c64242;}.cls-6{fill:#c4ccce;}.cls-7{fill:gray;}.cls-8{fill:#e576da;}.cls-9{fill:#d1d66e;}.cls-10{fill:#698e4c;}.cls-11{fill:#97d35e;}.cls-12{fill:#415e21;}.cls-13{fill:#7f9620;}.cls-14{clip-path:url(#clip-path);}.cls-15{fill:#010101;}.cls-16{fill:#020202;}.cls-17{fill:#030303;}.cls-18{fill:#040404;}.cls-19{fill:#050505;}.cls-20{fill:#060606;}.cls-21{fill:#070707;}.cls-22{fill:#080808;}.cls-23{fill:#090909;}.cls-24{fill:#0a0a0a;}.cls-25{fill:#0b0b0b;}.cls-26{fill:#0c0c0c;}.cls-27{fill:#0d0d0d;}.cls-28{fill:#0f0f0e;}.cls-29{fill:#10100e;}.cls-30{fill:#11110f;}.cls-31{fill:#121210;}.cls-32{fill:#131311;}.cls-33{fill:#141412;}.cls-34{fill:#151513;}.cls-35{fill:#161614;}.cls-36{fill:#171715;}.cls-37{fill:#181816;}.cls-38{fill:#191917;}.cls-39{fill:#1a1a18;}.cls-40{fill:#1b1b19;}.cls-41{fill:#1c1c1a;}.cls-42{fill:#1d1d1b;}.cls-43{fill:#ff0303;}.cls-44{fill:url(#linear-gradient);}.cls-45{fill:url(#linear-gradient-2);}.cls-46{fill:#0071bc;}.cls-47{fill:#71e1ff;}.cls-48{stroke:#000;stroke-miterlimit:10;}.cls-49{fill:#333;}.cls-50{fill:#e8edef;}.cls-51{fill:url(#linear-gradient-3);}.cls-52{fill:url(#linear-gradient-4);}.cls-53{clip-path:url(#clip-path-2);}.cls-54{fill:#fefefe;}.cls-55{fill:#fdfdfd;}.cls-56{fill:#fcfcfc;}.cls-57{fill:#fbfbfb;}.cls-58{fill:#fafafa;}.cls-59{fill:#f9f9f9;}.cls-60{fill:#f8f8f8;}.cls-61{fill:#f7f7f7;}.cls-62{fill:#f6f6f6;}.cls-63{fill:#f5f5f5;}.cls-64{fill:#f4f4f4;}.cls-65{fill:#f3f3f3;}.cls-66{fill:#f2f2f2;}.cls-67{fill:#f1f1f1;}.cls-68{fill:#f0f0f0;}.cls-69{fill:#efefef;}.cls-70{fill:#eee;}.cls-71{fill:#ededed;}.cls-72{fill:#ececec;}.cls-73{fill:#ebebeb;}.cls-74{fill:#eaeaea;}.cls-75{fill:#e9e9e9;}.cls-76{fill:#e8e8e8;}.cls-77{fill:#e7e7e7;}.cls-78{fill:#e6e6e6;}.cls-79{fill:#e5e5e5;}.cls-80{fill:#e4e4e4;}.cls-81{fill:#e3e3e3;}.cls-82{fill:#e2e2e2;}.cls-83{fill:#e1e1e1;}.cls-84{fill:#e0e0e0;}.cls-85{fill:#dfdfdf;}.cls-86{fill:#dedede;}.cls-87{fill:#ddd;}.cls-88{fill:#dcdcdc;}.cls-89{fill:#dbdbdb;}.cls-90{fill:#dadada;}.cls-91{fill:#d9d9d9;}.cls-92{fill:#d8d8d8;}.cls-93{fill:#d7d7d7;}.cls-94{fill:#d6d6d6;}.cls-95{fill:#d5d5d5;}.cls-96{fill:#d4d4d4;}.cls-97{fill:#d3d3d3;}.cls-98{fill:#d2d2d2;}.cls-99{fill:#d1d1d1;}.cls-100{fill:#d0d0d0;}.cls-101{fill:#cfcfcf;}.cls-102{fill:#cecece;}.cls-103{fill:#cdcdcd;}.cls-104{fill:#ccc;}.cls-105{fill:#cbcbcb;}.cls-106{fill:#cacaca;}.cls-107{fill:#c9c9c9;}.cls-108{fill:#c8c8c8;}.cls-109{fill:#c7c7c7;}.cls-110{fill:#c6c6c6;}.cls-111{fill:#c5c5c5;}.cls-112{fill:#c4c4c4;}.cls-113{fill:#c3c3c3;}.cls-114{fill:#c2c2c2;}.cls-115{fill:#c1c1c1;}.cls-116{fill:silver;}.cls-117{fill:#bfbfbf;}.cls-118{fill:#bebebe;}.cls-119{fill:#bdbdbd;}.cls-120{fill:#bcbcbc;}.cls-121{fill:#bbb;}.cls-122{fill:#bababa;}.cls-123{fill:#b9b9b9;}.cls-124{fill:#b8b8b8;}.cls-125{fill:#b7b7b7;}.cls-126{fill:#b6b6b6;}.cls-127{fill:#b5b5b5;}.cls-128{fill:#b4b4b4;}.cls-129{fill:#b3b3b3;}.cls-130{fill:#b2b2b2;}.cls-131{fill:#b1b1b1;}.cls-132{fill:#b0b0b0;}.cls-133{fill:#afafaf;}.cls-134{fill:#aeaeae;}.cls-135{fill:#adadad;}.cls-136{fill:#acacac;}.cls-137{fill:#ababab;}.cls-138{fill:#aaa;}.cls-139{fill:#a9a9a9;}.cls-140{fill:#a8a8a8;}.cls-141{fill:#a7a7a7;}.cls-142{fill:#a6a6a6;}.cls-143{fill:#a5a5a5;}.cls-144{fill:#a4a4a4;}.cls-145{fill:#a3a3a3;}.cls-146{fill:#a2a2a2;}.cls-147{fill:#a1a1a1;}.cls-148{fill:#a0a0a0;}.cls-149{fill:#9f9f9f;}.cls-150{fill:#9e9e9e;}.cls-151{fill:#9d9d9d;}.cls-152{fill:#9c9c9c;}.cls-153{fill:#9b9b9b;}.cls-154{fill:#9a9a9a;}.cls-155{fill:#999;}.cls-156{fill:#989898;}.cls-157{fill:#979797;}.cls-158{fill:#969696;}.cls-159{fill:#959595;}.cls-160{fill:#949494;}.cls-161{fill:#939393;}.cls-162{fill:#929292;}.cls-163{fill:#919191;}.cls-164{fill:#909090;}.cls-165{fill:#8f8f8f;}.cls-166{fill:#8e8e8e;}.cls-167{fill:#8d8d8d;}.cls-168{fill:#8c8c8c;}.cls-169{fill:#8b8b8b;}.cls-170{fill:#8a8a8a;}.cls-171{fill:#898989;}.cls-172{fill:#888;}.cls-173{fill:#878787;}.cls-174{fill:#868686;}.cls-175{fill:#7342ba;opacity:0.97;}</style><clipPath id="clip-path"><ellipse class="cls-1" cx="631.23" cy="132.6" rx="107.51" ry="117.48" transform="translate(331.18 703.56) rotate(-74.14)"/></clipPath><linearGradient id="linear-gradient" x1="714.81" y1="422.13" x2="873.74" y2="285" gradientUnits="userSpaceOnUse"><stop offset="0"/><stop offset="1"/></linearGradient><linearGradient id="linear-gradient-2" x1="829.6" y1="140.13" x2="828.22" y2="341.66" gradientUnits="userSpaceOnUse"><stop offset="0"/><stop offset="1" stop-color="#5c94d6"/></linearGradient><linearGradient id="linear-gradient-3" x1="855.95" y1="421.78" x2="1015.59" y2="284.04" xlink:href="#linear-gradient"/><linearGradient id="linear-gradient-4" x1="970" y1="152.22" x2="970" y2="327.41" gradientUnits="userSpaceOnUse"><stop offset="0"/><stop offset="1" stop-color="#5a4"/></linearGradient><clipPath id="clip-path-2"><path class="cls-1" d="M1004,611.18c0-14.84-14.31-26.87-32-26.87s-32,12-32,26.87c0,9.41,5.76,17.69,14.48,22.49V647h34V634.2C997.78,629.5,1004,621,1004,611.18Z"/></clipPath></defs><title>elementer</title><path class="cls-2" d="M607,479.61a1.89,1.89,0,0,0,0,.58l7.05,35a2,2,0,0,0,2.38,1.58l55.75-11.24a2,2,0,0,0,1.58-2.38l-4.71-23.34.09,0-15-74.31-59.63,12Z"/><polygon class="cls-2" points="654.19 405.36 630.19 378.71 617.82 380.99 608.22 382.97 594.58 417.48 624.44 411.45 654.19 405.36"/><rect class="cls-3" x="607.07" y="372.94" width="22.55" height="8.08" transform="translate(-62.32 129.68) rotate(-11.4)"/><rect class="cls-4" x="598.52" y="411.02" width="60.75" height="45.94" transform="translate(-73.39 132.9) rotate(-11.4)"/><path class="cls-5" d="M536.47,608.62l17.83-77.11-69.17-16-18.05,78.1h0l0,.16c-1.08,4.66,13.6,12,32.8,16.47s35.62,4.26,36.69-.4A2.29,2.29,0,0,0,536.47,608.62Z"/><ellipse class="cls-6" cx="519.71" cy="523.52" rx="8.66" ry="35.67" transform="translate(-107.41 911.97) rotate(-76.98)"/><path class="cls-7" d="M541.76,528.44c-.57,2.47-5.18,3.51-10.3,2.33s-3.22-2.68-2.65-5.15-.4-5,4.72-3.79S542.33,526,541.76,528.44Z"/><rect class="cls-3" x="477.4" y="534.67" width="4.08" height="57.74" rx="2.04" transform="translate(139.25 -93.5) rotate(13.02)"/><rect class="cls-3" x="485.05" y="527.69" width="3.74" height="5.43" rx="1.87" transform="translate(131.97 -96.04) rotate(13.02)"/><rect class="cls-3" x="327" y="457" width="15" height="186" rx="7.5"/><path d="M451.83,451.93l-16.27-5.22-.16,0-.16-.06a1.64,1.64,0,0,0-1.91.74,1.73,1.73,0,0,0-1.29,1.17,2.86,2.86,0,0,0-.07.28,1.71,1.71,0,0,0-1.26,1.16v0a1.71,1.71,0,0,0-1.24,1.15,1.57,1.57,0,0,0-.06.28,1.71,1.71,0,0,0-1.26,1.17,2.68,2.68,0,0,0-.07.27,1.75,1.75,0,0,0-1.26,1.17,1.89,1.89,0,0,0-.05.23,1.75,1.75,0,0,0-1.1,1.12A1.71,1.71,0,0,1,425,457a1.69,1.69,0,0,0,0,1,1.59,1.59,0,0,0-.26.48l-16,49.85a1.51,1.51,0,1,0,2.87.92l16-49.85a1.66,1.66,0,0,0,.06-.54,1.72,1.72,0,0,0,.59-.83,1.7,1.7,0,0,0,0-.92,1.76,1.76,0,0,0,.5-.78.86.86,0,0,0,.06-.23A1.73,1.73,0,0,0,430,455a1.27,1.27,0,0,0,.06-.28,1.71,1.71,0,0,0,1.26-1.16,1.4,1.4,0,0,0,.06-.28,1.73,1.73,0,0,0,1.27-1.16v0a1.73,1.73,0,0,0,1.24-1.15,1.57,1.57,0,0,0,.06-.28,1.69,1.69,0,0,0,1.08-.79,1.63,1.63,0,0,0,.8-.39L451,454.4a1.3,1.3,0,1,0,.79-2.47Z"/><ellipse class="cls-8" cx="359.4" cy="163" rx="47.72" ry="26"/><polygon class="cls-8" points="429.41 146.39 429.38 162.96 429.35 179.54 415.01 171.23 400.67 162.91 415.04 154.65 429.41 146.39"/><circle class="cls-3" cx="328.66" cy="156.53" r="5.66"/><circle cx="328.78" cy="156.64" r="2.31"/><path class="cls-9" d="M269.5,315.61c0,114-23.92,206.48-53.42,206.48s-53.42-92.44-53.42-206.48,53.42-236,53.42-206.49C216.08,160.14,269.5,201.57,269.5,315.61Z"/><path class="cls-10" d="M155.84,317.41c0,114-23.91,206.48-53.42,206.48S49,431.44,49,317.41,135.44-104,102.42,110.92C94.67,161.35,155.84,203.37,155.84,317.41Z"/><path class="cls-11" d="M206.47,333c0,114-23.91,206.49-53.42,206.49S44.59,432.89,99.63,333C132,274.19,151,97.09,153.05,126.53,163.86,285,206.47,219,206.47,333Z"/><path d="M184,792.54A39.53,39.53,0,1,1,223.53,753,39.58,39.58,0,0,1,184,792.54Zm0-75.2A35.67,35.67,0,1,0,219.67,753,35.71,35.71,0,0,0,184,717.34Z"/><path d="M268.34,761.58V744.43L242,739.53a59.08,59.08,0,0,0-7.49-18l15.13-22-12.12-12.13-22.08,15.16a58.88,58.88,0,0,0-18-7.42l-4.85-26.12H175.43l-4.86,26.12a59,59,0,0,0-17.92,7.4l-21.78-15-12.12,12.12,14.9,21.71a59,59,0,0,0-7.62,18.3l-25.85,4.8v17.15L126,766.39a59,59,0,0,0,7.47,18.07l-14.94,21.76,12.13,12.12,21.73-14.91A59.15,59.15,0,0,0,170.57,811l4.86,26.12h17.15L197.43,811a59.19,59.19,0,0,0,18.19-7.57l22,15.12,12.12-12.12L234.6,784.3A59.1,59.1,0,0,0,242,766.49Zm-84.34,29A37.6,37.6,0,1,1,221.6,753,37.61,37.61,0,0,1,184,790.61Z"/><path d="M194.18,839H173.82l-4.92-26.47a60.7,60.7,0,0,1-16.42-6.82l-22,15.11-14.4-14.39,15.14-22.06a60.94,60.94,0,0,1-6.76-16.33l-26.19-4.87V742.83L124.44,738a61,61,0,0,1,6.9-16.58l-15.1-22,14.4-14.4,22.08,15.16a61.05,61.05,0,0,1,16.18-6.69L173.82,667h20.36l4.92,26.46a61,61,0,0,1,16.22,6.71l22.38-15.36,14.39,14.4-15.33,22.33a61.25,61.25,0,0,1,6.78,16.32l26.73,5v20.36l-26.73,5a61,61,0,0,1-6.64,16.07l15.37,22.4L237.88,821,215.56,805.7a60.71,60.71,0,0,1-16.46,6.85ZM177,835.16H191l4.79-25.79,1.24-.28a57.16,57.16,0,0,0,17.59-7.32l1.08-.68L237.42,816l9.85-9.85-15-21.82.66-1.07a56.87,56.87,0,0,0,7.11-17.23l.29-1.23L266.41,760V746l-26.05-4.84-.29-1.23a56.92,56.92,0,0,0-7.25-17.46l-.67-1.07,14.94-21.77-9.85-9.86-21.8,15-1.07-.67A57.17,57.17,0,0,0,197,696.93l-1.24-.28L191,670.86H177l-4.79,25.79-1.23.28a57,57,0,0,0-17.34,7.16l-1.07.67L131.1,690l-9.85,9.85L136,721.28l-.68,1.08a56.85,56.85,0,0,0-7.37,17.7l-.29,1.24L102.11,746V760l25.51,4.74.29,1.23a56.74,56.74,0,0,0,7.23,17.48l.67,1.08L121.06,806l9.86,9.85,21.45-14.72,1.07.67a57.25,57.25,0,0,0,17.57,7.3l1.23.28Zm7-42.62A39.53,39.53,0,1,1,223.53,753,39.58,39.58,0,0,1,184,792.54Zm0-75.2A35.67,35.67,0,1,0,219.67,753,35.71,35.71,0,0,0,184,717.34Z"/><path d="M184,792.54A39.53,39.53,0,1,1,223.53,753,39.58,39.58,0,0,1,184,792.54Zm0-75.2A35.67,35.67,0,1,0,219.67,753,35.71,35.71,0,0,0,184,717.34Z"/><polygon class="cls-11" points="108 945.24 889.37 941.87 109.13 962.13 108 945.24"/><polygon class="cls-12" points="112.13 916.53 893.5 913.15 113.25 933.42 112.13 916.53"/><polygon class="cls-13" points="108.75 976.96 890.12 973.58 109.88 993.85 108.75 976.96"/><path class="cls-11" d="M470.82,407.78a13.87,13.87,0,0,1-1.13,2.52,12,12,0,0,1-1.06,1.56,13.93,13.93,0,0,1-1.48,1.59l-.4.35c-.15.13-.34.28-.52.41a12.54,12.54,0,0,1-1.14.76,13.17,13.17,0,0,1-2.47,1.16,13.58,13.58,0,0,1-2.48.59,13.25,13.25,0,0,1-2.32.12,14.84,14.84,0,0,1-1.87-.2l-.92-.2c-.21-.06-.41-.11-.61-.18-.41-.12-.82-.27-1.22-.43l-.58-.25-.42-.21-.79-.43-.39-.24-.33-.22a12.3,12.3,0,0,1-1.09-.81,15.29,15.29,0,0,1-2.75-2.94,15,15,0,0,1-1.83-3.42l-.18-.51c-.07-.18-.13-.39-.19-.59-.11-.42-.21-.8-.3-1.25a13,13,0,0,1-.21-1.51l0-.44v-.08l-.07-.63-.15-1.27c-.2-1.69-.36-3.41-.5-5.14-.27-3.47-.41-7-.33-10.68a78.86,78.86,0,0,1,3.59-22.69l.47-1.44c.16-.49.35-1,.53-1.47l.56-1.47.62-1.45.63-1.44.69-1.42c.45-.95.95-1.88,1.47-2.81A61.58,61.58,0,0,1,459,340.43a56.54,56.54,0,0,1,10.16-9.12,51.82,51.82,0,0,1,13-6.56A46.06,46.06,0,0,0,464.71,346a47.57,47.57,0,0,0-3.27,22.3,59.17,59.17,0,0,0,5.37,19,92.45,92.45,0,0,0,4.4,8.44q1.2,2.06,2.46,4.07l.64,1,.32.5.08.13,0,0h0c14.71-.71-20,1-16.44.82h.11a2.72,2.72,0,0,0,.46-.1,3.22,3.22,0,0,0,.39-.15l.13-.07.06,0,0,0,0,0-.06,0a3.73,3.73,0,0,0-.32.3,2.78,2.78,0,0,0-.68,1.11.51.51,0,0,0,0,.2v.08h0l-.07-.08-.07,0-.13-.09-.12,0h0l1.51.61c1.23.48,2.48.94,3.73,1.38Q467,406.76,470.82,407.78Z"/><path class="cls-11" d="M451.61,364.41a16.31,16.31,0,0,1,5.61,1.08,21.16,21.16,0,0,1,5.46,3,26.36,26.36,0,0,1,4.54,4.54c.33.42.66.86,1,1.3s.64.95.92,1.4c.58.91,1.08,1.78,1.53,2.59l1.22,2.25q.56,1,1.08,2.13c.7,1.44,1.36,2.92,2,4.42a70.79,70.79,0,0,1,3,9.35,59.8,59.8,0,0,0-22.11-12.46,21.27,21.27,0,0,0-2.86-.63,16.33,16.33,0,0,0-2.78-.16,15,15,0,0,0-5.26,1.07,14,14,0,0,0-4.32,2.71,12.9,12.9,0,0,0-2.73,3.52Z"/><path class="cls-11" d="M434.9,404.84a16.65,16.65,0,0,1-1.26-1.52,16.12,16.12,0,0,1-1.06-1.71,15.27,15.27,0,0,1-1.3-3.54,15.75,15.75,0,0,1-.24-5.43,18.77,18.77,0,0,1,.73-3.28,21.39,21.39,0,0,1,.79-2.13c.52-1.3,1-2.62,1.6-3.92s1.17-2.58,1.83-3.83,1.31-2.52,2.05-3.72a77.39,77.39,0,0,1,10.25-13.66,79.53,79.53,0,0,1,29-19.64A65.87,65.87,0,0,0,458.87,374a52.61,52.61,0,0,0-1.45,15.7c.05,1.23.25,2.49.39,3.67s.44,2.38.68,3.5.62,2.26.95,3.32l0,.1L452.75,397l-1-.47-.9-.39-.83-.32a15.35,15.35,0,0,0-2.66-.76,5.05,5.05,0,0,0-1.64-.07c-.34.05-.42.16-.32.07h0l-.3.26-1.48,1.33-2.93,2.69C438.72,401.16,436.8,403,434.9,404.84Z"/><path class="cls-11" d="M455.76,401.87c-.44-2.72-.75-5.23-1.08-7.52a60.25,60.25,0,0,0-1.15-6.07A15.44,15.44,0,0,0,452,384.2a3.76,3.76,0,0,0-1.68-1.63,6.23,6.23,0,0,0-1.89,0c-.65.11-1.2.45-1.26.88a8.45,8.45,0,0,1,4.51-6.38,13.33,13.33,0,0,1,9.44-1.31,20.14,20.14,0,0,1,7.83,3.95,46.56,46.56,0,0,1,6.86,6.89c4.19,5,7.8,10.45,11.77,13.9Z"/><path class="cls-11" d="M457.94,362.78,461,386.29,462.54,398l.2,1.47a4,4,0,0,0,.2,1c0,.09.07.12.1.12l-1.34.08-1.28.1-1,.09-1,.09a32.5,32.5,0,0,0-4.51.73c-.26.07-.41.1-.62.17l-.25.07-1.34.46c.05,0,.06,0,0,0a3.34,3.34,0,0,0-.66.44,4.14,4.14,0,0,0-.79.84,1.77,1.77,0,0,0-.29.58,1.87,1.87,0,0,1,.29-.58,4.14,4.14,0,0,1,.79-.84,3.07,3.07,0,0,1,.66-.44h0l1.32-.46.25-.07c.2-.07.36-.1.61-.17l.78-.18,1-.18,1.21-.18,1.3-.16a1.94,1.94,0,0,1-1.22-.36,13,13,0,0,1-2.38-2.6l-9.49-11.77-19-23.55Z"/><path class="cls-11" d="M450.38,395.11a48.4,48.4,0,0,0,5.22-.42,1.31,1.31,0,0,0,.4-.09l.21-.09c.15-.06.28-.13.42-.2a7.49,7.49,0,0,0,.73-.45,3.27,3.27,0,0,0,1.44-2.53,3.7,3.7,0,0,0-.35-1.56l0-.07s0,0,0-.08v-.12l0-.23.13-.95.26-1.89.53-3.79,2.12-15.13L468,384.88l1.61,4.34.8,2.17.41,1.09c.07.17.13.37.2.53l.22.47a20.69,20.69,0,0,1,2.07,9.29,17.56,17.56,0,0,1-2.44,8.05,24.78,24.78,0,0,1-6.17,7,32.54,32.54,0,0,1-4.34,2.85c-.78.43-1.6.83-2.45,1.22-.42.2-.85.38-1.29.56a11.11,11.11,0,0,0-1.17.54c-2.69,1.39-5.24,2.6-7.38,3.86Z"/><path class="cls-11" d="M438.72,377.21l-1.26-.44-15.65-5.48,11.58-14.64a27,27,0,0,1,4.88-4.76,32.16,32.16,0,0,1,5.21-3.22,48.22,48.22,0,0,1,9.55-3.46c1.47-.38,2.83-.68,4.24-1l2.13-.4,2.17-.33a66.5,66.5,0,0,1,9.07-.66,50.55,50.55,0,0,1,20.06,3.93,43.93,43.93,0,0,1,5.12,2.59c.84.52,1.64,1,2.51,1.59s1.79,1.31,2.71,2.1a31.63,31.63,0,0,1,2.79,2.7,28,28,0,0,1,2.79,3.58,26.48,26.48,0,0,1,4.11,10.59,24.24,24.24,0,0,0-2.54-5.53,21.79,21.79,0,0,0-3.24-4.06,20.8,20.8,0,0,0-3.36-2.71,21.73,21.73,0,0,0-3.24-1.76,24.88,24.88,0,0,0-3-1.09c-1-.26-1.88-.42-2.79-.6a33.49,33.49,0,0,0-5.38-.48,34.28,34.28,0,0,0-9.68,1.3,38,38,0,0,0-8.1,3.37,47.26,47.26,0,0,0-6.78,4.57c-.51.42-1,.84-1.51,1.27l-1.46,1.31c-.94.9-1.88,1.8-2.68,2.72-1.61,1.84-2.8,3.8-3,5.58a2.74,2.74,0,0,0,0,.64,2.1,2.1,0,0,0,.09.61,2.84,2.84,0,0,0,.19.56l.14.25c.06.1-.06-.07-.08-.12l-.14-.21a10.17,10.17,0,0,0-1.67-2L451,348.71l1.48-.21Z"/><path class="cls-11" d="M448.8,361.09l-.78-3.66,26.21-1.8c1.24,6.95,4,14.05,7.47,21.7l11.06,24.1L480.1,391.6c-4.22-3.29-8.46-6.52-12.61-9.82a128.91,128.91,0,0,1-12.19-10.86,81.34,81.34,0,0,1-5.69-6.54,69,69,0,0,1-5.15-7.65l33.2-2.28,2.79,3.37Z"/><path class="cls-11" d="M445.25,422.48a18.28,18.28,0,0,1-5.93-1.49,26.1,26.1,0,0,1-5.51-3.28q-1.24-1-2.28-1.89l-1.74-1.57c-1.18-1-2.25-2.18-3.34-3.3a70.68,70.68,0,0,1-11-15.31,73.29,73.29,0,0,1-8.69-37.74c4.74,14.21,13.48,24.84,23.27,31.37A46.74,46.74,0,0,0,445.08,396a36,36,0,0,0,3.76.72l1.83.23a3.42,3.42,0,0,0,1.38-.32,11,11,0,0,0,1.86-1.61,6.18,6.18,0,0,0,1.17-2.06l-4.78,14.23Z"/><path class="cls-11" d="M425.2,346.57c3-.5,6.15-1,9.5-1.4a83.41,83.41,0,0,1,10.74-.56,55.68,55.68,0,0,1,12.06,1.54,52.56,52.56,0,0,1,6.16,2,59.76,59.76,0,0,1,5.58,2.5,102.4,102.4,0,0,1,9.4,5.48l7.77,5,15.15,9.83-20-3.54-10.07-1.8a82.74,82.74,0,0,0-10.28-1.29,32.45,32.45,0,0,0-9.59.83,37.41,37.41,0,0,0-8.23,3.24c-5.18,2.74-9.93,6.27-15.56,9.9Z"/><path class="cls-11" d="M466.54,354.86a17.23,17.23,0,0,1,5.3-7.9,17.45,17.45,0,0,1,8.63-3.94l18.3-2.85-3.93,19.55a101.28,101.28,0,0,1-13.71,34,105.27,105.27,0,0,1-25.44,27.73c15.18-23.84,17.5-50.44,10.71-69.87l16.29,8.58a1.69,1.69,0,0,0,.17.49,1.25,1.25,0,0,0-.54-.36l-.74-.26Q474.1,357.35,466.54,354.86Z"/><path class="cls-11" d="M421.05,410.72c-.34.11-1.07-.43-1.76-1.21a12.43,12.43,0,0,1-2-3,18.79,18.79,0,0,1-1.28-3.79c-.15-.66-.26-1.3-.36-2s-.17-1.34-.21-1.88a49.09,49.09,0,0,1,.53-13.26,67.45,67.45,0,0,1,3.25-11.84c1.36-3.66,2.9-7.06,4.46-10.26s3.18-6.2,4.71-9.06,3.12-5.81,5-9a84.87,84.87,0,0,1,6.76-9.69,61,61,0,0,1,9.61-9.51,50.77,50.77,0,0,0-6.68,12.2A65.08,65.08,0,0,0,440,350c-.69,3.72-1.1,7.29-1.49,10.81s-.77,7.1-1,10.63a76,76,0,0,0,0,10.34,34.76,34.76,0,0,0,1.82,9.18,17.7,17.7,0,0,0,4,6.62c.39.55.81.4,1.23.56a5,5,0,0,0,1.28.09,5.58,5.58,0,0,0,2.25-.63Z"/><path class="cls-11" d="M470.75,349.53a3.5,3.5,0,0,0-.22,2.18l.32,4.74q.43,7,1,14,1.05,13.95,2.47,27.83-9.36-14-18.37-28.41-4.5-7.21-8.89-14.56a27.71,27.71,0,0,1-3.66-9.64,22,22,0,0,1-.31-3.38,33.71,33.71,0,0,1,.07-3.49,28.88,28.88,0,0,1,1.4-7l13.25,8.93Z"/><path class="cls-11" d="M414.22,392l-1.43-12.4c-.49-4.05-1-7.91-1.74-11.51a63.81,63.81,0,0,0-2.67-9.87,42.92,42.92,0,0,0-1.8-4.14c-.16-.32-.34-.62-.5-.93l-.25-.46s-.15-.34-.25-.6-.23-.62-.35-1a23.2,23.2,0,0,1-.74-2.78,22,22,0,0,1-.4-4.47,20.55,20.55,0,0,1,1.36-7.14,21,21,0,0,1,5.28-7.81,20.43,20.43,0,0,0-4.81,8,18.37,18.37,0,0,0-.84,7,16.66,16.66,0,0,0,.88,4.19,13.87,13.87,0,0,0,1.17,2.48c.2.33.39.59.57.85s.38.51.48.49l.73.34c.49.24,1,.47,1.49.74a42.34,42.34,0,0,1,5.79,3.77,72.63,72.63,0,0,1,10.75,10.55c3.38,4,6.57,8.27,9.71,12.5L446,392.35Z"/><path class="cls-11" d="M436.05,340.38a115.39,115.39,0,0,1,28.45,30.67,116.64,116.64,0,0,1,16.07,40c-16.3-27.61-42.09-43.28-65.3-46.55Z"/><path class="cls-11" d="M433.07,421.41a7.36,7.36,0,0,1-2.2-2.82,16.56,16.56,0,0,1-1.44-4.31l-1.14-6.44q-1-5.74-1.63-11.57a219.33,219.33,0,0,1-1.4-23.58,196.77,196.77,0,0,0,17.3,23.91q4.65,5.49,9.58,10.47c.82.83,1.64,1.65,2.48,2.45l1.25,1.21a1.63,1.63,0,0,0,.61.36,1.15,1.15,0,0,0,.31,0c.1,0,.2,0,.3,0a8.59,8.59,0,0,0,2.48.06,9.83,9.83,0,0,0,2.26-.57Z"/><path class="cls-11" d="M486.87,366.77c.45,2.59.81,5.2,1.05,7.84.13,1.32.23,2.64.3,4l.09,2c0,1,0,2,0,3a55.21,55.21,0,0,1-.44,6,26.29,26.29,0,0,1-1.45,5.76,23.31,23.31,0,0,1-2.85,5.26,27.09,27.09,0,0,1-4.08,4.42c-.77.66-1.57,1.29-2.41,1.89s-1.73,1.13-2.6,1.69a56.48,56.48,0,0,1-5.62,2.95l-.73.33-.82.34-.8.32-.57.24c-.76.29-1.52.6-2.3.87-1.54.54-3.11,1-4.71,1.44a57.53,57.53,0,0,1-20,1.62,49.65,49.65,0,0,0,18.55-9.44,45.61,45.61,0,0,0,3.53-3.22c.55-.55,1.07-1.14,1.58-1.7s1.18-1.23,1.65-1.82a24.66,24.66,0,0,0,4.37-7.33,11.59,11.59,0,0,0,.64-3.72,10.46,10.46,0,0,0-.69-3.76,15.29,15.29,0,0,0-1.78-3.3,16.45,16.45,0,0,0-2.15-2.5,10.82,10.82,0,0,0-1.13-.94c-.36-.46-.73-1-1.11-1.52q-1.12-1.53-2.31-3a65.37,65.37,0,0,0-4.94-5.38Z"/><path class="cls-11" d="M412.47,394.28a28.7,28.7,0,0,1-2.27-15.64,32.59,32.59,0,0,1,2-7.89,33.93,33.93,0,0,1,3.92-7.21,41.64,41.64,0,0,1,12.65-11.46,53.09,53.09,0,0,1,7.05-3.5,50.79,50.79,0,0,1,7.42-2.42,36.86,36.86,0,0,1,9.42-1.08,32.25,32.25,0,0,1,5.68.61,30.85,30.85,0,0,1,3,.76c.48.13,1.09.36,1.63.56s1.11.44,1.64.68a28.73,28.73,0,0,1,11.19,8.86,26.81,26.81,0,0,1,4,7.37,26.22,26.22,0,0,1,1.48,9.45,24.36,24.36,0,0,0-2.8-9,22.93,22.93,0,0,0-4.93-6.2,23.3,23.3,0,0,0-11.4-5.49,21.34,21.34,0,0,0-2.89-.33,24.34,24.34,0,0,0-2.58.09,21.75,21.75,0,0,0-4.6,1,23.92,23.92,0,0,0-7,3.71,36.68,36.68,0,0,0-5,4.67,33.28,33.28,0,0,0-3.82,5.15,18.36,18.36,0,0,0-2.92,10.54,8.86,8.86,0,0,0,3.3,6.23,6.35,6.35,0,0,0,5.69,1.1l-14.83,4.67Z"/><path class="cls-11" d="M469.9,381.79c-.56-.19-1.13.29-1.41.82a3.12,3.12,0,0,0-.18.42,1.08,1.08,0,0,0,0,.19,2,2,0,0,1-.1.3,28.11,28.11,0,0,1-1.39,3.35,22.92,22.92,0,0,1-1.66,2.84c-.17.26-.38.54-.57.8s-.18.23-.33.42l-.45.53a20.92,20.92,0,0,1-1.89,1.88,19.29,19.29,0,0,1-4.18,2.76,18.61,18.61,0,0,1-5.22,1.68,17.38,17.38,0,0,1-7.09-.3,17,17,0,0,1-7.64-4.27,18.21,18.21,0,0,1-2.52-3.11,19.62,19.62,0,0,1-1.41-2.65c-.34-.77-.56-1.39-.74-1.89s-.26-.82-.39-1.24a36.49,36.49,0,0,1-1.67-9.49,45.52,45.52,0,0,1,.47-8.85,70.14,70.14,0,0,1,4.08-14.77l.64-1.63.65-1.57c.43-1,.86-2.05,1.35-3.12a72.92,72.92,0,0,1,3.41-6.67,53,53,0,0,1,4.9-7.05,43.7,43.7,0,0,1,7-6.71,48.22,48.22,0,0,1,16.89-8.16,64.32,64.32,0,0,1,16.6-2.13,64.88,64.88,0,0,0-15.71,6,43.23,43.23,0,0,0-13.15,10.76,31.6,31.6,0,0,0-4.2,6.89,37.3,37.3,0,0,0-2.27,6.87,73.87,73.87,0,0,0-1.55,13,43.73,43.73,0,0,0,.92,12.06,19.83,19.83,0,0,0,1.87,4.9,11.37,11.37,0,0,0,2.82,3.38,3.12,3.12,0,0,0,.37.29s.06,0,.09,0h0l-.81.27-1.4.49-1,.4a17.38,17.38,0,0,0-2.3,1.07,4.74,4.74,0,0,0-.87.61c-.16.14-.1.17,0-.12a3.3,3.3,0,0,0,.06-1.31,4,4,0,0,0-.32-1.22c-.12-.26-.14-.23,0,0a5.09,5.09,0,0,0,.36.39l.13.12.07.06,0,0-2.28-1.89,0,0-.53-.41a40.91,40.91,0,0,0-5-3.1q-.52-.24-.21-2.37l.11-.56.15-.64c.12-.45.27-.95.4-1.37a24.07,24.07,0,0,1,.95-2.62,25.94,25.94,0,0,1,2.75-4.82c1-1.46,2.25-2.76,2.85-3.63l11.3,13.18Z"/><path class="cls-11" d="M464.56,347.35a21,21,0,0,1,11.13,4,27.26,27.26,0,0,1,8.05,9.41,38.85,38.85,0,0,1,4.15,23,41,41,0,0,1-3.21,11.51,43,43,0,0,1-6.38,10.17A46.53,46.53,0,0,1,459,419a40.19,40.19,0,0,0,13.58-19,31.21,31.21,0,0,0,1.56-10.19,24.84,24.84,0,0,0-1.85-9,20.06,20.06,0,0,0-4.43-6.65,13.16,13.16,0,0,0-5.77-3.44,8.23,8.23,0,0,0-5.43.59,6.76,6.76,0,0,0-3.25,3.37l5.11-12.42Z"/><path class="cls-11" d="M442,411.57a32.68,32.68,0,0,1-7.1.07,21.91,21.91,0,0,1-5.29-1.24,20.56,20.56,0,0,1-5.7-3.19,21.64,21.64,0,0,1-4.34-4.58,25.46,25.46,0,0,1-2.61-4.64,38.07,38.07,0,0,1-2.32-7.63c-.22-1.08-.4-2.14-.55-2.93l-.44-2.58c-.28-1.72-.53-3.44-.76-5.17s-.44-3.47-.61-5.21l-.25-2.64c-.07-.91-.13-1.88-.17-2.89a48.51,48.51,0,0,1,.14-6.73c.12-1.24.28-2.51.53-3.84a35.14,35.14,0,0,1,1-4,40.75,40.75,0,0,1,3.19-7.59c.65-1.13,1.31-2.31,2-3.34.35-.52.71-1.06,1.07-1.56l1.11-1.47c.37-.5.75-.95,1.13-1.4l1.14-1.34c.76-.83,1.55-1.71,2.31-2.46l1.16-1.16,1.15-1.09c.78-.74,1.52-1.37,2.29-2.06,3-2.61,5.91-4.82,8.55-6.85-1.92,3.14-4.06,6.45-6.14,10a70.74,70.74,0,0,0-5.56,11.54,41.34,41.34,0,0,0-1.74,6.34,28.43,28.43,0,0,0-.44,6.4,23.32,23.32,0,0,0,1,5.88,35.28,35.28,0,0,0,2,5.08c1.53,3.19,3.23,6.26,5,9.25.88,1.49,1.77,3,2.7,4.4l1.4,2.13a14.59,14.59,0,0,0,1.41,1.88,7.73,7.73,0,0,0,1.44,1.26,2.44,2.44,0,0,0,1.36.44l.3-.07.05,0-.27.12c-.17.07-.35.16-.52.25l-.92.47c-.27.16-.57.36-.75.46a7,7,0,0,0-1.49,1.2l-.06.07s0,0,0,0h0l-.09.13,0,0a7.37,7.37,0,0,0,.41-.84,19.75,19.75,0,0,0,1.17-4.57l.16-1,.13-1c0-.43.1-.85.14-1.28s.08-1,.08-.89a1.47,1.47,0,0,1,.24-.59,4.36,4.36,0,0,1,1.4-1.2Z"/><path class="cls-11" d="M456.23,344.86c.82.73,2.08,1.71,3.86,3a81.26,81.26,0,0,1,6.62,5.22,53.75,53.75,0,0,1,7.06,7.76q1.59,2.13,3,4.42c.46.76.89,1.54,1.32,2.33.49,1,1,2,1.4,3.06a29.94,29.94,0,0,1,2,7.42,24.75,24.75,0,0,1-.87,10.62,23.26,23.26,0,0,1-5.26,8.94,23.51,23.51,0,0,1-2.54,2.32,26.76,26.76,0,0,1-2.44,1.71c-.77.48-1.5.88-2.17,1.23s-1.28.63-1.84.88l-1.49.64a77.83,77.83,0,0,1-19.19,5.48,69.14,69.14,0,0,0,16.59-13,43.08,43.08,0,0,0,4.58-4.9,15.55,15.55,0,0,0,1.09-1.71,12.29,12.29,0,0,0,.79-1.84,10.41,10.41,0,0,0-1.11-9.16,15,15,0,0,0-3.18-3.51,30.79,30.79,0,0,0-14.94-6.21,61.85,61.85,0,0,1-8.38-1.37,30.89,30.89,0,0,1-11-5.17Q443.14,353.91,456.23,344.86Z"/><path class="cls-11" d="M448,381.78a28.35,28.35,0,0,0,.05,5.05c.08.83.2,1.64.35,2.45a2.74,2.74,0,0,0,.23.78c0,.07.08.1.12.1l-.61.1-.76.14c-.42.07-.87.17-1.28.26a18,18,0,0,0-3.32,1l-.47.22-.35.19-.25.16-.05,0,0,0h0c.07,0-.16.12.15-.1h0l0,0,0,0A1,1,0,0,0,442,392l.19-.21a3.17,3.17,0,0,0,.21-.27,7.75,7.75,0,0,0,.6-.88c.12-.19.2-.34.32-.56s.26-.47.37-.71l.37-.81c.13-.3.23-.56.36-.9s.28-.71.4-1.07l.39-1.19.19-.64,0-.07h0l.06,0a1.08,1.08,0,0,1,.19-.06c.35-.06,1-.1,1.89-.16,8.7-.32,17.74-1.45,27.39-2.62-9.57,6.46-18.55,12.94-28.71,18.47a29,29,0,0,1-4.05,1.87,14.08,14.08,0,0,1-5,.87,11.7,11.7,0,0,1-3.09-.48,12.16,12.16,0,0,1-3.28-1.54,15.61,15.61,0,0,1-3-2.59,23.6,23.6,0,0,1-2.24-3c-1.28-2-2.19-3.87-3-5.45a52.77,52.77,0,0,1-2.3-4.78A55,55,0,0,1,417,374.53Z"/><path class="cls-11" d="M438.37,402.68a109.79,109.79,0,0,0,12.81-1.61,29.82,29.82,0,0,0,9.38-3.33,11.56,11.56,0,0,0,2.77-2.19,2.42,2.42,0,0,0,.81-1.69.2.2,0,0,0,0-.11v0h0l.43.31h0l0,0,.07,0a5.77,5.77,0,0,0,1.17.45,8.64,8.64,0,0,0,1.94.32,5.56,5.56,0,0,0,1.53-.13,5.56,5.56,0,0,1-1.53.13l-.49,0-.5-.07-.25,0h0l.07,0,.15,0a4.3,4.3,0,0,1,.57.2,5.2,5.2,0,0,1,1.92,1.56,6.32,6.32,0,0,1,1.19,2.47,12.42,12.42,0,0,1-.51,6.68,26.09,26.09,0,0,1-3.77,7.09c-3.34,4.62-8.13,8.68-13.19,12.18s-10.44,6.58-15.32,9.62Z"/><path class="cls-12" d="M464.57,404a18.22,18.22,0,0,1-7.47,1.76,22.84,22.84,0,0,1-5.74-.67,30.64,30.64,0,0,1-4-1.28l-1.53-.62-1.35-.57a49.54,49.54,0,0,1-10.18-6.07A52.28,52.28,0,0,1,425.6,388,51.42,51.42,0,0,1,419,377.12a43,43,0,0,0,13.41,6.76,37.56,37.56,0,0,0,13.17,1.48,30.15,30.15,0,0,0,11.37-3.06c.42-.21.82-.44,1.22-.66.19-.12.4-.23.58-.35a6.25,6.25,0,0,0,.45-.44,3.4,3.4,0,0,0,.67-1l-.32.77c-.12.26-.22.52-.32.79-.2.52-.37,1-.52,1.45a15.09,15.09,0,0,0-.9,4.13,4,4,0,0,0,.12,1.39l.42,1Q461.42,396.72,464.57,404Z"/><path class="cls-12" d="M438.72,353.89q12.58-2,25.39-3.25l1.62-.16c.6,0,1.3-.08,2.12-.09a27.29,27.29,0,0,1,6.38.64,25,25,0,0,1,4.22,1.36c.74.32,1.49.69,2.23,1.09a24.72,24.72,0,0,1,2.1,1.31,26.68,26.68,0,0,1,6.43,6.32,30.07,30.07,0,0,1,3.7,6.86,36.28,36.28,0,0,1,1.76,6.5,86.1,86.1,0,0,1,.9,9c-1.49-2.14-2.89-5.23-4.85-8.6a41.65,41.65,0,0,0-3.48-5.1,24,24,0,0,0-4.67-4.33,18.44,18.44,0,0,0-5.73-2.73,13.13,13.13,0,0,0-3-.47,11.19,11.19,0,0,0-2.72.25,13.08,13.08,0,0,0-4.14,1.74c-1.17.72-2.18,1.5-3.23,2.26q-12.51,9.19-23.86,19.14Z"/><path class="cls-12" d="M459.35,405.33a24.15,24.15,0,0,1-4.9,1,25.73,25.73,0,0,1-5.11-.14,30.29,30.29,0,0,1-5.07-1.12,36.74,36.74,0,0,1-4.92-2,40.7,40.7,0,0,1-4.45-2.59c-.36-.24-.7-.49-1-.74l-1-.71c-.6-.44-1.21-.9-1.79-1.37a49,49,0,0,1-6.62-6.43,44.73,44.73,0,0,0,12.6,1.19c1-.05,2-.14,3-.27s2-.24,3-.43A26,26,0,0,0,448.5,390a19.94,19.94,0,0,0,4.6-2.79,17.93,17.93,0,0,0,3.48-3.77,16.31,16.31,0,0,0,2.91-9Z"/><path class="cls-12" d="M430.84,352.61l12.27-.23,6.13-.12c2,0,4.23-.08,6.83.06a47.1,47.1,0,0,1,8.78,1.27,37.79,37.79,0,0,1,5.09,1.68c.44.19.84.34,1.32.58l1.43.7c.93.51,1.85,1,2.73,1.63a31.73,31.73,0,0,1,9.49,9.6,28.8,28.8,0,0,1,3.31,7.39,28.41,28.41,0,0,1,1.07,9,25.43,25.43,0,0,0-3-8.57,22.33,22.33,0,0,0-4.84-5.91,22.93,22.93,0,0,0-10.77-5.18c-.88-.17-1.77-.27-2.63-.35a17.49,17.49,0,0,0-2.5,0,22.93,22.93,0,0,0-4.47.73,32.5,32.5,0,0,0-7.44,3.13c-2.24,1.26-4.35,2.64-6.55,4l-6.57,4.07-13.14,8.14Z"/><path class="cls-12" d="M480.31,390.26l.74,5.31.37,2.65a13.24,13.24,0,0,1-.09,3.58,15.9,15.9,0,0,1-2.44,6.51,16.71,16.71,0,0,1-5.23,5.09,19.76,19.76,0,0,1-2.89,1.47c-.83.34-1.51.57-2.09.75l-1.31.39c-1.14.37-2.31.7-3.5,1a50.33,50.33,0,0,1-7.53,1.26,44.06,44.06,0,0,1-8.27-.06c-.71-.06-1.43-.17-2.15-.27s-1.48-.25-2.21-.42a40,40,0,0,1-13.07-5.31,36.84,36.84,0,0,1-8-6.85A30.82,30.82,0,0,0,433,409a29.35,29.35,0,0,0,9.41,0,27.89,27.89,0,0,0,7.91-2.51,28.82,28.82,0,0,0,6.19-4.14,33.25,33.25,0,0,0,4.64-5.06c.66-.89,1.27-1.8,1.84-2.72a1,1,0,0,0,.19-.65.22.22,0,0,0,0-.08l0,.15.29,1.06c.2.65.34,1.1.5,1.53a11.83,11.83,0,0,0,.77,1.77,4.13,4.13,0,0,0,.54.76l.08.07.05,0h0c.05,0,0,0,0,0h0l-.11-.06a4.54,4.54,0,0,0-1.22-.35c-.21-.05-.36-.06-.63-.11l-.84-.1-.54-.05-.64,0-.87-.06-1.06-.05-1.38-.06-2.18-.07a.27.27,0,0,1-.15,0,.81.81,0,0,1-.29-.27l-2.36-2.67L448.49,390Z"/><path class="cls-12" d="M418.48,373.51a22.2,22.2,0,0,1,8.34-12.85A23.82,23.82,0,0,1,434,357c.62-.19,1.34-.4,2-.55s1.25-.29,1.82-.41c1.15-.23,2.12-.39,3-.54,1.72-.3,3.44-.57,5.18-.81s3-.44,6.27-.63a57.6,57.6,0,0,1,8.41,0,32,32,0,0,1,8,1.65,25.53,25.53,0,0,1,12.76,9.71,36.93,36.93,0,0,1,5.71,15.81,51.79,51.79,0,0,1,.48,8.93l0,1.14-.08,1.19c0,.59-.06,1.12-.11,1.66-.08,1.09-.2,2.14-.33,3.19A98.43,98.43,0,0,1,484.77,409a120.08,120.08,0,0,0-1.66-12.34c-.21-1.05-.43-2.09-.69-3.14-.12-.52-.25-1-.4-1.57-.11-.7-.24-1.37-.4-2a39.42,39.42,0,0,0-2.37-7.1,31,31,0,0,0-3.34-5.79,22.11,22.11,0,0,0-4.14-4.36,13.17,13.17,0,0,0-10.88-2.81,26.84,26.84,0,0,0-9.56,4.16c-.3.2-.59.41-.87.62s-.25.2-.44.31l-.54.32c-.73.43-1.45.86-2.16,1.3-1.42.88-2.82,1.79-4.18,2.72s-2.36,1.87-2.58,2.77a6.13,6.13,0,0,0-.44,2.82,5.44,5.44,0,0,0,2.22,4.11L432,382.25Z"/><path class="cls-12" d="M429.18,405c-.34-.06-.85-.59-1.32-1.28a11.46,11.46,0,0,1-1.24-2.53,17.35,17.35,0,0,1-.76-3c-.08-.51-.15-1-.21-1.59s-.09-.94-.13-1.24l-1-7.25-1-7.25c-.08-.59-.17-1.22-.24-2,0-.3-.07-1-.09-1.5s0-1.12,0-1.68a34.39,34.39,0,0,1,.57-6.7,33.78,33.78,0,0,1,7.66-15.42c.48-.56,1-1.11,1.49-1.65s1.05-1.06,1.58-1.59L436,349l1.37-1.19a62.59,62.59,0,0,1,5.45-4.07,73.61,73.61,0,0,0-3.67,6.6c-.28.58-.56,1.16-.82,1.74s-.51,1.18-.81,1.83-.59,1.31-.85,2-.49,1.31-.7,2a23.32,23.32,0,0,0-.27,14.61,20.87,20.87,0,0,0,2.28,4.64,46.53,46.53,0,0,0,2.86,3.74l5.84,7.23,5.84,7.23a1.69,1.69,0,0,0,.73.6c.13.06.25,0,.37,0l.37.08a7.07,7.07,0,0,0,1.52.16,8.63,8.63,0,0,0,2.85-.48Z"/><path class="cls-12" d="M457,365.39a1.16,1.16,0,0,0-.55.9,3.9,3.9,0,0,0,0,.59,1.56,1.56,0,0,0,0,.26,1.67,1.67,0,0,1,0,.34,53.18,53.18,0,0,0-.31,6.11,16.6,16.6,0,0,0,.21,2.31,2.74,2.74,0,0,0,.2.76,2.3,2.3,0,0,0,.23.37,3,3,0,0,0,1.14,1,2.7,2.7,0,0,0,1.29.27.34.34,0,0,1,.19,0l.37.14.86.32a4.86,4.86,0,0,0,1.51.38.39.39,0,0,0,.31-.09c.1-.29-.19.58-.32,1l-.21.74-.17.67c-.1.44-.18.79-.23,1.16s-.1.64-.13.87l-.14,1.68v0a6.35,6.35,0,0,0,.5,2A5.17,5.17,0,0,0,462.9,389a5.17,5.17,0,0,1-1.14-1.75,6.35,6.35,0,0,1-.5-2v0l.14-1.68s0,0,0,0v.07a.77.77,0,0,1,0,.15l-.08.29a3.06,3.06,0,0,1-.26.55,4.51,4.51,0,0,1-2.16,1.73,12.37,12.37,0,0,1-3.39.86c-.62.09-1.24.16-1.87.21l-1.83.12A15.73,15.73,0,0,1,444,386a18.75,18.75,0,0,1-6.91-6.23,38.15,38.15,0,0,1-2.57-4.51c-.75-1.51-1.42-3.07-2-4.61-1.22-3.11-2.22-6.14-3.24-9l-.13-.78L429,360c0-.6-.08-1.2-.1-1.78a26.41,26.41,0,0,1,.1-3.55,27.62,27.62,0,0,1,.57-3.53c.27-1.14.58-2.23.83-3.17l13.93,9.12Z"/><path class="cls-12" d="M448,387.2a38.74,38.74,0,0,1-1.29-5.28c-.08-.46-.15-.9-.21-1.37a13.5,13.5,0,0,1,.11-3.3,15.45,15.45,0,0,1,2.57-6.53,16.55,16.55,0,0,1,2.4-2.77,19.15,19.15,0,0,1,2.14-1.7c1.26-.85,2.1-1.27,2.56-1.55l.15-.1.1-.07.2-.14.4-.28L458.8,363c1.09-.74,2.18-1.47,3.29-2.19q6.65-4.32,13.72-8.16a196,196,0,0,0-7.88,23c-.53,1.91-1,3.83-1.48,5.74l-.67,2.87c-.1.48-.23,1-.3,1.43a1,1,0,0,0,0,.3l0,.08s.05.11-.09-.18l-.16-.36-.66-1.37c-.15-.32-.3-.64-.47-.95s-.23-.46-.36-.69c-.21-.4-.41-.73-.56-1A5.27,5.27,0,0,0,462.1,380c-.13-.09,0,0,.15.06a4.37,4.37,0,0,0,.87.24,16.16,16.16,0,0,0,2.15.26l1,.07,1.5.06,2.47.07,1.62,0,1.46,0h0c.39.11.79.28,1.19.39a18.69,18.69,0,0,0,4.86.83Z"/><path class="cls-12" d="M419.74,364a10.11,10.11,0,0,1,1.31-4.91A18.27,18.27,0,0,1,425,354a23.56,23.56,0,0,1,2.58-2.09,30.73,30.73,0,0,1,2.85-1.77c1.82-1,3-1.57,4.43-2.29a91.38,91.38,0,0,1,17.44-6.38,96.17,96.17,0,0,1,18.6-2.84,97.69,97.69,0,0,1,19.2.95,85.66,85.66,0,0,0-19.42,7,78,78,0,0,0-15.72,10.57,66,66,0,0,0-11.49,13l-1.11,1.72a5.58,5.58,0,0,0-.78,1.63,3,3,0,0,0-.08.71,4.48,4.48,0,0,1,.06.65,6.3,6.3,0,0,0,.23,1.31,6.42,6.42,0,0,0,1.17,2.3,6.73,6.73,0,0,0,1.68,1.5Z"/><path class="cls-12" d="M467.66,358.93a1.49,1.49,0,0,0-1.22-.44,2.37,2.37,0,0,0-1.28.5,2.79,2.79,0,0,0-.51.46,7.91,7.91,0,0,1-.53.59l-.91,1c-.28.37-.59.69-.86,1.07a27,27,0,0,0-4.67,10.77c-.2,1-.39,2.06-.49,3.11-.07.52-.09,1-.13,1.57s-.06,1.1-.08,1.64a54,54,0,0,0,.33,6.87,93.11,93.11,0,0,0,3.23,15.07,106.12,106.12,0,0,1-11.18-15,49.63,49.63,0,0,1-6.74-18.35,41.58,41.58,0,0,1,2.92-22.58c.4-1,.91-1.94,1.41-2.93s1.07-1.92,1.71-2.91a23.21,23.21,0,0,1,2.45-3.05,26.58,26.58,0,0,1,3.06-2.83,25.31,25.31,0,0,1,7.5-4.09,29.44,29.44,0,0,1,4.1-1.06c1.35-.26,2.65-.41,3.77-.56l-1,17.35Z"/><path class="cls-12" d="M418.91,414.25a32.13,32.13,0,0,1-2.7-3.12c-.81-1.08-1.54-2.16-2.19-3.21a62,62,0,0,1-3.16-6l-1.21-2.61c-.38-.84-.75-1.69-1.12-2.55-.72-1.7-1.43-3.43-2.08-5.17a130.81,130.81,0,0,1-6.09-21.8A114.27,114.27,0,0,0,422,388.16c1.9,1.24,3.83,2.4,5.76,3.49a64.22,64.22,0,0,0,5.83,3,14.48,14.48,0,0,0,5.59,1.33,6.81,6.81,0,0,0,2.46-.46,5.59,5.59,0,0,0,1.05-.57l.95-.71Z"/><path class="cls-12" d="M465,342.31a22.47,22.47,0,0,1,8.68,5.51,26.56,26.56,0,0,1,5.76,8.73,41,41,0,0,1,2.47,9.22c.43,2.72.6,4.85.83,7.21.13,1.16.2,2.32.26,3.49l.19,3.49,0,3.5c0,1.17,0,2.34,0,3.51l-.11,3.5c-.05,1.17-.16,2.34-.24,3.51-.13,2.34-.43,4.66-.71,7a134.26,134.26,0,0,1-6.6,27.49A136.43,136.43,0,0,1,463,454.28a125,125,0,0,0,5.13-28.87,116.14,116.14,0,0,0-1.69-27.3c-.44-2.18-.83-4.31-1.4-6.41-.27-1.06-.51-2.1-.81-3.13l-.92-3.07-.47-1.51-.53-1.5-1.06-2.95-1.19-2.89c-.39-.95-.78-1.89-1.23-2.81l-1.31-2.75a19.26,19.26,0,0,0-1.38-2.46c-.94-1.42-2-2.29-2.87-2.39a4.56,4.56,0,0,0-2.65.17,3.71,3.71,0,0,0-1.83,1.46l7.67-12.05Z"/><path class="cls-12" d="M448.63,413.56c-5.95-1.66-12.15-3.45-18.52-5.83a97.22,97.22,0,0,1-19.27-9.56,68.22,68.22,0,0,1-17.53-16.45,57.15,57.15,0,0,1-6.55-11.42A51.61,51.61,0,0,1,383,356.65a46,46,0,0,0,7.49,12.29,46.89,46.89,0,0,0,9.5,8.46,52.59,52.59,0,0,0,20.43,8.08,79.48,79.48,0,0,0,19.72.6c6.44-.5,12.82-1.47,19.52-2.36Z"/><path class="cls-13" d="M445.25,347.39c-.44-.23-.21-.49.28-.71a6.46,6.46,0,0,1,2.05-.42,14.67,14.67,0,0,1,2.63.11c.44.06.88.14,1.32.22s1,.22,1.33.31c2.49.55,4.84,1.16,7.24,1.89a94,94,0,0,1,14,5.51c2.28,1.11,4.52,2.33,6.72,3.63,1.11.66,2.2,1.33,3.27,2l.81.53.41.27.44.3c.58.41,1.19.86,1.8,1.32a38.12,38.12,0,0,1,7.77,7.87,30.33,30.33,0,0,1,3.61,6.58,29.12,29.12,0,0,1,2,8.66,25.61,25.61,0,0,0-3.85-8A22.65,22.65,0,0,0,492,372.4a24.9,24.9,0,0,0-9.77-4.12,31.68,31.68,0,0,0-4.34-.56c-1.39-.11-2.77-.17-4.13-.19a71,71,0,0,0-8,.27,69.33,69.33,0,0,0-14.88,3,59.76,59.76,0,0,0-6.66,2.57,7.3,7.3,0,0,0-1.14,2.22,9.85,9.85,0,0,0-.37,2.31Z"/><path class="cls-13" d="M464.2,364.73c-8,10.4-11.92,23.35-11.27,34.91-11.19-12.92-16.71-34.81-10.54-58.07Z"/><path class="cls-13" d="M457.45,385.9a13.33,13.33,0,0,0-.24,1.92,2.38,2.38,0,0,0,.12,1.13.18.18,0,0,0,.09.1l0,0-.84-.09a23.46,23.46,0,0,0-2.94-.07,9.88,9.88,0,0,0-3,.51l-.16.08s-.08,0,0,0l.06,0,0,0h0l-.26.2h0l0,0,.06-.05.15-.13.18-.18a9,9,0,0,0,1-1.29,17.38,17.38,0,0,0,1.33-2.35c.28-.53.48-1,.77-1.66l.39-1,.21-.53.1-.26.05-.14c0-.05,0,0,0,0s.1-.1.25-.13a13.56,13.56,0,0,1,1.38-.09,18.71,18.71,0,0,0,10.83-4.26c-.49,7.17-5.42,15-13.77,19.89a18.16,18.16,0,0,1-7.31,2.73,11.48,11.48,0,0,1-5.13-.67,14.43,14.43,0,0,1-5.37-3.71,21.41,21.41,0,0,1-3.69-5.74,38.92,38.92,0,0,1-2-5.72c-.5-1.82-.88-3.5-1.23-5.1s-.65-3.11-1-4.48Z"/><path class="cls-13" d="M443.89,372.45c-.58-.1-.05-1.29.82-2.38a14.14,14.14,0,0,1,3.68-3.13,23.29,23.29,0,0,1,2.26-1.21c.87-.39,1.62-.7,2.15-.92,1.14-.46,2.27-1,3.43-1.37a76.26,76.26,0,0,1,14.38-3.78,79.61,79.61,0,0,1,15.09-1,82.11,82.11,0,0,1,15.38,2,65.89,65.89,0,0,0-29.56,14.92,52.39,52.39,0,0,0-9.4,11c-.63.95-1.19,2-1.72,2.95a1.82,1.82,0,0,0-.33,1.35,8.09,8.09,0,0,0,.83,3.7,11.46,11.46,0,0,0,1.24,1.89Z"/><path class="cls-13" d="M474.33,415.81a22.27,22.27,0,0,1-5.1,1.47,27.25,27.25,0,0,1-5.37.34,52.57,52.57,0,0,1-9-1.21l-1.67-.33-1.72-.37c-1.19-.26-2.48-.58-3.86-1a37.13,37.13,0,0,1-9.25-4.11,41.65,41.65,0,0,1-5.59-4.28c-1.58-1.42-2.86-2.74-4-3.9s-2.07-2.13-2.89-2.89-1.7-1.56-2.57-2.31a77.79,77.79,0,0,0-11.08-8,76,76,0,0,1,17.84,1.91,81,81,0,0,1,9.29,2.69c3.18,1.09,6.56,2.09,9.56,2a24.25,24.25,0,0,0,6.46-1.25l6.67-2.11c2.14-.76,3.91-1.8,4.44-3.14a9.63,9.63,0,0,0,.49-2,6.29,6.29,0,0,0-.15-2l3.66,15.09Z"/><path class="cls-13" d="M421.08,361.92c-1,.76-1.79,1.45-2.4,1.93a5.19,5.19,0,0,1-1.33.85c-.58.17-.71-.34-.49-1.2a10.71,10.71,0,0,1,1.85-3.3,18.6,18.6,0,0,1,3.36-3.26,24.69,24.69,0,0,1,8.87-4c1.47-.37,2.67-.61,3.58-.82l2.82-.62q11.3-2.49,22.64-4.77,22.68-4.59,45.57-8.39Q483.47,350,462.11,362.45q-10.68,6.23-21.16,12.6l-2.62,1.6a7.53,7.53,0,0,0-2,1.53,5.34,5.34,0,0,0-.82,2.91,4.73,4.73,0,0,0,.89,2.69c.54.71,1.1,1.07,1.36,1.41q-2.68-3.63-5.3-7.3L427.53,371Z"/><path class="cls-13" d="M464.12,356.74a173.13,173.13,0,0,0,28,28.82A177.14,177.14,0,0,1,436.21,372Z"/><path class="cls-13" d="M444.76,419.7A44.61,44.61,0,0,1,432.39,422a46.1,46.1,0,0,1-25.28-6.3c-.5-.3-1-.62-1.49-.94a18.06,18.06,0,0,1-1.69-1.17,26,26,0,0,1-4.22-4.12c-.35-.41-.74-1-1.09-1.45s-.74-1.12-1.11-1.76a22.48,22.48,0,0,1-1.06-2.14c-.18-.4-.34-.78-.49-1.2s-.32-.92-.45-1.38l-.2-.7-.19-.78c-.11-.53-.21-1-.29-1.59a21.83,21.83,0,0,1-.21-3.57c0-.62,0-1.24.11-1.87s.17-1.27.29-1.9a23,23,0,0,1,1.05-3.67,21.19,21.19,0,0,0-.56,3.77c0,.63-.05,1.27,0,1.89s.07,1.22.14,1.82a18.9,18.9,0,0,0,.7,3.35c.16.5.33,1,.52,1.43l.29.69c.1.23.2.42.31.62.21.4.42.79.65,1.17s.44.68.68,1a14.62,14.62,0,0,0,1.4,1.69,18.14,18.14,0,0,0,1.41,1.28,15.68,15.68,0,0,0,1.36,1,16,16,0,0,0,5,2,7.17,7.17,0,0,0,2.07.19c.64,0,1.26,0,1.88,0a32.6,32.6,0,0,0,13.28-3.49,27,27,0,0,0,9.15-7.63,19.1,19.1,0,0,0,3.86-9.69Z"/><path class="cls-13" d="M460.35,415.17a17.08,17.08,0,0,1-4.17-.05,18.13,18.13,0,0,1-3.74-.95,18.36,18.36,0,0,1-5.81-3.53,18,18,0,0,1-2.24-2.37c-.34-.42-.68-.9-1-1.34s-.54-.83-.77-1.24a23.66,23.66,0,0,1-2-4.79,30.73,30.73,0,0,1-.92-4c-.21-1.18-.32-2.11-.43-3.15a38.92,38.92,0,0,1-.13-6.11,41.25,41.25,0,0,1,9-23.33c-1.86,10.79,1.3,20.32,6.63,26.28a22.26,22.26,0,0,0,4.37,3.77,12.21,12.21,0,0,0,2.39,1.26,5.57,5.57,0,0,0,1.22.3,4.19,4.19,0,0,0,.61,0l.3,0,.15,0h0a12.64,12.64,0,0,0-2.81.88l-.19.09-.14.08,0,0h0l-.85.5h0l0,0,.07,0c.08-.06.07-.06,0,0a2.34,2.34,0,0,0-.52.78,2.08,2.08,0,0,0-.18.53,1.41,1.41,0,0,0,0,.29l0,.31Q459.76,407.23,460.35,415.17Z"/><path class="cls-13" d="M433.19,365c.13-.38,0-.53.1-.34a.8.8,0,0,0,.08.17,1,1,0,0,0,.15.24,1.61,1.61,0,0,0,.25.32c.08.08.21.24.32.33a8.66,8.66,0,0,0,1.8,1.24,8.35,8.35,0,0,0,.93.43l.36.15.28.1c.38.12.24.05-.21,0a3.4,3.4,0,0,0-.46-.07h-.06l7.07.9h0v.79l0,.07,0,.16c0,.1.05.21.07.31a4.43,4.43,0,0,0,1.05,2,3.76,3.76,0,0,0,1.34.82,4.6,4.6,0,0,0,.7.2l.17,0a.58.58,0,0,1,.22.07l1,.55a54.31,54.31,0,0,0,8.76,3.59c.75.22,1.49.45,2.24.64l1.12.28c.31.06.63.13.92.17a10.93,10.93,0,0,0,2.95.16,1.68,1.68,0,0,0,.71-.24s.06,0,.07-.07v0h0v0l0,.31.05.62,0,.51c0,.35.08.7.14,1a9.29,9.29,0,0,0,1,3.56,4.15,4.15,0,0,1-.37-.78l-.08-.22,0-.11-.05-.16a5.74,5.74,0,0,1-.19-.64l-.19-.79-.07-.42,0-.21v0a4.16,4.16,0,0,1-1.95,3.45,15.86,15.86,0,0,1-4.95,2.41c-.48.16-1,.28-1.48.42s-1.06.23-1.59.33c-1.08.21-2.17.38-3.28.54a64.08,64.08,0,0,1-13.9.31c-.6-.05-1.2-.1-1.81-.18s-1.31-.22-2-.37a27.06,27.06,0,0,1-4.14-1.25,22.43,22.43,0,0,1-7.78-5,27.18,27.18,0,0,1-6.59-12c-.16-.6-.32-1.21-.47-1.83l-.21-.93a6.38,6.38,0,0,0-.21-.86l-.22-.65-.11-.32,0,0V364a23.71,23.71,0,0,1,.21-3.49,19.14,19.14,0,0,1,.91-3.77,18.25,18.25,0,0,1,2.54-4.81,18.85,18.85,0,0,1,7.38-5.93,17.92,17.92,0,0,1,3-1.09,20.28,20.28,0,0,1,3.33-.61,23.12,23.12,0,0,1,3.33-.06,22.27,22.27,0,0,1,3,.41q-1.74,7.75-3.89,15.42l-1.1,3.82-.33,1.11Z"/><rect x="399" y="760" width="24" height="100" transform="translate(-453.2 530.4) rotate(-45.17)"/><rect x="399" y="760" width="24" height="100" transform="translate(690.6 -54.2) rotate(44.83)"/><g class="cls-14"><polygon points="500.33 124.6 612.82 254.97 500.33 254.97 500.33 124.6"/><polygon points="500.33 117.63 618.83 254.97 612.82 254.97 500.33 124.6 500.33 117.63"/><polygon class="cls-15" points="500.33 110.66 624.85 254.97 618.83 254.97 500.33 117.63 500.33 110.66"/><polygon class="cls-16" points="500.33 103.69 630.86 254.97 624.85 254.97 500.33 110.66 500.33 103.69"/><polygon class="cls-17" points="500.33 96.73 636.87 254.97 630.86 254.97 500.33 103.69 500.33 96.73"/><polygon class="cls-18" points="500.33 89.76 642.88 254.97 636.87 254.97 500.33 96.73 500.33 89.76"/><polygon class="cls-19" points="500.33 87.08 502.45 85.25 648.89 254.97 642.88 254.97 500.33 89.76 500.33 87.08"/><polygon class="cls-20" points="502.45 85.25 505.89 82.28 654.9 254.97 648.89 254.97 502.45 85.25"/><polygon class="cls-21" points="505.89 82.28 509.34 79.3 660.91 254.97 654.9 254.97 505.89 82.28"/><polygon class="cls-22" points="509.34 79.3 512.79 76.33 666.93 254.97 660.91 254.97 509.34 79.3"/><polygon class="cls-23" points="512.79 76.33 516.23 73.36 672.94 254.97 666.93 254.97 512.79 76.33"/><polygon class="cls-24" points="516.23 73.36 519.68 70.38 676.44 252.06 673.06 254.97 672.94 254.97 516.23 73.36"/><rect class="cls-25" x="597.5" y="39.76" width="4.55" height="239.96" transform="translate(41.32 430.62) rotate(-40.79)"/><rect class="cls-26" x="600.95" y="36.78" width="4.55" height="239.96" transform="translate(44.1 432.15) rotate(-40.79)"/><rect class="cls-27" x="604.4" y="33.81" width="4.55" height="239.96" transform="translate(46.88 433.68) rotate(-40.79)"/><rect class="cls-28" x="607.84" y="30.84" width="4.55" height="239.96" transform="translate(49.66 435.21) rotate(-40.79)"/><rect class="cls-29" x="611.29" y="27.86" width="4.55" height="239.96" transform="translate(52.44 436.74) rotate(-40.79)"/><rect class="cls-30" x="614.73" y="24.89" width="4.55" height="239.96" transform="translate(55.22 438.26) rotate(-40.79)"/><rect class="cls-31" x="618.18" y="21.92" width="4.55" height="239.96" transform="translate(58 439.79) rotate(-40.79)"/><rect class="cls-32" x="621.63" y="18.94" width="4.55" height="239.96" transform="translate(60.78 441.32) rotate(-40.79)"/><rect class="cls-33" x="625.07" y="15.97" width="4.55" height="239.96" transform="translate(63.56 442.85) rotate(-40.79)"/><rect class="cls-34" x="628.52" y="12.99" width="4.55" height="239.96" transform="translate(66.34 444.38) rotate(-40.79)"/><rect class="cls-35" x="631.97" y="10.02" width="4.55" height="239.96" transform="translate(69.12 445.91) rotate(-40.79)"/><rect class="cls-36" x="635.41" y="7.05" width="4.55" height="239.96" transform="translate(71.9 447.44) rotate(-40.79)"/><rect class="cls-37" x="638.86" y="4.07" width="4.55" height="239.96" transform="translate(74.68 448.97) rotate(-40.79)"/><rect class="cls-38" x="642.3" y="1.1" width="4.55" height="239.96" transform="translate(77.46 450.5) rotate(-40.79)"/><rect class="cls-39" x="645.75" y="-1.87" width="4.55" height="239.96" transform="translate(80.24 452.03) rotate(-40.79)"/><rect class="cls-40" x="649.2" y="-4.85" width="4.55" height="239.96" transform="translate(83.02 453.55) rotate(-40.79)"/><rect class="cls-41" x="652.64" y="-7.82" width="4.55" height="239.96" transform="translate(85.79 455.08) rotate(-40.79)"/><rect class="cls-42" x="656.09" y="-10.79" width="4.55" height="239.96" transform="translate(88.57 456.61) rotate(-40.79)"/><polygon class="cls-42" points="581.71 16.86 589.4 10.22 762.14 10.22 762.14 178.11 738.47 198.54 581.71 16.86"/></g><path class="cls-3" d="M571.13,79.1a30.72,30.72,0,0,1,4.69-.34,8.29,8.29,0,0,1,5.3,1.44,4.51,4.51,0,0,1,1.66,3.64,4.87,4.87,0,0,1-1.46,3.7,8.23,8.23,0,0,1-5.79,1.91,9.7,9.7,0,0,1-2-.15v7h-2.44Zm2.44,8.37a8.83,8.83,0,0,0,2,.18c2.95,0,4.74-1.32,4.74-3.71s-1.76-3.4-4.46-3.4a11.32,11.32,0,0,0-2.3.18Z"/><path class="cls-3" d="M597.57,89.91c0,4.61-3.48,6.62-6.77,6.62a6.18,6.18,0,0,1-6.51-6.41c0-4.17,3-6.62,6.74-6.62A6.15,6.15,0,0,1,597.57,89.91ZM586.79,90c0,2.73,1.71,4.79,4.12,4.79S595,92.8,595,90c0-2.11-1.15-4.79-4.07-4.79S586.79,87.67,586.79,90Z"/><path class="cls-3" d="M603.43,80.28a1.54,1.54,0,0,1-3.06,0,1.45,1.45,0,0,1,1.55-1.42A1.41,1.41,0,0,1,603.43,80.28Zm-2.75,16V83.78h2.47V96.25Z"/><path class="cls-3" d="M607.25,87.16c0-1.29,0-2.35-.11-3.38h2.19l.14,2.06h0A5.1,5.1,0,0,1,614,83.5c1.88,0,4.8,1,4.8,5.31v7.44h-2.47V89.06c0-2-.81-3.68-3.14-3.68a3.47,3.47,0,0,0-3.31,2.32,2.82,2.82,0,0,0-.17,1v7.5h-2.47Z"/><path class="cls-3" d="M625.69,80.2v3.58h3.53v1.73h-3.53v6.72c0,1.55.47,2.42,1.85,2.42A5.84,5.84,0,0,0,629,94.5l.11,1.7a6.49,6.49,0,0,1-2.19.31,3.57,3.57,0,0,1-2.66-1,4.34,4.34,0,0,1-1-3.24v-6.8h-2.1V83.78h2.1v-3Z"/><path class="cls-3" d="M631.41,85.84a1.67,1.67,0,0,1,3.34,0,1.56,1.56,0,0,1-1.68,1.6A1.58,1.58,0,0,1,631.41,85.84Zm0,9.1a1.67,1.67,0,0,1,3.34,0,1.56,1.56,0,0,1-1.68,1.59A1.57,1.57,0,0,1,631.41,94.94Z"/><path class="cls-3" d="M659.34,81.11a9.67,9.67,0,0,0-1.86.1,7.09,7.09,0,0,0-6.34,6h.09a5.59,5.59,0,0,1,4.4-1.93,5.17,5.17,0,0,1,5.5,5.4,5.82,5.82,0,0,1-6.06,5.9c-3.9,0-6.45-2.78-6.45-7.13a10.09,10.09,0,0,1,3.08-7.55,10.41,10.41,0,0,1,5.84-2.47,13.47,13.47,0,0,1,1.8-.13Zm-.7,9.65a3.53,3.53,0,0,0-3.77-3.83A4.1,4.1,0,0,0,651.34,89a1.77,1.77,0,0,0-.28,1c.05,2.76,1.43,4.79,4,4.79C657.2,94.78,658.64,93.16,658.64,90.76Z"/><path class="cls-3" d="M571.13,115h2.44v15.48h8.08v1.88H571.13Z"/><path class="cls-3" d="M587,116.34a1.54,1.54,0,0,1-3.06,0,1.45,1.45,0,0,1,1.55-1.41A1.4,1.4,0,0,1,587,116.34Zm-2.75,16V119.85h2.47v12.46Z"/><path class="cls-3" d="M591.81,119.85l2.67,7a30.35,30.35,0,0,1,1.09,3.2h.09c.31-1,.7-2.06,1.15-3.2l2.64-7H602l-5.33,12.46h-2.36l-5.17-12.46Z"/><path class="cls-3" d="M604.44,121.91a1.67,1.67,0,0,1,3.34,0,1.67,1.67,0,0,1-3.34,0Zm0,9.09a1.67,1.67,0,1,1,1.66,1.6A1.59,1.59,0,0,1,604.44,131Z"/><path class="cls-43" d="M647.18,126.19a6.87,6.87,0,0,0-.08-10,7.73,7.73,0,0,0-10.54-.08h0l-12,11.41,10.66,10.16,12-11.41Z"/><path class="cls-43" d="M633.85,116.25a7.71,7.71,0,0,0-10.53.07,6.87,6.87,0,0,0-.08,10h0l12,11.4,10.66-10.15-12-11.41Z"/><path class="cls-3" d="M626.23,121.51c.26,2.56-2.27-.84-2.33-2a2.15,2.15,0,0,1,2.11-2.22,2.18,2.18,0,0,1,2.33,2C628.4,120.46,626,118.86,626.23,121.51Z"/><path class="cls-43" d="M681.62,126.84a7.11,7.11,0,0,0-.08-10.39,8,8,0,0,0-10.9-.08h0l-12.39,11.8,11,10.51,12.39-11.8Z"/><path class="cls-43" d="M667.83,116.55a8,8,0,0,0-10.9.07,7.12,7.12,0,0,0-.08,10.4h0l12.38,11.8,11-10.51L667.88,116.5Z"/><path class="cls-3" d="M659.94,122c.27,2.65-2.35-.87-2.41-2.08a2.23,2.23,0,0,1,2.18-2.3,2.27,2.27,0,0,1,2.42,2.08C662.19,120.91,659.66,119.25,659.94,122Z"/><path class="cls-43" d="M716.35,127.16a7.11,7.11,0,0,0-.08-10.39,8,8,0,0,0-10.9-.08h0L693,128.49,704,139l12.38-11.8Z"/><path class="cls-43" d="M702.56,116.87a8,8,0,0,0-10.9.08,7.11,7.11,0,0,0-.08,10.39h0L704,139.14l11-10.51-12.38-11.8Z"/><path class="cls-3" d="M694.67,122.32c.27,2.65-2.35-.87-2.41-2.08a2.23,2.23,0,0,1,2.18-2.3,2.27,2.27,0,0,1,2.42,2.08C696.92,121.23,694.39,119.58,694.67,122.32Z"/><rect class="cls-44" x="794.12" y="74.72" width="67.46" height="499.75" rx="31.24"/><rect class="cls-45" x="801.72" y="88.97" width="53.21" height="475.05" rx="24.64"/><path class="cls-46" d="M822.28,632.67c0-3.17,5-5.74,11.06-5.74s8,5,11.07,5.74c5.49,1.41-5,5.74-11.07,5.74S822.28,635.84,822.28,632.67Z"/><path class="cls-47" d="M884,613.83c0-4.94-18.63.95-11.52-8.94,3-4.2-6.47,1.06-10.13,5.83-3.07-4.81-12.47-9.51-23.35-12.05a2.62,2.62,0,0,0,1.25-2.43c0-4.64-22.21-.59-15.68-8.4,5.55-6.65-15.68,3.76-15.68,8.4a2.86,2.86,0,0,0,.49,1.73c-15,2.87-25.78,10.4-25.78,19.23,0,11.3,19.06,28.32,39.26,20.46,18-7,31.11-10.65,39.26-20.46a1.58,1.58,0,0,0,.12-.15c3.36,4.93,12,10.56,10.24,5.72C868.45,611.79,884,618.77,884,613.83Z"/><circle class="cls-3" cx="797.7" cy="612.91" r="7.4"/><circle cx="796.91" cy="611.79" r="4.37"/><circle class="cls-48" cx="796.58" cy="611.37" r="1.12"/><path class="cls-49" d="M808.85,625.51c0,1.54-3.58-.87-9.28,2.79-4.31,2.77-9.27-1.25-9.27-2.79s4.15-2.78,9.27-2.78S808.85,624,808.85,625.51Z"/><ellipse class="cls-50" cx="817.04" cy="601.68" rx="4.57" ry="2.04"/><ellipse class="cls-50" cx="824.49" cy="602.68" rx="1.62" ry="1.04"/><path class="cls-46" d="M822,52.84c0-3,4.73-5.48,10.56-5.48s7.62,4.73,10.55,5.48c5.24,1.35-4.72,5.48-10.55,5.48S822,55.87,822,52.84Z"/><path class="cls-47" d="M880.9,34.86c0-4.71-17.78.92-11-8.53,2.88-4-6.17,1-9.67,5.57-2.93-4.59-11.89-9.08-22.27-11.5a2.51,2.51,0,0,0,1.18-2.32c0-4.43-21.19-.56-15-8,5.3-6.34-15,3.59-15,8a2.71,2.71,0,0,0,.47,1.65c-14.35,2.74-24.6,9.92-24.6,18.35,0,10.78,18.18,27,37.47,19.52C839.7,50.94,852.24,47.44,860,38.08l.11-.15c3.21,4.72,11.47,10.08,9.77,5.47C866.05,32.92,880.9,39.58,880.9,34.86Z"/><circle class="cls-3" cx="798.54" cy="33.99" r="7.06"/><circle cx="797.79" cy="32.92" r="4.17"/><circle class="cls-48" cx="797.47" cy="32.52" r="1.07"/><ellipse class="cls-50" cx="817" cy="23.27" rx="4.37" ry="1.94"/><ellipse class="cls-50" cx="824.1" cy="24.23" rx="1.55" ry="0.99"/><path class="cls-49" d="M807.72,47.31c-.44,1.92-3,3.57-6.72,3.57s-6.72-1.6-6.72-3.57,3.3-1.07,7-1.07S810.1,37,807.72,47.31Z"/><rect class="cls-51" x="934" y="75.62" width="71" height="496.38" rx="29.93"/><rect class="cls-52" x="942" y="89.77" width="56" height="471.84" rx="23.6"/><path class="cls-43" d="M996.57,39.67a15.38,15.38,0,0,0-.16-22,16.14,16.14,0,0,0-22.48-.16h0l-25.53,25,22.74,22.29,25.53-25Z"/><path class="cls-43" d="M968.14,17.85a16.14,16.14,0,0,0-22.48.16,15.38,15.38,0,0,0-.16,22h0l25.53,25,22.74-22.28-25.53-25Z"/><path class="cls-3" d="M951.88,29.41c.56,5.61-4.85-1.85-5-4.41a4.75,4.75,0,0,1,9.48-.47C956.51,27.09,951.3,23.59,951.88,29.41Z"/><g class="cls-53"><polygon class="cls-3" points="1003.99 588.38 940.06 587.18 940.06 584.31 1003.99 584.31 1003.99 588.38"/><polygon class="cls-3" points="1003.99 588.88 940.06 587.67 940.06 587.18 1003.99 588.38 1003.99 588.88"/><polygon class="cls-54" points="1003.99 589.37 940.06 588.16 940.06 587.67 1003.99 588.88 1003.99 589.37"/><polygon class="cls-55" points="1003.99 589.86 940.06 588.65 940.06 588.16 1003.99 589.37 1003.99 589.86"/><polygon class="cls-56" points="1003.99 590.35 940.06 589.14 940.06 588.65 1003.99 589.86 1003.99 590.35"/><polygon class="cls-57" points="1003.99 590.84 940.06 589.64 940.06 589.14 1003.99 590.35 1003.99 590.84"/><polygon class="cls-58" points="1003.99 591.34 940.06 590.13 940.06 589.64 1003.99 590.84 1003.99 591.34"/><polygon class="cls-59" points="1003.99 591.83 940.06 590.62 940.06 590.13 1003.99 591.34 1003.99 591.83"/><polygon class="cls-60" points="1003.99 592.32 940.06 591.11 940.06 590.62 1003.99 591.83 1003.99 592.32"/><polygon class="cls-61" points="1003.99 592.81 940.06 591.6 940.06 591.11 1003.99 592.32 1003.99 592.81"/><polygon class="cls-62" points="1003.99 593.3 940.06 592.1 940.06 591.6 1003.99 592.81 1003.99 593.3"/><polygon class="cls-63" points="1003.99 593.79 940.06 592.59 940.06 592.1 1003.99 593.3 1003.99 593.79"/><polygon class="cls-64" points="1003.99 594.29 940.06 593.08 940.06 592.59 1003.99 593.79 1003.99 594.29"/><polygon class="cls-65" points="1003.99 594.78 940.06 593.57 940.06 593.08 1003.99 594.29 1003.99 594.78"/><polygon class="cls-66" points="1003.99 595.27 940.06 594.06 940.06 593.57 1003.99 594.78 1003.99 595.27"/><polygon class="cls-67" points="1003.99 595.76 940.06 594.56 940.06 594.06 1003.99 595.27 1003.99 595.76"/><polygon class="cls-68" points="1003.99 596.25 940.06 595.05 940.06 594.56 1003.99 595.76 1003.99 596.25"/><polygon class="cls-69" points="1003.99 596.75 940.06 595.54 940.06 595.05 1003.99 596.25 1003.99 596.75"/><polygon class="cls-70" points="1003.99 597.24 940.06 596.03 940.06 595.54 1003.99 596.75 1003.99 597.24"/><polygon class="cls-71" points="1003.99 597.73 940.06 596.52 940.06 596.03 1003.99 597.24 1003.99 597.73"/><polygon class="cls-72" points="1003.99 598.22 940.06 597.02 940.06 596.52 1003.99 597.73 1003.99 598.22"/><polygon class="cls-73" points="1003.99 598.71 940.06 597.51 940.06 597.02 1003.99 598.22 1003.99 598.71"/><polygon class="cls-74" points="1003.99 599.21 940.06 598 940.06 597.51 1003.99 598.71 1003.99 599.21"/><polygon class="cls-75" points="1003.99 599.7 940.06 598.49 940.06 598 1003.99 599.21 1003.99 599.7"/><polygon class="cls-76" points="1003.99 600.19 940.06 598.98 940.06 598.49 1003.99 599.7 1003.99 600.19"/><polygon class="cls-77" points="1003.99 600.68 940.06 599.48 940.06 598.98 1003.99 600.19 1003.99 600.68"/><polygon class="cls-78" points="1003.99 601.17 940.06 599.97 940.06 599.48 1003.99 600.68 1003.99 601.17"/><polygon class="cls-79" points="1003.99 601.67 940.06 600.46 940.06 599.97 1003.99 601.17 1003.99 601.67"/><polygon class="cls-80" points="1003.99 602.16 940.06 600.95 940.06 600.46 1003.99 601.67 1003.99 602.16"/><polygon class="cls-81" points="1003.99 602.65 940.06 601.44 940.06 600.95 1003.99 602.16 1003.99 602.65"/><polygon class="cls-82" points="1003.99 603.14 940.06 601.94 940.06 601.44 1003.99 602.65 1003.99 603.14"/><polygon class="cls-83" points="1003.99 603.63 940.06 602.43 940.06 601.94 1003.99 603.14 1003.99 603.63"/><polygon class="cls-84" points="1003.99 604.13 940.06 602.92 940.06 602.43 1003.99 603.63 1003.99 604.13"/><polygon class="cls-85" points="1003.99 604.62 940.06 603.41 940.06 602.92 1003.99 604.13 1003.99 604.62"/><polygon class="cls-86" points="1003.99 605.11 940.06 603.9 940.06 603.41 1003.99 604.62 1003.99 605.11"/><polygon class="cls-87" points="1003.99 605.6 940.06 604.4 940.06 603.9 1003.99 605.11 1003.99 605.6"/><polygon class="cls-88" points="1003.99 606.09 940.06 604.89 940.06 604.4 1003.99 605.6 1003.99 606.09"/><polygon class="cls-89" points="1003.99 606.59 940.06 605.38 940.06 604.89 1003.99 606.09 1003.99 606.59"/><polygon class="cls-90" points="1003.99 607.08 940.06 605.87 940.06 605.38 1003.99 606.59 1003.99 607.08"/><polygon class="cls-91" points="1003.99 607.57 940.06 606.36 940.06 605.87 1003.99 607.08 1003.99 607.57"/><polygon class="cls-92" points="1003.99 608.06 940.06 606.86 940.06 606.36 1003.99 607.57 1003.99 608.06"/><polygon class="cls-93" points="1003.99 608.55 940.06 607.35 940.06 606.86 1003.99 608.06 1003.99 608.55"/><polygon class="cls-94" points="1003.99 609.05 940.06 607.84 940.06 607.35 1003.99 608.55 1003.99 609.05"/><polygon class="cls-95" points="1003.99 609.54 940.06 608.33 940.06 607.84 1003.99 609.05 1003.99 609.54"/><polygon class="cls-96" points="1003.99 610.03 940.06 608.82 940.06 608.33 1003.99 609.54 1003.99 610.03"/><polygon class="cls-97" points="1003.99 610.52 940.06 609.32 940.06 608.82 1003.99 610.03 1003.99 610.52"/><polygon class="cls-98" points="1003.99 611.01 940.06 609.81 940.06 609.32 1003.99 610.52 1003.99 611.01"/><polygon class="cls-99" points="1003.99 611.51 940.06 610.3 940.06 609.81 1003.99 611.01 1003.99 611.51"/><polygon class="cls-100" points="1003.99 612 940.06 610.79 940.06 610.3 1003.99 611.51 1003.99 612"/><polygon class="cls-101" points="1003.99 612.49 940.06 611.28 940.06 610.79 1003.99 612 1003.99 612.49"/><polygon class="cls-102" points="1003.99 612.98 940.06 611.78 940.06 611.28 1003.99 612.49 1003.99 612.98"/><polygon class="cls-103" points="1003.99 613.47 940.06 612.27 940.06 611.78 1003.99 612.98 1003.99 613.47"/><polygon class="cls-104" points="1003.99 613.97 940.06 612.76 940.06 612.27 1003.99 613.47 1003.99 613.97"/><polygon class="cls-105" points="1003.99 614.46 940.06 613.25 940.06 612.76 1003.99 613.97 1003.99 614.46"/><polygon class="cls-106" points="1003.99 614.95 940.06 613.74 940.06 613.25 1003.99 614.46 1003.99 614.95"/><polygon class="cls-107" points="1003.99 615.44 940.06 614.24 940.06 613.74 1003.99 614.95 1003.99 615.44"/><polygon class="cls-108" points="1003.99 615.93 940.06 614.73 940.06 614.24 1003.99 615.44 1003.99 615.93"/><polygon class="cls-109" points="1003.99 616.43 940.06 615.22 940.06 614.73 1003.99 615.93 1003.99 616.43"/><polygon class="cls-110" points="1003.99 616.92 940.06 615.71 940.06 615.22 1003.99 616.43 1003.99 616.92"/><polygon class="cls-111" points="1003.99 617.41 940.06 616.2 940.06 615.71 1003.99 616.92 1003.99 617.41"/><polygon class="cls-112" points="1003.99 617.9 940.06 616.7 940.06 616.2 1003.99 617.41 1003.99 617.9"/><polygon class="cls-113" points="1003.99 618.39 940.06 617.19 940.06 616.7 1003.99 617.9 1003.99 618.39"/><polygon class="cls-114" points="1003.99 618.89 940.06 617.68 940.06 617.19 1003.99 618.39 1003.99 618.89"/><polygon class="cls-115" points="1003.99 619.38 940.06 618.17 940.06 617.68 1003.99 618.89 1003.99 619.38"/><polygon class="cls-116" points="1003.99 619.87 940.06 618.66 940.06 618.17 1003.99 619.38 1003.99 619.87"/><polygon class="cls-117" points="1003.99 620.36 940.06 619.16 940.06 618.66 1003.99 619.87 1003.99 620.36"/><polygon class="cls-118" points="1003.99 620.85 940.06 619.65 940.06 619.16 1003.99 620.36 1003.99 620.85"/><polygon class="cls-119" points="1003.99 621.35 940.06 620.14 940.06 619.65 1003.99 620.85 1003.99 621.35"/><polygon class="cls-120" points="1003.99 621.84 940.06 620.63 940.06 620.14 1003.99 621.35 1003.99 621.84"/><polygon class="cls-121" points="1003.99 622.33 940.06 621.12 940.06 620.63 1003.99 621.84 1003.99 622.33"/><polygon class="cls-122" points="1003.99 622.82 940.06 621.62 940.06 621.12 1003.99 622.33 1003.99 622.82"/><polygon class="cls-123" points="1003.99 623.31 940.06 622.11 940.06 621.62 1003.99 622.82 1003.99 623.31"/><polygon class="cls-124" points="1003.99 623.81 940.06 622.6 940.06 622.11 1003.99 623.31 1003.99 623.81"/><polygon class="cls-125" points="1003.99 624.3 940.06 623.09 940.06 622.6 1003.99 623.81 1003.99 624.3"/><polygon class="cls-126" points="1003.99 624.79 940.06 623.58 940.06 623.09 1003.99 624.3 1003.99 624.79"/><polygon class="cls-127" points="1003.99 625.28 940.06 624.08 940.06 623.58 1003.99 624.79 1003.99 625.28"/><polygon class="cls-128" points="1003.99 625.77 940.06 624.57 940.06 624.08 1003.99 625.28 1003.99 625.77"/><polygon class="cls-129" points="1003.99 626.27 940.06 625.06 940.06 624.57 1003.99 625.77 1003.99 626.27"/><polygon class="cls-130" points="1003.99 626.76 940.06 625.55 940.06 625.06 1003.99 626.27 1003.99 626.76"/><polygon class="cls-131" points="1003.99 627.25 940.06 626.04 940.06 625.55 1003.99 626.76 1003.99 627.25"/><polygon class="cls-132" points="1003.99 627.74 940.06 626.54 940.06 626.04 1003.99 627.25 1003.99 627.74"/><polygon class="cls-133" points="1003.99 628.23 940.06 627.03 940.06 626.54 1003.99 627.74 1003.99 628.23"/><polygon class="cls-134" points="1003.99 628.73 940.06 627.52 940.06 627.03 1003.99 628.23 1003.99 628.73"/><polygon class="cls-135" points="1003.99 629.22 940.06 628.01 940.06 627.52 1003.99 628.73 1003.99 629.22"/><polygon class="cls-136" points="1003.99 629.71 940.06 628.5 940.06 628.01 1003.99 629.22 1003.99 629.71"/><polygon class="cls-137" points="1003.99 630.2 940.06 629 940.06 628.5 1003.99 629.71 1003.99 630.2"/><polygon class="cls-138" points="1003.99 630.69 940.06 629.49 940.06 629 1003.99 630.2 1003.99 630.69"/><polygon class="cls-139" points="1003.99 631.19 940.06 629.98 940.06 629.49 1003.99 630.69 1003.99 631.19"/><polygon class="cls-140" points="1003.99 631.68 940.06 630.47 940.06 629.98 1003.99 631.19 1003.99 631.68"/><polygon class="cls-141" points="1003.99 632.17 940.06 630.96 940.06 630.47 1003.99 631.68 1003.99 632.17"/><polygon class="cls-142" points="1003.99 632.66 940.06 631.46 940.06 630.96 1003.99 632.17 1003.99 632.66"/><polygon class="cls-143" points="1003.99 633.15 940.06 631.95 940.06 631.46 1003.99 632.66 1003.99 633.15"/><polygon class="cls-144" points="1003.99 633.65 940.06 632.44 940.06 631.95 1003.99 633.15 1003.99 633.65"/><polygon class="cls-145" points="1003.99 634.14 940.06 632.93 940.06 632.44 1003.99 633.65 1003.99 634.14"/><polygon class="cls-146" points="1003.99 634.63 940.06 633.42 940.06 632.93 1003.99 634.14 1003.99 634.63"/><polygon class="cls-147" points="1003.99 635.12 940.06 633.92 940.06 633.42 1003.99 634.63 1003.99 635.12"/><polygon class="cls-148" points="1003.99 635.61 940.06 634.41 940.06 633.92 1003.99 635.12 1003.99 635.61"/><polygon class="cls-149" points="1003.99 636.11 940.06 634.9 940.06 634.41 1003.99 635.61 1003.99 636.11"/><polygon class="cls-150" points="1003.99 636.6 940.06 635.39 940.06 634.9 1003.99 636.11 1003.99 636.6"/><polygon class="cls-151" points="1003.99 637.09 940.06 635.88 940.06 635.39 1003.99 636.6 1003.99 637.09"/><polygon class="cls-152" points="1003.99 637.58 940.06 636.38 940.06 635.88 1003.99 637.09 1003.99 637.58"/><polygon class="cls-153" points="1003.99 638.07 940.06 636.87 940.06 636.38 1003.99 637.58 1003.99 638.07"/><polygon class="cls-154" points="1003.99 638.57 940.06 637.36 940.06 636.87 1003.99 638.07 1003.99 638.57"/><polygon class="cls-155" points="1003.99 639.06 940.06 637.85 940.06 637.36 1003.99 638.57 1003.99 639.06"/><polygon class="cls-156" points="1003.99 639.55 940.06 638.34 940.06 637.85 1003.99 639.06 1003.99 639.55"/><polygon class="cls-157" points="1003.99 640.04 940.06 638.84 940.06 638.34 1003.99 639.55 1003.99 640.04"/><polygon class="cls-158" points="1003.99 640.53 940.06 639.33 940.06 638.84 1003.99 640.04 1003.99 640.53"/><polygon class="cls-159" points="1003.99 641.03 940.06 639.82 940.06 639.33 1003.99 640.53 1003.99 641.03"/><polygon class="cls-160" points="1003.99 641.52 940.06 640.31 940.06 639.82 1003.99 641.03 1003.99 641.52"/><polygon class="cls-161" points="1003.99 642.01 940.06 640.8 940.06 640.31 1003.99 641.52 1003.99 642.01"/><polygon class="cls-162" points="1003.99 642.5 940.06 641.29 940.06 640.8 1003.99 642.01 1003.99 642.5"/><polygon class="cls-163" points="1003.99 642.99 940.06 641.79 940.06 641.29 1003.99 642.5 1003.99 642.99"/><polygon class="cls-164" points="1003.99 643.49 940.06 642.28 940.06 641.79 1003.99 642.99 1003.99 643.49"/><polygon class="cls-165" points="1003.99 643.98 940.06 642.77 940.06 642.28 1003.99 643.49 1003.99 643.98"/><polygon class="cls-166" points="1003.99 644.47 940.06 643.26 940.06 642.77 1003.99 643.98 1003.99 644.47"/><polygon class="cls-167" points="1003.99 644.96 940.06 643.75 940.06 643.26 1003.99 644.47 1003.99 644.96"/><polygon class="cls-168" points="1003.99 645.45 940.06 644.25 940.06 643.75 1003.99 644.96 1003.99 645.45"/><polygon class="cls-169" points="1003.99 645.95 940.06 644.74 940.06 644.25 1003.99 645.45 1003.99 645.95"/><polygon class="cls-170" points="1003.99 646.44 940.06 645.23 940.06 644.74 1003.99 645.95 1003.99 646.44"/><polygon class="cls-171" points="1003.99 646.93 940.06 645.72 940.06 645.23 1003.99 646.44 1003.99 646.93"/><polygon class="cls-172" points="981.63 647 940.06 646.22 940.06 645.72 1003.99 646.93 1003.99 647 981.63 647"/><polygon class="cls-173" points="955.56 647 940.06 646.71 940.06 646.22 981.63 647 955.56 647"/><polygon class="cls-174" points="940.06 646.71 955.56 647 940.06 647 940.06 646.71"/></g><ellipse cx="961.53" cy="601.28" rx="4.5" ry="3.77"/><path d="M961.53,605.29c-2.61,0-4.74-1.8-4.74-4s2.13-4,4.74-4,4.75,1.8,4.75,4S964.15,605.29,961.53,605.29Zm0-7.54c-2.34,0-4.24,1.58-4.24,3.53s1.9,3.54,4.24,3.54,4.25-1.59,4.25-3.54S963.87,597.75,961.53,597.75Z"/><ellipse cx="982.01" cy="601.28" rx="4.5" ry="3.77"/><path d="M982,605.29c-2.62,0-4.74-1.8-4.74-4s2.12-4,4.74-4,4.75,1.8,4.75,4S984.63,605.29,982,605.29Zm0-7.54c-2.34,0-4.24,1.58-4.24,3.53s1.9,3.54,4.24,3.54,4.25-1.59,4.25-3.54S984.35,597.75,982,597.75Z"/><ellipse cx="968.77" cy="615.3" rx="1.26" ry="1.06"/><path d="M968.77,616.6a1.31,1.31,0,1,1,1.5-1.3A1.42,1.42,0,0,1,968.77,616.6Zm0-2.12a.84.84,0,1,0,1,.82A.93.93,0,0,0,968.77,614.48Z"/><ellipse cx="974.89" cy="615.41" rx="1.12" ry="0.95"/><path d="M974.89,616.6a1.2,1.2,0,1,1,1.38-1.19A1.29,1.29,0,0,1,974.89,616.6Zm0-1.9a.73.73,0,1,0,.88.71A.8.8,0,0,0,974.89,614.7Z"/><rect x="959.29" y="633.57" width="1" height="13.2"/><path d="M960.53,647H959V633.33h1.49Zm-1-.47H960V633.8h-.49Z"/><rect x="963.28" y="633.57" width="1" height="13.2"/><path d="M964.53,647H963V633.33h1.5Zm-1-.47h.5V633.8h-.5Z"/><rect x="967.28" y="633.57" width="1" height="13.2"/><path d="M968.53,647H967V633.33h1.5Zm-1-.47h.5V633.8h-.5Z"/><rect x="971.27" y="633.57" width="1" height="13.2"/><path d="M972.52,647H971V633.33h1.5Zm-1-.47h.5V633.8h-.5Z"/><rect x="975.27" y="633.57" width="1" height="13.2"/><path d="M976.52,647H975V633.33h1.5Zm-1-.47h.5V633.8h-.5Z"/><rect x="979.26" y="633.57" width="1" height="13.2"/><path d="M980.51,647H979V633.33h1.5Zm-1-.47h.5V633.8h-.5Z"/><rect x="983.76" y="633.57" width="1" height="13.2"/><path d="M985,647h-1.5V633.33H985Zm-1-.47h.5V633.8H984Z"/><rect x="514" y="811" width="141" height="64" rx="32"/><circle class="cls-3" cx="547" cy="842" r="22"/><rect class="cls-175" x="1211" y="364" width="646" height="522" rx="82.63"/><path d="M1473,489.8a11.34,11.34,0,0,1-3.43,8.5q-3.43,3.33-9.52,3.47a12.44,12.44,0,0,1-3.29-.49c-2.15-.61-3.27-.91-3.36-.91l-3.4-.74a6.21,6.21,0,0,1-3-1.57,12,12,0,0,1-3.08-5.46,28.13,28.13,0,0,0-2.24-5.53,9.07,9.07,0,0,1-1.33-2,2.91,2.91,0,0,1,.38-2.07,2.71,2.71,0,0,1,1.44-1.29,5.36,5.36,0,0,1,1.54-.14,37.64,37.64,0,0,1,6,.59c2.36.4,3.68.76,4,1.09s.65,2,1.12,5q.63,4.2,1.89,4.69a1.39,1.39,0,0,0,.63.14c.88,0,1.64-.74,2.27-2.21a12.59,12.59,0,0,0,1-5q0-6.09-3.78-8.12-8.68-4.69-12.18-8.68a14.44,14.44,0,0,1-3.64-10.92,22.21,22.21,0,0,1,3.81-10.61q3.46-5.36,7.32-6.26,1.61-.36,9.8,3.08c1.35.51,2.72,1.05,4.09,1.61a7.85,7.85,0,0,1,3.33,2.45c1.3,1.63,2,4.45,2,8.47,0,.74,0,1.84-.07,3.29,0,1.26-.07,2.14-.07,2.66a8.65,8.65,0,0,0,.49,1.61,3.1,3.1,0,0,1,.28,1.54q-.15,3.07-2.59,3.43c-.94.14-2.66-.21-5.18-1.05-2.8-.89-4.58-1.85-5.32-2.87a3.59,3.59,0,0,1-.14-1.4c0-.7.08-2.29.24-4.76s.25-4.27.25-5.39c0-2-.24-3-.7-2.94q-2.17.14-3.61,3.11a15.49,15.49,0,0,0-1.43,6.76q0,6.3,3.71,9l8.4,5.32a17,17,0,0,1,5.53,5.18C1472.35,482.66,1473,485.78,1473,489.8Z"/><path d="M1509.34,498.27a2.48,2.48,0,0,1-.84,1.68,2.1,2.1,0,0,1-1.75.56q-8.68-1.2-9.66-3.29a1.19,1.19,0,0,1-.14-.56,1.3,1.3,0,0,1,.31-.77,2.13,2.13,0,0,0,.39-.74,1.4,1.4,0,0,1,.28-.59,12,12,0,0,0,.07-2.45,14.07,14.07,0,0,0-2.52,3.36,18.59,18.59,0,0,1-3.08,4.2,7.28,7.28,0,0,1-5.11,2.1,5.17,5.17,0,0,1-3.29-1.33,33.11,33.11,0,0,1-2.73-2.73c-2.24-2.52-3.46-3.9-3.64-4.13a6.31,6.31,0,0,1-1.47-3.71,4.25,4.25,0,0,1,.14-1.12q1.32-6.17,8.26-11.69a78.83,78.83,0,0,1,14.28-8.47c0-1.5-.38-2.45-1.12-2.87q-.71-.42-4.9,1.57a29.64,29.64,0,0,0-5.88,3.4c-.38.37-1,.88-1.82,1.54a2.81,2.81,0,0,1-2.17.42,12.74,12.74,0,0,1-3.29-2.52c-1.68-1.54-2.59-2.57-2.73-3.08a2.34,2.34,0,0,1,1.19-2.94c0-.05,1-.33,2.8-.84q2.58-1.41,5.18-2.8a25.82,25.82,0,0,1,9.24-2.8,5.51,5.51,0,0,1,3.64,1.68c1.21,1.07,2.44,2.13,3.67,3.18s2.51,2.07,3.82,3.05q2.23,1.95,2.24,3.78v26.46A7,7,0,0,1,1509.34,498.27Zm-11.2-20.44a15,15,0,0,0-5.88,4.06q-1.83,2.24-3.64,4.41a16.9,16.9,0,0,0-2.77,3.81,8.47,8.47,0,0,0-1.29,3.47c0,.37.14.56.42.56q1.47,0,6.58-6.34T1498.14,477.83Zm2.8-25.55a8.44,8.44,0,0,1-7.28,3.78,7,7,0,0,1-4.83-1.75,7.28,7.28,0,0,1-2.52-5.67,8.92,8.92,0,0,1,1.89-5.46,8.68,8.68,0,0,1,7.28-3.71,7,7,0,0,1,4.69,1.68,7.18,7.18,0,0,1,2.59,5.67A9.16,9.16,0,0,1,1500.94,452.28Zm-5.39-7.49a4.33,4.33,0,0,0-4.06,4.06,2,2,0,0,0,2.31,2.31,3.85,3.85,0,0,0,2.76-1.33,4,4,0,0,0,1.3-2.8A2,2,0,0,0,1495.55,444.79Z"/><path d="M1545.11,446a7,7,0,0,1-.53,2.73,15.71,15.71,0,0,0-.66,2.31v45.64a6.82,6.82,0,0,0,.35,2.87c.7,1.21.91,2,.63,2.45s-.84.56-1.82.56a28.73,28.73,0,0,1-4.9-.63c-2.48-.52-3.78-.77-3.92-.77a2.23,2.23,0,0,1-1.82-1.68,3.06,3.06,0,0,1-.07-.91,68,68,0,0,1,.77-8.54q-1.68,3.36-3.29,6.72-2.31,4.13-4.13,3.78-13.8-2.81-13.79-16.94a34.82,34.82,0,0,1,4.41-16.38q4.26-8.06,9.38-10.5a2.87,2.87,0,0,1,1.33-.35c1.16,0,3.19,1.44,6.09,4.34V447.1a10.62,10.62,0,0,0-.63-2A6.45,6.45,0,0,1,1532,443c0-1,.65-1.47,2-1.47a19.1,19.1,0,0,1,5,1c1.4.46,2.77.91,4.13,1.33A2.58,2.58,0,0,1,1545.11,446ZM1532.93,464q-3.93,1.74-7.11,7.7a23.65,23.65,0,0,0-3.18,11.06q0,5.94,4.62,6.51Q1529.71,489.58,1532.93,464Z"/><path d="M1583.11,498.27a2.4,2.4,0,0,1-.84,1.68,2.08,2.08,0,0,1-1.75.56q-8.67-1.2-9.66-3.29a1.13,1.13,0,0,1,.18-1.33,1.93,1.93,0,0,0,.38-.74,1.42,1.42,0,0,1,.29-.59,11.54,11.54,0,0,0,.06-2.45,14.35,14.35,0,0,0-2.52,3.36,18,18,0,0,1-3.08,4.2,7.25,7.25,0,0,1-5.11,2.1,5.19,5.19,0,0,1-3.29-1.33,36.73,36.73,0,0,1-2.73-2.73q-3.36-3.78-3.64-4.13a6.31,6.31,0,0,1-1.47-3.71,4.26,4.26,0,0,1,.15-1.12q1.32-6.17,8.25-11.69a79.18,79.18,0,0,1,14.28-8.47c0-1.5-.37-2.45-1.11-2.87q-.7-.42-4.91,1.57a29.64,29.64,0,0,0-5.88,3.4,22.38,22.38,0,0,1-1.82,1.54,2.79,2.79,0,0,1-2.17.42,12.92,12.92,0,0,1-3.29-2.52c-1.68-1.54-2.59-2.57-2.72-3.08a2.35,2.35,0,0,1,1.18-2.94c0-.05,1-.33,2.8-.84l5.19-2.8a25.73,25.73,0,0,1,9.23-2.8,5.47,5.47,0,0,1,3.64,1.68c1.22,1.07,2.44,2.13,3.68,3.18s2.51,2.07,3.82,3.05q2.24,1.95,2.23,3.78v26.46A6.53,6.53,0,0,1,1583.11,498.27Zm-11.19-20.44a15,15,0,0,0-5.88,4.06c-1.22,1.49-2.43,3-3.65,4.41a17.19,17.19,0,0,0-2.76,3.81,8.53,8.53,0,0,0-1.3,3.47c0,.37.14.56.42.56q1.47,0,6.58-6.34T1571.92,477.83Z"/><path d="M1621.75,495.33a6.66,6.66,0,0,1,.56,2.66,2.88,2.88,0,0,1-1.61,2.87,5,5,0,0,1-1.75.21,26.73,26.73,0,0,1-5.67-.74c-2.19-.49-3.52-1-4-1.43a1.42,1.42,0,0,1-.35-.91,5.83,5.83,0,0,1,1-2.49,5.8,5.8,0,0,0,1-2.48q.15-27.58-.42-27.79-1-.36-4.83,6.3-4.05,7-4.06,10.57v13.09a3,3,0,0,1,.91,2.24,3.62,3.62,0,0,1-2.38,3.64,2,2,0,0,1-.84.14,25.55,25.55,0,0,1-5.53-.88c-2.42-.58-3.78-1.06-4.06-1.43a2.08,2.08,0,0,1-.42-1.26,2.85,2.85,0,0,1,.81-1.68,3.48,3.48,0,0,0,.8-1.26V462.15a3,3,0,0,0-.56-1.47,1.88,1.88,0,0,1-.35-1.54,2.7,2.7,0,0,1,2.17-1.89q1.13-.28,5.25.77,4.48,1.11,4.9,2.31a3.78,3.78,0,0,1-.21,2.31,19.54,19.54,0,0,0-.77,2.8,6,6,0,0,0,.28,1.68,21.84,21.84,0,0,1,2.94-6.23c1.54-2.2,3.08-3.29,4.62-3.29a16.48,16.48,0,0,1,6.16,1.64q3.78,1.65,4.34,3Q1621.76,466.69,1621.75,495.33Z"/><path d="M1641.07,479.16c-.09,1.72-.53,2.68-1.33,2.87a4.05,4.05,0,0,1-.7.07,11.78,11.78,0,0,1-5.11-1.61,17.42,17.42,0,0,1-5-3.85q-.84-.92,0-3.36t.84-2.52V444.3a2.58,2.58,0,0,1,2.1-2.52,3.75,3.75,0,0,1,1.19-.14,14.37,14.37,0,0,1,4.48.84c1.68.56,2.73,1.16,3.15,1.82a21,21,0,0,1,.14,3.78v28.56a8.06,8.06,0,0,0,.14,1.22A7.3,7.3,0,0,1,1641.07,479.16Zm0,10.15a12.66,12.66,0,0,1,0,3.43c-.18,2.42-.28,3.92-.28,4.48a25.47,25.47,0,0,1-.28,4.34,2.06,2.06,0,0,1-1.75,1.82q-.84.21-4.83-1.4-4.2-1.75-5-3c-.32-.52-.21-1.36.35-2.52a6.23,6.23,0,0,0,.49-2.59q-.13-1.55,0-5.88c.19-1.68.89-2.5,2.1-2.45a19.35,19.35,0,0,1,5.46,1.57C1639.63,488.06,1640.89,488.79,1641.07,489.31Z"/><path d="M1293.19,595a28.49,28.49,0,0,1-3,11.85,48.19,48.19,0,0,1-5.9,9.7c-2.1,2.6-3.65,4.11-4.65,4.55a4.52,4.52,0,0,1-1.7.3,11.5,11.5,0,0,1-5-1.4,12,12,0,0,1-3.75-2.5v-36a1.65,1.65,0,0,1,1.5-1.55,16.37,16.37,0,0,1,2.5.35,11.2,11.2,0,0,0,3-1.05,11,11,0,0,1,4.32-1.1,8.25,8.25,0,0,1,4.2,1.15,27.44,27.44,0,0,1,3.45,2.7,13.48,13.48,0,0,1,4.35,6.1A25.86,25.86,0,0,1,1293.19,595Zm-8.3-9.65a1.59,1.59,0,0,0-.8-.15,12.62,12.62,0,0,0-6.35,2.3V610q3.4-1.95,5.8-9.55a40.15,40.15,0,0,0,2-11.9C1285.59,586.7,1285.36,585.63,1284.89,585.37Z"/><path d="M1320.29,591.12a1.67,1.67,0,0,1,.35,1,2.08,2.08,0,0,1-.57,1.2c-.38.46-.58.76-.58.9v23.25a3.2,3.2,0,0,0,.33,1,3.05,3.05,0,0,1,.32,1.1c0,.6-.51,1-1.55,1.3a10.61,10.61,0,0,1-3.75-.55c-2.13-.54-3.3-1.07-3.5-1.6a2.64,2.64,0,0,1,.15-1.75,6,6,0,0,0,.5-1.8,7.28,7.28,0,0,0-.15-1.3,15.75,15.75,0,0,1-2.1,4.45c-1.1,1.53-2.2,2.3-3.3,2.3a12.06,12.06,0,0,1-4.4-1.15c-1.8-.77-2.83-1.47-3.1-2.1q-1.39-3.21-1.4-23.65a5,5,0,0,1-.4-1.9,2.1,2.1,0,0,1,1.15-2.1,3.59,3.59,0,0,1,1.25-.15,18.85,18.85,0,0,1,4,.52,6.32,6.32,0,0,1,2.85,1.08,1,1,0,0,1,.25.65,4.14,4.14,0,0,1-.75,1.77,4.16,4.16,0,0,0-.75,1.78q-.09,19.7.3,19.85c.47.16,1.64-1.38,3.53-4.63s2.82-5.72,2.82-7.42v-9.35a2.2,2.2,0,0,1-.65-1.6,2.61,2.61,0,0,1,1.7-2.65,1.38,1.38,0,0,1,.6-.1,18.81,18.81,0,0,1,4,.62C1319.18,590.56,1320.13,590.88,1320.29,591.12Z"/><path d="M1352.59,582.12a2.69,2.69,0,0,1-.45,1.7c-.36.63-.75.93-1.15.9a1.73,1.73,0,0,1-1-.53,2,2,0,0,0-1-.57q-2.29-.4-2.3,4.25v1.55c0,.66,0,1.13,0,1.4h1.6c.37,0,1.09.6,2.15,1.8s1.59,2,1.55,2.55a2.74,2.74,0,0,1-.6,1.6,1.54,1.54,0,0,1-1.2.7,1.23,1.23,0,0,1-.35-.05,11.45,11.45,0,0,0-3.15-.25v19.75a1.94,1.94,0,0,0,.43,1,1.43,1.43,0,0,1,.32,1.08,2,2,0,0,1-2.1,1.75,13.58,13.58,0,0,1-3.85-.9c-2-.67-3.11-1.29-3.25-1.85a3.09,3.09,0,0,1,.35-1.48,5.11,5.11,0,0,0,.45-1.72v-17.7h-1.7c-.63,0-1.4-.56-2.32-1.68a4.85,4.85,0,0,1-1.38-2.67,2,2,0,0,1,.55-1.35,1.68,1.68,0,0,1,1.25-.6h3.6a30.45,30.45,0,0,1,.65-7.65,6.18,6.18,0,0,1,6.45-4.7c.44,0,.87,0,1.3,0a6.88,6.88,0,0,1,3.4,1.65C1352,581,1352.53,581.65,1352.59,582.12Z"/><path d="M1365.79,618.67a1.84,1.84,0,0,1-1.25,2.25,4,4,0,0,1-.7.05,16.92,16.92,0,0,1-4.45-.75c-1.9-.54-3-1.1-3.35-1.7-.16-.27,0-.79.45-1.55a5.85,5.85,0,0,0,.45-2.75v-21a10.87,10.87,0,0,1-.6-2.55c0-.44.62-.65,1.85-.65a14.06,14.06,0,0,1,4.18.92,8.09,8.09,0,0,1,3.22,1.63.8.8,0,0,1,.15.5,4.34,4.34,0,0,1-.57,1.5,4,4,0,0,0-.58,1.65v20.1a2.23,2.23,0,0,0,.58,1.25A2.87,2.87,0,0,1,1365.79,618.67Zm.15-34.55a1.09,1.09,0,0,1,0,.4,12,12,0,0,1-.45,2.85c-.33,1.26-.65,2-1,2.1s-1.76-.23-4.3-1.08-3.88-1.46-4-1.82a1.5,1.5,0,0,1-.15-.75,6.85,6.85,0,0,1,.7-2.85c.54-1.14,1.13-1.77,1.8-1.9a9.06,9.06,0,0,1,4,.87C1364.49,582.66,1365.61,583.38,1365.94,584.12Z"/><path d="M1394.14,614.77c.07.63-.57,1.78-1.9,3.45s-2.37,2.45-3.1,2.35q-2.15-.3-9.1-11.6c-.33.36-.9.95-1.7,1.75v5.9a6.14,6.14,0,0,0,.12.9c.09.43.15.75.18,1,.1,1.13-.13,1.86-.7,2.2a3.22,3.22,0,0,1-1.45.25,10.25,10.25,0,0,1-3.7-.7c-1.4-.54-2.1-1.17-2.1-1.9v-37.1a3.81,3.81,0,0,1,.5-1.75,2.32,2.32,0,0,1,1.15-1.2,1.11,1.11,0,0,1,.4,0,11.24,11.24,0,0,1,3.63.87c1.55.59,2.4,1.09,2.57,1.53a1.55,1.55,0,0,1,.15.6,2,2,0,0,1-.4,1,2.19,2.19,0,0,0-.4,1.18v17.35l7.4-10.15a2.08,2.08,0,0,1,1.65-1,4.65,4.65,0,0,1,2.65,1.2c1.27.93,1.92,1.85,2,2.75q0,.54-2.35,3.9-3.71,5.29-4.35,6.3l6.5,8.95a4,4,0,0,0,1.45,1.05C1393.79,614.12,1394.11,614.43,1394.14,614.77Z"/><path d="M1426.79,593.17a1.14,1.14,0,0,1-.55,1.3,11.74,11.74,0,0,0-1.15.65q-3.15,4.8-8.55,13,0,7.95,0,8.2c0,.16.16.59.37,1.27a5.74,5.74,0,0,1,.33,1.63,1.29,1.29,0,0,1-.85,1.3,3.83,3.83,0,0,1-1.5.25,12.35,12.35,0,0,1-4.2-.85c-1.93-.67-2.9-1.52-2.9-2.55a4.42,4.42,0,0,1,.4-1.45,4.63,4.63,0,0,0,.4-1.65v-19.8c-.37-1.87-.55-2.84-.55-2.9a1.81,1.81,0,0,1,1.4-1.95,6,6,0,0,1,1.45-.15,13,13,0,0,1,3.68.57c1.28.39,2,.79,2.27,1.23a1.06,1.06,0,0,1,.1.5,18.73,18.73,0,0,1-.7,2.4v2.4q1.2-2.16,2.35-4.3c1-1.8,1.8-2.75,2.3-2.85.73-.14,1.85.3,3.35,1.3S1426.62,592.5,1426.79,593.17Z"/><path d="M1448.44,610.92q.45.75-2,4.45a16.17,16.17,0,0,1-5.1,5.35,2.09,2.09,0,0,1-.9.15,15.19,15.19,0,0,1-5.1-1.2q-3.35-1.2-4.4-2.6-2.9-3.75-2.9-10.4a23.31,23.31,0,0,1,2.55-11.1q2.74-5.25,7-5.35a9.69,9.69,0,0,1,3.75.8,12.36,12.36,0,0,1,4.45,2.85,6.33,6.33,0,0,1,.85,2.7,23.2,23.2,0,0,1,.5,4.7c0,2.26-.37,3.83-1.1,4.7a39.26,39.26,0,0,1-10.5,1.85,17.42,17.42,0,0,0,.6,5.15c.47,1.8,1,2.71,1.45,2.75q1,0,2.4-1.65a7.53,7.53,0,0,0,1.55-2.45,24.19,24.19,0,0,1,1-3.1,8.38,8.38,0,0,1,3.15.8C1447.26,609.92,1448.17,610.45,1448.44,610.92Zm-8.9-15.3q-.86-.11-2.37,2.7a14.12,14.12,0,0,0-1.78,5.35,6.49,6.49,0,0,0,3.6-1.1c.53-.4.8-2.07.8-5C1439.79,596.33,1439.71,595.68,1439.54,595.62Z"/><path d="M1475.84,581.22a4.86,4.86,0,0,1-.37,1.95,10.76,10.76,0,0,0-.48,1.65v32.6a4.89,4.89,0,0,0,.25,2.05c.5.86.65,1.45.45,1.75s-.6.4-1.3.4a20.6,20.6,0,0,1-3.5-.45c-1.77-.37-2.7-.55-2.8-.55a1.6,1.6,0,0,1-1.3-1.2,2.43,2.43,0,0,1,0-.65,48.86,48.86,0,0,1,.55-6.1q-1.2,2.4-2.35,4.8-1.65,2.94-3,2.7-9.85-2-9.85-12.1a24.84,24.84,0,0,1,3.15-11.7q3-5.76,6.7-7.5a2.08,2.08,0,0,1,1-.25q1.24,0,4.35,3.1V582a6.9,6.9,0,0,0-.45-1.43,4.64,4.64,0,0,1-.4-1.52c0-.7.47-1.05,1.4-1.05a13.68,13.68,0,0,1,3.6.7c1,.33,2,.65,3,.95A1.84,1.84,0,0,1,1475.84,581.22Zm-8.7,12.9q-2.81,1.25-5.07,5.5a16.83,16.83,0,0,0-2.28,7.9q0,4.25,3.3,4.65Q1464.85,612.37,1467.14,594.12Z"/><path d="M1502.34,581.22a4.86,4.86,0,0,1-.37,1.95,10.76,10.76,0,0,0-.48,1.65v32.6a4.89,4.89,0,0,0,.25,2.05c.5.86.65,1.45.45,1.75s-.6.4-1.3.4a20.6,20.6,0,0,1-3.5-.45c-1.77-.37-2.7-.55-2.8-.55a1.6,1.6,0,0,1-1.3-1.2,2.43,2.43,0,0,1,0-.65,48.86,48.86,0,0,1,.55-6.1q-1.2,2.4-2.35,4.8-1.65,2.94-3,2.7-9.85-2-9.85-12.1a24.84,24.84,0,0,1,3.15-11.7q3-5.76,6.7-7.5a2.08,2.08,0,0,1,1-.25q1.24,0,4.35,3.1V582a6.9,6.9,0,0,0-.45-1.43,4.64,4.64,0,0,1-.4-1.52c0-.7.47-1.05,1.4-1.05a13.68,13.68,0,0,1,3.6.7c1,.33,2,.65,3,.95A1.84,1.84,0,0,1,1502.34,581.22Zm-8.7,12.9q-2.81,1.25-5.07,5.5a16.83,16.83,0,0,0-2.28,7.9q0,4.25,3.3,4.65Q1491.35,612.37,1493.64,594.12Z"/><path d="M1525.54,610.92q.45.75-2,4.45a16.17,16.17,0,0,1-5.1,5.35,2.09,2.09,0,0,1-.9.15,15.19,15.19,0,0,1-5.1-1.2q-3.35-1.2-4.4-2.6-2.89-3.75-2.9-10.4a23.31,23.31,0,0,1,2.55-11.1q2.74-5.25,7-5.35a9.69,9.69,0,0,1,3.75.8,12.36,12.36,0,0,1,4.45,2.85,6.33,6.33,0,0,1,.85,2.7,23.2,23.2,0,0,1,.5,4.7c0,2.26-.37,3.83-1.1,4.7a39.26,39.26,0,0,1-10.5,1.85,17.42,17.42,0,0,0,.6,5.15c.47,1.8,1,2.71,1.45,2.75q1,0,2.4-1.65a7.53,7.53,0,0,0,1.55-2.45,24.19,24.19,0,0,1,1-3.1,8.38,8.38,0,0,1,3.15.8C1524.36,609.92,1525.27,610.45,1525.54,610.92Zm-8.9-15.3q-.86-.11-2.37,2.7a14.12,14.12,0,0,0-1.78,5.35,6.49,6.49,0,0,0,3.6-1.1c.53-.4.8-2.07.8-5C1516.89,596.33,1516.81,595.68,1516.64,595.62Z"/><path d="M1545.79,595.17a2.74,2.74,0,0,1-.6,1.6,1.57,1.57,0,0,1-1.2.7,1.23,1.23,0,0,1-.35-.05,11.86,11.86,0,0,0-3.15-.25v19.75a5.86,5.86,0,0,1,.33.8,4.36,4.36,0,0,1,.32,1.5c0,1-.67,1.48-2,1.55a13.1,13.1,0,0,1-3.85-.9c-2-.67-3.12-1.29-3.25-1.85a3,3,0,0,1,.35-1.48,5.11,5.11,0,0,0,.45-1.72v-17.7h-1.7c-.63,0-1.42-.56-2.35-1.68a4.84,4.84,0,0,1-1.4-2.67,1.88,1.88,0,0,1,.58-1.35,1.72,1.72,0,0,1,1.27-.6h3.6v-4.5a3.54,3.54,0,0,1-.75-2.15,1.19,1.19,0,0,1,.9-1.3,5.86,5.86,0,0,1,1.25-.1,19.68,19.68,0,0,1,4.33.57,9.23,9.23,0,0,1,3.22,1.18.9.9,0,0,1,.35.7,3,3,0,0,1-.8,1.5,3.73,3.73,0,0,0-.85,1.4v2.7h1.6q.5,0,2.1,1.8C1545.26,593.82,1545.79,594.67,1545.79,595.17Z"/><path d="M1577.84,582.12a2.69,2.69,0,0,1-.45,1.7c-.37.63-.75.93-1.15.9a1.73,1.73,0,0,1-1-.53,2,2,0,0,0-1-.57q-2.29-.4-2.3,4.25v1.55c0,.66,0,1.13,0,1.4h1.6c.37,0,1.08.6,2.15,1.8s1.58,2,1.55,2.55a2.74,2.74,0,0,1-.6,1.6,1.57,1.57,0,0,1-1.2.7,1.23,1.23,0,0,1-.35-.05,11.45,11.45,0,0,0-3.15-.25v19.75a1.94,1.94,0,0,0,.43,1,1.43,1.43,0,0,1,.32,1.08,2,2,0,0,1-2.1,1.75,13.51,13.51,0,0,1-3.85-.9c-2-.67-3.12-1.29-3.25-1.85a3,3,0,0,1,.35-1.48,5.11,5.11,0,0,0,.45-1.72v-17.7h-1.7c-.63,0-1.41-.56-2.32-1.68a4.85,4.85,0,0,1-1.38-2.67,1.93,1.93,0,0,1,.55-1.35,1.66,1.66,0,0,1,1.25-.6h3.6a30.45,30.45,0,0,1,.65-7.65,6.18,6.18,0,0,1,6.45-4.7c.43,0,.87,0,1.3,0a6.88,6.88,0,0,1,3.4,1.65C1577.21,581,1577.77,581.65,1577.84,582.12Z"/><path d="M1591,618.67a1.84,1.84,0,0,1-1.25,2.25,4.12,4.12,0,0,1-.7.05,16.92,16.92,0,0,1-4.45-.75c-1.9-.54-3-1.1-3.35-1.7-.17-.27,0-.79.45-1.55a5.85,5.85,0,0,0,.45-2.75v-21a10.87,10.87,0,0,1-.6-2.55c0-.44.62-.65,1.85-.65a14,14,0,0,1,4.17.92,8.08,8.08,0,0,1,3.23,1.63.8.8,0,0,1,.15.5,4.22,4.22,0,0,1-.58,1.5,4.09,4.09,0,0,0-.57,1.65v20.1a2.27,2.27,0,0,0,.57,1.25A2.8,2.8,0,0,1,1591,618.67Zm.15-34.55a1.09,1.09,0,0,1,0,.4,12,12,0,0,1-.45,2.85c-.33,1.26-.65,2-1,2.1s-1.77-.23-4.3-1.08-3.88-1.46-4-1.82a1.5,1.5,0,0,1-.15-.75,6.7,6.7,0,0,1,.7-2.85c.53-1.14,1.13-1.77,1.8-1.9a9.06,9.06,0,0,1,4,.87C1589.74,582.66,1590.86,583.38,1591.19,584.12Z"/><path d="M1612.79,614.72a5.64,5.64,0,0,1-1.83,4.4,7.56,7.56,0,0,1-5.12,1.7,7.16,7.16,0,0,1-1.75-.25c-1.14-.3-1.74-.47-1.8-.5l-1.83-.43a3.85,3.85,0,0,1-1.57-.77,12.18,12.18,0,0,1-2.15-2.75q-.85-1.41-1.65-2.85a6.32,6.32,0,0,1-.8-1.75c0-.47.33-.82,1-1a2.6,2.6,0,0,1,.9-.1,28.45,28.45,0,0,1,3.77.32,7.88,7.88,0,0,1,2.48.55,12.2,12.2,0,0,1,.55,2.88c.2,1.53.55,2.3,1,2.3.76,0,1.15-1,1.15-3.1q0-4-2.1-5c-3.2-1.5-5.3-2.84-6.3-4-1.24-1.44-1.85-3.6-1.85-6.5a10.39,10.39,0,0,1,1.5-5.38,5.9,5.9,0,0,1,3.55-3c.6-.14,2.53.5,5.8,1.9.3.1,1.18.28,2.65.55a3.82,3.82,0,0,1,2.2,1.05,6.32,6.32,0,0,1,1.1,3.65c0,1.23,0,2.46,0,3.7a18.17,18.17,0,0,1,.35,2,1.44,1.44,0,0,1-1.35,1.6,8.06,8.06,0,0,1-2.75-.55,6.16,6.16,0,0,1-2.85-1.55,21.51,21.51,0,0,1-.3-3.75c-.1-2.24-.34-3.35-.7-3.35s-1,.65-1.4,1.95a12.54,12.54,0,0,0-.65,4.05c0,1.76.38,2.88,1.15,3.35,1.63.9,3.26,1.81,4.87,2.72a9.69,9.69,0,0,1,3.38,2.83A9.16,9.16,0,0,1,1612.79,614.72Z"/><path d="M1640.79,614.77c.06.63-.57,1.78-1.9,3.45s-2.37,2.45-3.1,2.35q-2.16-.3-9.1-11.6c-.34.36-.9.95-1.7,1.75v5.9a6.14,6.14,0,0,0,.12.9c.08.43.14.75.18,1,.1,1.13-.14,1.86-.7,2.2a3.25,3.25,0,0,1-1.45.25,10.25,10.25,0,0,1-3.7-.7c-1.4-.54-2.1-1.17-2.1-1.9v-37.1a3.69,3.69,0,0,1,.5-1.75,2.28,2.28,0,0,1,1.15-1.2,1.11,1.11,0,0,1,.4,0,11.25,11.25,0,0,1,3.62.87c1.55.59,2.41,1.09,2.58,1.53a1.55,1.55,0,0,1,.15.6,2.12,2.12,0,0,1-.4,1,2.19,2.19,0,0,0-.4,1.18v17.35l7.4-10.15a2.08,2.08,0,0,1,1.65-1,4.67,4.67,0,0,1,2.65,1.2c1.26.93,1.91,1.85,1.95,2.75q0,.54-2.35,3.9-3.71,5.29-4.35,6.3l6.5,8.95a3.92,3.92,0,0,0,1.45,1.05C1640.44,614.12,1640.75,614.43,1640.79,614.77Z"/><path d="M1663.84,610.92q.45.75-1.95,4.45a16.37,16.37,0,0,1-5.1,5.35,2.09,2.09,0,0,1-.9.15,15.19,15.19,0,0,1-5.1-1.2c-2.24-.8-3.7-1.67-4.4-2.6q-2.91-3.75-2.9-10.4a23.31,23.31,0,0,1,2.55-11.1q2.74-5.25,7-5.35a9.69,9.69,0,0,1,3.75.8,12.36,12.36,0,0,1,4.45,2.85,6.33,6.33,0,0,1,.85,2.7,23.2,23.2,0,0,1,.5,4.7c0,2.26-.37,3.83-1.1,4.7a39.39,39.39,0,0,1-10.5,1.85,17.42,17.42,0,0,0,.6,5.15c.46,1.8,1,2.71,1.45,2.75q1,0,2.4-1.65a7.53,7.53,0,0,0,1.55-2.45,24.19,24.19,0,0,1,1-3.1,8.38,8.38,0,0,1,3.15.8C1662.65,609.92,1663.57,610.45,1663.84,610.92Zm-8.9-15.3c-.57-.07-1.36.83-2.38,2.7a13.92,13.92,0,0,0-1.77,5.35,6.49,6.49,0,0,0,3.6-1.1c.53-.4.8-2.07.8-5C1655.19,596.33,1655.1,595.68,1654.94,595.62Z"/><path d="M1690.29,616.47a5,5,0,0,1,.4,1.9,2.07,2.07,0,0,1-1.15,2,3.59,3.59,0,0,1-1.25.15,18.93,18.93,0,0,1-4-.53,7.1,7.1,0,0,1-2.85-1,1,1,0,0,1-.25-.65,4.16,4.16,0,0,1,.75-1.78,4.14,4.14,0,0,0,.75-1.77q.09-19.71-.3-19.85-.71-.26-3.45,4.5c-1.94,3.33-2.9,5.85-2.9,7.55v9.35a2.17,2.17,0,0,1,.65,1.6,2.59,2.59,0,0,1-1.7,2.6,1.55,1.55,0,0,1-.6.1,18.31,18.31,0,0,1-3.95-.63,7.66,7.66,0,0,1-2.9-1,1.48,1.48,0,0,1-.3-.9,2,2,0,0,1,.57-1.2,2.52,2.52,0,0,0,.58-.9V592.77a2.24,2.24,0,0,0-.4-1,1.32,1.32,0,0,1-.25-1.1,1.91,1.91,0,0,1,1.55-1.35,10.36,10.36,0,0,1,3.75.55c2.13.53,3.3,1.08,3.5,1.65a2.79,2.79,0,0,1-.15,1.65,13,13,0,0,0-.55,2,4,4,0,0,0,.2,1.2,15.62,15.62,0,0,1,2.1-4.45c1.1-1.57,2.2-2.35,3.3-2.35a11.76,11.76,0,0,1,4.4,1.17c1.8.79,2.83,1.49,3.1,2.13Q1690.29,596,1690.29,616.47Z"/><path d="M1704.09,604.92c-.07,1.23-.39,1.91-.95,2.05a2.92,2.92,0,0,1-.5,0,8.41,8.41,0,0,1-3.65-1.15,12.34,12.34,0,0,1-3.6-2.75q-.6-.66,0-2.4t.6-1.8V580a1.85,1.85,0,0,1,1.5-1.8,2.69,2.69,0,0,1,.85-.1,10.29,10.29,0,0,1,3.2.6,4.31,4.31,0,0,1,2.25,1.3,16.44,16.44,0,0,1,.1,2.7v20.4a5.09,5.09,0,0,0,.1.87A6.59,6.59,0,0,1,1704.09,604.92Zm0,7.25a9,9,0,0,1,0,2.45c-.14,1.73-.2,2.8-.2,3.2a18.84,18.84,0,0,1-.2,3.1,1.49,1.49,0,0,1-1.25,1.3c-.4.1-1.55-.24-3.45-1s-3.2-1.55-3.6-2.15c-.24-.37-.15-1,.25-1.8a4.65,4.65,0,0,0,.35-1.85,39.7,39.7,0,0,1,0-4.2c.13-1.2.63-1.79,1.5-1.75a13.72,13.72,0,0,1,3.9,1.12C1703.05,611.28,1704,611.8,1704.09,612.17Z"/></svg>
