<svg id="Layer_1" data-name="Layer 1" xmlns="http://www.w3.org/2000/svg" width="760" height="430" viewBox="0 0 760 430"><defs><style>.cls-1{fill:#0071bc;}.cls-2{fill:#71e1ff;}.cls-3,.cls-4{fill:#fff;}.cls-4{stroke:#000;stroke-miterlimit:10;}.cls-5{fill:#333;}.cls-6{fill:#e8edef;}</style></defs><title>fisk</title><path class="cls-1" d="M341.89,343.76c0-19.53,30.51-35.36,68.15-35.36s49.25,30.49,68.16,35.36c33.82,8.71-30.52,35.36-68.16,35.36S341.89,363.29,341.89,343.76Z"/><path class="cls-2" d="M722.12,227.69c0-30.43-114.79,5.89-71-55.09,18.57-25.85-39.84,6.56-62.44,35.94C569.82,178.9,511.94,150,444.9,134.32c4.94-3.07,7.68-7.81,7.68-15,0-28.58-136.83-3.58-96.6-51.75,34.19-40.95-96.6,23.17-96.6,51.75a17.81,17.81,0,0,0,3,10.71C169.74,147.67,103.6,194,103.6,248.44c0,69.62,117.37,174.48,241.87,126.06,110.69-43,191.66-65.59,241.88-126.06.25-.3.5-.61.74-.92,20.67,30.41,74,65,63.06,35.26C626.3,215.13,722.12,258.11,722.12,227.69Z"/><circle class="cls-3" cx="190.46" cy="222.05" r="45.61"/><circle cx="185.59" cy="215.13" r="26.9"/><circle class="cls-4" cx="183.54" cy="212.57" r="6.92"/><path class="cls-5" d="M259.13,299.69c0,9.48-22-5.38-57.14,17.16-26.55,17.06-57.14-7.68-57.14-17.16s25.58-17.17,57.14-17.17S259.13,290.21,259.13,299.69Z"/><ellipse class="cls-6" cx="309.6" cy="152.87" rx="28.18" ry="12.55"/><ellipse class="cls-6" cx="355.47" cy="159.02" rx="9.99" ry="6.41"/></svg>
