<svg id="Layer_1" data-name="Layer 1" xmlns="http://www.w3.org/2000/svg" width="150" height="180" viewBox="0 0 150 180"><defs><style>.cls-1{fill:#caeffc;}.cls-2{fill:#fff;}.cls-3{fill:#555a5b;}</style></defs><title>flaske</title><path class="cls-1" d="M50.53,127.11a1.89,1.89,0,0,0,0,.58l7,35A2,2,0,0,0,60,164.24L115.74,153a2,2,0,0,0,1.58-2.38l-4.71-23.34.09,0L97.71,53,38.08,65Z"/><polygon class="cls-1" points="97.69 52.86 73.69 26.21 61.32 28.49 51.72 30.47 38.08 64.98 67.94 58.95 97.69 52.86"/><rect class="cls-2" x="50.57" y="20.44" width="22.55" height="8.08" transform="translate(-3.62 12.71) rotate(-11.4)"/><rect class="cls-3" x="42.02" y="58.52" width="60.75" height="45.94" transform="translate(-14.68 15.92) rotate(-11.4)"/></svg>
