<svg id="Layer_1" data-name="Layer 1" xmlns="http://www.w3.org/2000/svg" width="800" height="650" viewBox="0 0 800 650"><defs><style>.cls-1{fill:#7342ba;opacity:0.97;}</style></defs><title>gameover</title><rect class="cls-1" x="76.5" y="70" width="646" height="522" rx="82.63"/><path d="M288.18,181.45a3.68,3.68,0,0,1-2.45,3.57,1.57,1.57,0,0,1-1-.25,2,2,0,0,0-.91-.31,2.3,2.3,0,0,0-.91.21,118.84,118.84,0,0,1-4.27,14q-2.81,6.65-7.28,8.68a5.76,5.76,0,0,1-2.45.56q-1.26,0-6.23-1.82c-1.26-.33-3.25-1-5.95-2q-4.06-2-6.3-9a51.12,51.12,0,0,1-2-15.33,61,61,0,0,1,3.22-20.58q3.5-9.87,9.24-11.06A7.46,7.46,0,0,1,262,148a21.77,21.77,0,0,1,8.54,2.24q5.38,2.37,7.28,5.25a14,14,0,0,1,2,5.88c.42,2.7.67,4.17.77,4.41.14.79.32,1.75.56,2.87a4.83,4.83,0,0,1-2.17,3.64q-.92.34-5.46-1t-5.46-2.13c-.84-.56-1.19-1.66-1-3.29a1.64,1.64,0,0,1,.35-.88,1.77,1.77,0,0,0,.35-.94c0-3.32-.38-5-1.12-5q-2.39-.08-4.2,8a76.12,76.12,0,0,0-1.68,16.52q0,13.29,3.71,15.26c.74.37,1.76-.91,3-3.85a27,27,0,0,0,2.28-8.26,22.46,22.46,0,0,0-4.27-2.17c-1.68-.7-2.59-1.31-2.73-1.82a4.49,4.49,0,0,1,.7-3,5.45,5.45,0,0,1,2.06-2.48,7.13,7.13,0,0,1,3.05-.63,20.68,20.68,0,0,0,3.22-.14,26.66,26.66,0,0,0,3.85-1.19,10.08,10.08,0,0,1,3.29-.84,3.74,3.74,0,0,1,.77.07c1.16.23,2.88,1.28,5.14,3.15S288.22,180.79,288.18,181.45Z"/><path d="M320.17,204.27a2.48,2.48,0,0,1-.84,1.68,2.1,2.1,0,0,1-1.75.56q-8.68-1.2-9.66-3.29a1.19,1.19,0,0,1-.14-.56,1.3,1.3,0,0,1,.31-.77,2.13,2.13,0,0,0,.39-.74,1.4,1.4,0,0,1,.28-.59,12,12,0,0,0,.07-2.45,14.07,14.07,0,0,0-2.52,3.36,18.59,18.59,0,0,1-3.08,4.2,7.28,7.28,0,0,1-5.11,2.1,5.17,5.17,0,0,1-3.29-1.33,33.11,33.11,0,0,1-2.73-2.73c-2.24-2.52-3.46-3.9-3.64-4.13a6.31,6.31,0,0,1-1.47-3.71,4.25,4.25,0,0,1,.14-1.12q1.32-6.17,8.26-11.69a78.83,78.83,0,0,1,14.28-8.47c0-1.5-.38-2.45-1.12-2.87q-.71-.42-4.9,1.57a29.64,29.64,0,0,0-5.88,3.4c-.38.37-1,.88-1.82,1.54a2.81,2.81,0,0,1-2.17.42,12.74,12.74,0,0,1-3.29-2.52c-1.68-1.54-2.59-2.57-2.73-3.08a2.34,2.34,0,0,1,1.19-2.94c0-.05,1-.33,2.8-.84q2.58-1.41,5.18-2.8a25.82,25.82,0,0,1,9.24-2.8,5.51,5.51,0,0,1,3.64,1.68q1.81,1.6,3.67,3.18t3.82,3.05q2.24,1.95,2.24,3.78v26.46A7,7,0,0,1,320.17,204.27ZM309,183.83a15,15,0,0,0-5.88,4.06q-1.83,2.24-3.64,4.41a16.9,16.9,0,0,0-2.77,3.81,8.47,8.47,0,0,0-1.29,3.47c0,.37.14.56.42.56q1.47,0,6.58-6.34T309,183.83Z"/><path d="M378.55,201.33a6.83,6.83,0,0,1,.56,2.66,2.9,2.9,0,0,1-1.61,2.87,5,5,0,0,1-1.75.21,26.58,26.58,0,0,1-5.67-.74c-2.2-.49-3.53-1-4-1.43a1.37,1.37,0,0,1-.35-.91,5.83,5.83,0,0,1,1.05-2.49,5.8,5.8,0,0,0,1-2.48q.14-27.59-.42-27.79c-.75-.24-2.27,1.61-4.55,5.53q-3.78,6.44-3.78,11.2v13.72a9.53,9.53,0,0,1,.49,2.52,2.88,2.88,0,0,1-1.82,2.66,5,5,0,0,1-1.75.21,26.58,26.58,0,0,1-5.67-.74c-2.2-.49-3.53-1-4-1.43a.94.94,0,0,1-.28-.7,6.51,6.51,0,0,1,1-2.52,6.52,6.52,0,0,0,1-2.66q.13-27.59-.42-27.79-1-.36-4.83,6.3-4.07,7-4.06,10.57v13.09a3.05,3.05,0,0,1,.91,2.24,3.63,3.63,0,0,1-2.38,3.64,2,2,0,0,1-.84.14,25.47,25.47,0,0,1-5.53-.88c-2.43-.58-3.78-1.06-4.06-1.43a2.08,2.08,0,0,1-.42-1.26,2.82,2.82,0,0,1,.8-1.68,3.42,3.42,0,0,0,.81-1.26V168.15a3.06,3.06,0,0,0-.56-1.47,1.84,1.84,0,0,1-.35-1.54,2.68,2.68,0,0,1,2.17-1.89q1.11-.28,5.25.77c3,.74,4.62,1.51,4.9,2.31a3.94,3.94,0,0,1-.21,2.31,18.11,18.11,0,0,0-.77,2.8,5.67,5.67,0,0,0,.28,1.68,21.84,21.84,0,0,1,2.94-6.23c1.54-2.2,3.08-3.29,4.62-3.29a15.94,15.94,0,0,1,6.09,1.75c2.38,1.12,3.85,2.07,4.41,2.87.42.56.88,2.24,1.4,5q2.87-5.32,3.29-6.09,2.37-3.57,4.55-3.57a16.52,16.52,0,0,1,6.16,1.64c2.52,1.1,4,2.09,4.34,3Q378.54,172.69,378.55,201.33Z"/><path d="M413.27,193.56c.42.7-.49,2.77-2.73,6.23q-3.65,5.52-7.14,7.49a2.92,2.92,0,0,1-1.26.21,21.27,21.27,0,0,1-7.14-1.68c-3.13-1.12-5.18-2.34-6.17-3.64q-4.05-5.25-4.05-14.56a32.63,32.63,0,0,1,3.57-15.54q3.84-7.35,9.8-7.49a13.66,13.66,0,0,1,5.25,1.12,17.19,17.19,0,0,1,6.22,4q.63.63,1.2,3.78a32.66,32.66,0,0,1,.7,6.58c0,3.17-.52,5.36-1.54,6.58a54.83,54.83,0,0,1-14.7,2.59,24.26,24.26,0,0,0,.84,7.21c.65,2.52,1.33,3.8,2,3.85.93,0,2.05-.73,3.35-2.31a10.43,10.43,0,0,0,2.18-3.43A35.4,35.4,0,0,1,405,190.2c.75-.1,2.22.28,4.42,1.12S412.89,192.9,413.27,193.56Zm-12.46-21.42q-1.2-.15-3.33,3.78a19.76,19.76,0,0,0-2.48,7.49,9,9,0,0,0,5-1.54c.74-.56,1.12-2.9,1.12-7C401.16,173.14,401,172.23,400.81,172.14Z"/><path d="M457,165.7q3.84,1.81,6,7.35a33.84,33.84,0,0,1,1.89,11.9,38.66,38.66,0,0,1-3.22,16.38q-3.58,7.41-8.89,6.72-2-.5-5.88-1.19a32,32,0,0,1-5.18-1.05q-4-1-6.37-6.79a32.8,32.8,0,0,1-2.17-12.46,36.36,36.36,0,0,1,2.24-13.09q2.52-6.45,7.07-9a4.39,4.39,0,0,1,2.1-.42,32,32,0,0,1,5.52.91A40.24,40.24,0,0,1,457,165.7Zm-7.84,6.3q-1.89,0-3.5,4.58a26.37,26.37,0,0,0-1.61,8.79,42.15,42.15,0,0,0,1.18,9.94c.89,3.54,1.92,5.46,3.08,5.74q2.25.48,4-5A39,39,0,0,0,454,184.25a28.26,28.26,0,0,0-.9-7.07C452.25,173.72,451,172,449.18,172Z"/><path d="M502.37,167.17a179.86,179.86,0,0,0-6.23,21.21Q493,201.25,493.06,203v3.43c0,1.49-.6,2.35-1.68,2.59s-3.6-.26-7.59-1.33-6.22-1.94-6.69-2.59a3,3,0,0,1-.35-1.54,3.93,3.93,0,0,0-.14-1.33q-3.21-10.23-4.69-16.66a133.55,133.55,0,0,1-2.52-17.64,10.79,10.79,0,0,0-.14-1.19,7.84,7.84,0,0,1-.14-1.26,2,2,0,0,1,1.4-2.1q.63-.21,5.39.94c3.18.77,4.9,1.46,5.18,2.07a2.15,2.15,0,0,1,.21,1,5.19,5.19,0,0,1-.42,1.78,5.3,5.3,0,0,0-.42,1.44q.78,5.46,1.47,9.66,1.68,10.08,2.66,12,1.05-6.09,3.71-15.82c.84-3.13,1.71-6.26,2.59-9.38l.42-2.52a2.52,2.52,0,0,1,1.75-1.75c.56-.19,2.06.23,4.48,1.26Q501.53,165.7,502.37,167.17Z"/><path d="M533.38,193.56c.42.7-.49,2.77-2.73,6.23q-3.63,5.52-7.14,7.49a2.92,2.92,0,0,1-1.26.21,21.27,21.27,0,0,1-7.14-1.68c-3.12-1.12-5.18-2.34-6.16-3.64q-4.05-5.25-4.06-14.56a32.63,32.63,0,0,1,3.57-15.54q3.85-7.35,9.8-7.49a13.58,13.58,0,0,1,5.25,1.12,17.24,17.24,0,0,1,6.23,4c.42.42.82,1.68,1.19,3.78a32,32,0,0,1,.7,6.58q0,4.75-1.54,6.58a54.69,54.69,0,0,1-14.7,2.59,24.94,24.94,0,0,0,.84,7.21c.66,2.52,1.33,3.8,2,3.85q1.41.06,3.36-2.31a10.36,10.36,0,0,0,2.17-3.43,35.5,35.5,0,0,1,1.33-4.34c.75-.1,2.22.28,4.41,1.12S533,192.9,533.38,193.56Zm-12.46-21.42q-1.18-.15-3.32,3.78a20,20,0,0,0-2.49,7.49,9,9,0,0,0,5-1.54c.75-.56,1.12-2.9,1.12-7C521.27,173.14,521.16,172.23,520.92,172.14Z"/><path d="M565,168.71a1.58,1.58,0,0,1-.77,1.82,18,18,0,0,0-1.61.91q-4.41,6.72-12,18.13c0,7.42,0,11.24.07,11.48s.22.83.53,1.78a8.17,8.17,0,0,1,.45,2.28,1.81,1.81,0,0,1-1.19,1.82,5.2,5.2,0,0,1-2.1.35,17.22,17.22,0,0,1-5.88-1.19c-2.7-.94-4.06-2.13-4.06-3.57a6.44,6.44,0,0,1,.56-2,6.45,6.45,0,0,0,.56-2.31V170.46c-.51-2.62-.77-4-.77-4.06a2.55,2.55,0,0,1,2-2.73,8.5,8.5,0,0,1,2-.21,18.21,18.21,0,0,1,5.15.8c1.79.54,2.86,1.11,3.18,1.72a1.46,1.46,0,0,1,.14.7,25.26,25.26,0,0,1-1,3.36v3.36q1.68-3,3.29-6,2.17-3.78,3.22-4,1.54-.28,4.69,1.82C563.62,166.61,564.79,167.77,565,168.71Z"/><path d="M164.09,289.52a25.54,25.54,0,0,0-3.9,4.55,34.19,34.19,0,0,1,2.05,12.15,31.12,31.12,0,0,1-2.8,13.75q-3,6.24-8.15,6.85a6.52,6.52,0,0,1-2.35-.28l-2.55-.77c-1-.24-2.45-.69-4.45-1.35a5.23,5.23,0,0,1-.6,2.05,1.55,1.55,0,0,1-1.65,1,8.27,8.27,0,0,1-2.95-1.68,6.41,6.41,0,0,1-2.37-2.5,2,2,0,0,1,0-1.42c.2-.4.82-1.47,1.85-3.2a28.19,28.19,0,0,1-2.35-12.25,50,50,0,0,1,1.8-12.25q2.46-9.41,6.35-9.4a4.17,4.17,0,0,1,1,.17,8.94,8.94,0,0,0,1,.23,24,24,0,0,1,4.75-1.05,10.24,10.24,0,0,1,7.25,3.1c.27-.37.5-.7.7-1,.54-1.47,1.3-2.2,2.3-2.2a3,3,0,0,1,.6.05,10.21,10.21,0,0,1,2.58,2.37c1.35,1.49,2,2.46,2,2.93A.2.2,0,0,1,164.09,289.52Zm-11.85,3.15c-.5-1.47-1.11-2.3-1.85-2.5s-1.45.78-2.17,2.95-1.44,3.25-2.18,3.25a1.58,1.58,0,0,1-.72-.28,2.5,2.5,0,0,0-.78-.32q-1.89,4.14-1.7,11.85Q148.45,298.47,152.24,292.67Zm1.15,11.6q-4.54,7.14-8.4,14a4.09,4.09,0,0,0,2.6,2.35q2.5.45,4.15-4.8A46.5,46.5,0,0,0,153.39,304.27Z"/><path d="M188.39,298.07a128.19,128.19,0,0,0-4.45,15.15q-2.25,9.19-2.2,10.45v2.45c0,1.06-.43,1.68-1.2,1.85s-2.57-.19-5.42-1-4.44-1.39-4.78-1.85a2.16,2.16,0,0,1-.25-1.1,2.84,2.84,0,0,0-.1-.95q-2.3-7.31-3.35-11.9a94.92,94.92,0,0,1-1.8-12.6,8,8,0,0,0-.1-.85,6.11,6.11,0,0,1-.1-.9,1.43,1.43,0,0,1,1-1.5,14.23,14.23,0,0,1,3.85.67c2.27.55,3.5,1,3.7,1.48a1.54,1.54,0,0,1,.15.7,3.67,3.67,0,0,1-.3,1.27,3.79,3.79,0,0,0-.3,1q.56,3.9,1,6.9c.8,4.8,1.44,7.65,1.9,8.55q.75-4.35,2.65-11.3.9-3.36,1.85-6.7l.3-1.8a1.81,1.81,0,0,1,1.25-1.25c.4-.14,1.47.16,3.2.9Q187.79,297,188.39,298.07Z"/><path d="M200.59,310.92c-.06,1.23-.38,1.91-1,2.05a2.73,2.73,0,0,1-.5,0,8.45,8.45,0,0,1-3.65-1.15,12.61,12.61,0,0,1-3.6-2.75q-.6-.66,0-2.4t.6-1.8V286a1.85,1.85,0,0,1,1.5-1.8,2.74,2.74,0,0,1,.85-.1,10.24,10.24,0,0,1,3.2.6,4.31,4.31,0,0,1,2.25,1.3,15.18,15.18,0,0,1,.1,2.7v20.4a5.09,5.09,0,0,0,.1.87A5.37,5.37,0,0,1,200.59,310.92Zm0,7.25a9,9,0,0,1,0,2.45c-.13,1.73-.2,2.8-.2,3.2a17.78,17.78,0,0,1-.2,3.1,1.48,1.48,0,0,1-1.25,1.3c-.4.1-1.55-.24-3.45-1s-3.2-1.55-3.6-2.15c-.23-.37-.15-1,.25-1.8a4.48,4.48,0,0,0,.35-1.85,39.7,39.7,0,0,1,0-4.2c.13-1.2.63-1.79,1.5-1.75a13.63,13.63,0,0,1,3.9,1.12C199.56,317.28,200.46,317.8,200.59,318.17Z"/><path d="M240.29,301a28.49,28.49,0,0,1-2.95,11.85,48.65,48.65,0,0,1-5.9,9.7c-2.1,2.6-3.65,4.11-4.65,4.55a4.56,4.56,0,0,1-1.7.3,11.46,11.46,0,0,1-5-1.4,11.78,11.78,0,0,1-3.75-2.5v-36a1.65,1.65,0,0,1,1.5-1.55,16.53,16.53,0,0,1,2.5.35,11.32,11.32,0,0,0,3-1.05,11,11,0,0,1,4.32-1.1,8.25,8.25,0,0,1,4.2,1.15,27.44,27.44,0,0,1,3.45,2.7,13.63,13.63,0,0,1,4.35,6.1A26.29,26.29,0,0,1,240.29,301Zm-8.3-9.65a1.62,1.62,0,0,0-.8-.15,12.59,12.59,0,0,0-6.35,2.3V316q3.41-1.95,5.8-9.55a40.15,40.15,0,0,0,2.05-11.9C232.69,292.7,232.46,291.63,232,291.37Z"/><path d="M267.39,297.12a1.74,1.74,0,0,1,.35,1,2.08,2.08,0,0,1-.57,1.2c-.39.46-.58.76-.58.9v23.25a3.2,3.2,0,0,0,.33,1,3.28,3.28,0,0,1,.32,1.1c0,.6-.52,1-1.55,1.3a10.61,10.61,0,0,1-3.75-.55c-2.13-.54-3.3-1.07-3.5-1.6a2.52,2.52,0,0,1,.15-1.75,6.34,6.34,0,0,0,.5-1.8,7.28,7.28,0,0,0-.15-1.3,15.75,15.75,0,0,1-2.1,4.45c-1.1,1.53-2.2,2.3-3.3,2.3a12.06,12.06,0,0,1-4.4-1.15c-1.8-.77-2.83-1.47-3.1-2.1q-1.39-3.21-1.4-23.65a4.84,4.84,0,0,1-.4-1.9,2.09,2.09,0,0,1,1.15-2.1,3.55,3.55,0,0,1,1.25-.15,19,19,0,0,1,4.05.52,6.32,6.32,0,0,1,2.85,1.08,1,1,0,0,1,.25.65,4.14,4.14,0,0,1-.75,1.77,4.16,4.16,0,0,0-.75,1.78q-.1,19.69.3,19.85c.47.16,1.64-1.38,3.53-4.63s2.82-5.72,2.82-7.42v-9.35a2.2,2.2,0,0,1-.65-1.6,2.61,2.61,0,0,1,1.7-2.65,1.33,1.33,0,0,1,.6-.1,18.81,18.81,0,0,1,4,.62A7.76,7.76,0,0,1,267.39,297.12Z"/><path d="M304.54,322.47a4.77,4.77,0,0,1,.4,1.9,2.06,2.06,0,0,1-1.15,2.05,3.55,3.55,0,0,1-1.25.15,19.08,19.08,0,0,1-4.05-.53,7.1,7.1,0,0,1-2.85-1,1,1,0,0,1-.25-.65,4.16,4.16,0,0,1,.75-1.78,4.14,4.14,0,0,0,.75-1.77q.11-19.71-.3-19.85-.7-.25-3.45,4.5-2.89,5-2.9,7.55v9.35a2.17,2.17,0,0,1,.65,1.6,2.59,2.59,0,0,1-1.7,2.6,1.48,1.48,0,0,1-.6.1,18.31,18.31,0,0,1-3.95-.63,7.74,7.74,0,0,1-2.9-1,1.48,1.48,0,0,1-.3-.9,2,2,0,0,1,.58-1.2,2.43,2.43,0,0,0,.57-.9V298.77a2.13,2.13,0,0,0-.4-1,1.32,1.32,0,0,1-.25-1.1,1.92,1.92,0,0,1,1.55-1.35,10.36,10.36,0,0,1,3.75.55c2.13.53,3.3,1.08,3.5,1.65a2.79,2.79,0,0,1-.15,1.65,13,13,0,0,0-.55,2,4.29,4.29,0,0,0,.2,1.2,15.62,15.62,0,0,1,2.1-4.45c1.1-1.57,2.2-2.35,3.3-2.35a11.76,11.76,0,0,1,4.4,1.17c1.8.79,2.83,1.49,3.1,2.13Q304.53,302,304.54,322.47Z"/><path d="M330.64,324.57a1.74,1.74,0,0,1-.6,1.2,1.5,1.5,0,0,1-1.25.4q-6.19-.85-6.9-2.35a.88.88,0,0,1-.1-.4,1,1,0,0,1,.23-.55,1.39,1.39,0,0,0,.27-.53,1,1,0,0,1,.2-.42,8.06,8.06,0,0,0,.05-1.75,10.05,10.05,0,0,0-1.8,2.4,13,13,0,0,1-2.2,3,5.19,5.19,0,0,1-3.65,1.5,3.7,3.7,0,0,1-2.35-.95,24.12,24.12,0,0,1-2-1.95c-1.6-1.8-2.47-2.79-2.6-2.95a4.51,4.51,0,0,1-1.05-2.65,3.08,3.08,0,0,1,.1-.8q.94-4.41,5.9-8.35a56.39,56.39,0,0,1,10.2-6.05c0-1.07-.27-1.75-.8-2.05-.33-.2-1.5.17-3.5,1.12a21.23,21.23,0,0,0-4.2,2.43c-.27.26-.7.63-1.3,1.1a2,2,0,0,1-1.55.3,9.13,9.13,0,0,1-2.35-1.8,7.82,7.82,0,0,1-1.95-2.2,1.68,1.68,0,0,1,.85-2.1,19.4,19.4,0,0,1,2-.6l3.7-2a18.36,18.36,0,0,1,6.6-2,3.88,3.88,0,0,1,2.6,1.2c.87.76,1.74,1.52,2.63,2.27s1.79,1.48,2.72,2.18a3.79,3.79,0,0,1,1.6,2.7v18.9A4.89,4.89,0,0,1,330.64,324.57Zm-8-14.6a10.84,10.84,0,0,0-4.2,2.9c-.87,1.06-1.73,2.11-2.6,3.15a12,12,0,0,0-2,2.72,6,6,0,0,0-.93,2.48c0,.26.1.4.3.4q1,0,4.7-4.53A32,32,0,0,0,322.64,310Zm2-18.25a6,6,0,0,1-5.2,2.7,5,5,0,0,1-3.45-1.25,5.19,5.19,0,0,1-1.8-4.05,6.37,6.37,0,0,1,1.35-3.9,6.21,6.21,0,0,1,5.2-2.65,5,5,0,0,1,3.35,1.2,5.11,5.11,0,0,1,1.85,4.05A6.5,6.5,0,0,1,324.64,291.72Zm-3.85-5.35a3.09,3.09,0,0,0-2.9,2.9,1.46,1.46,0,0,0,1.65,1.65,2.77,2.77,0,0,0,2-.95,2.89,2.89,0,0,0,.92-2A1.44,1.44,0,0,0,320.79,286.37Z"/><path d="M352.89,316.92q.45.75-1.95,4.45a16.17,16.17,0,0,1-5.1,5.35,2.09,2.09,0,0,1-.9.15,15.19,15.19,0,0,1-5.1-1.2q-3.34-1.2-4.4-2.6-2.9-3.75-2.9-10.4a23.31,23.31,0,0,1,2.55-11.1q2.75-5.25,7-5.35a9.69,9.69,0,0,1,3.75.8,12.36,12.36,0,0,1,4.45,2.85,6.33,6.33,0,0,1,.85,2.7,23.2,23.2,0,0,1,.5,4.7c0,2.26-.37,3.83-1.1,4.7a39.26,39.26,0,0,1-10.5,1.85,17.42,17.42,0,0,0,.6,5.15c.47,1.8.95,2.71,1.45,2.75q1,0,2.4-1.65a7.53,7.53,0,0,0,1.55-2.45,24.19,24.19,0,0,1,.95-3.1,8.38,8.38,0,0,1,3.15.8C351.71,315.92,352.62,316.45,352.89,316.92Zm-8.9-15.3q-.86-.11-2.37,2.7a14.12,14.12,0,0,0-1.78,5.35,6.49,6.49,0,0,0,3.6-1.1c.53-.4.8-2.07.8-5C344.24,302.33,344.16,301.68,344,301.62Z"/><path d="M380.29,287.22a4.86,4.86,0,0,1-.37,1.95,10.76,10.76,0,0,0-.48,1.65v32.6a4.89,4.89,0,0,0,.25,2.05c.5.86.65,1.45.45,1.75s-.6.4-1.3.4a20.6,20.6,0,0,1-3.5-.45c-1.77-.37-2.7-.55-2.8-.55a1.6,1.6,0,0,1-1.3-1.2,2.43,2.43,0,0,1-.05-.65,48.86,48.86,0,0,1,.55-6.1q-1.2,2.4-2.35,4.8-1.65,2.94-2.95,2.7-9.85-2-9.85-12.1a24.84,24.84,0,0,1,3.15-11.7q3-5.76,6.7-7.5a2.08,2.08,0,0,1,.95-.25q1.25,0,4.35,3.1V288a6.9,6.9,0,0,0-.45-1.43,4.64,4.64,0,0,1-.4-1.52c0-.7.47-1.05,1.4-1.05a13.68,13.68,0,0,1,3.6.7c1,.33,2,.65,2.95.95A1.84,1.84,0,0,1,380.29,287.22Zm-8.7,12.9q-2.8,1.25-5.07,5.5a16.83,16.83,0,0,0-2.28,7.9q0,4.25,3.3,4.65Q369.29,318.37,371.59,300.12Z"/><path d="M403.49,316.92q.45.75-1.95,4.45a16.17,16.17,0,0,1-5.1,5.35,2.09,2.09,0,0,1-.9.15,15.19,15.19,0,0,1-5.1-1.2q-3.35-1.2-4.4-2.6-2.9-3.75-2.9-10.4a23.31,23.31,0,0,1,2.55-11.1q2.74-5.25,7-5.35a9.69,9.69,0,0,1,3.75.8,12.36,12.36,0,0,1,4.45,2.85,6.33,6.33,0,0,1,.85,2.7,23.2,23.2,0,0,1,.5,4.7c0,2.26-.37,3.83-1.1,4.7a39.26,39.26,0,0,1-10.5,1.85,17.42,17.42,0,0,0,.6,5.15c.47,1.8.95,2.71,1.45,2.75q1,0,2.4-1.65a7.53,7.53,0,0,0,1.55-2.45,24.19,24.19,0,0,1,.95-3.1,8.38,8.38,0,0,1,3.15.8C402.31,315.92,403.22,316.45,403.49,316.92Zm-8.9-15.3q-.85-.11-2.37,2.7a14.12,14.12,0,0,0-1.78,5.35,6.49,6.49,0,0,0,3.6-1.1c.53-.4.8-2.07.8-5C394.84,302.33,394.76,301.68,394.59,301.62Z"/><path d="M427.79,324.67a1.84,1.84,0,0,1-1.25,2.25,4.12,4.12,0,0,1-.7.05,16.92,16.92,0,0,1-4.45-.75c-1.9-.54-3-1.1-3.35-1.7-.17-.27,0-.79.45-1.55a5.85,5.85,0,0,0,.45-2.75v-21a10.87,10.87,0,0,1-.6-2.55c0-.44.62-.65,1.85-.65a14.06,14.06,0,0,1,4.18.92,8.09,8.09,0,0,1,3.22,1.63.8.8,0,0,1,.15.5,4.34,4.34,0,0,1-.57,1.5,4,4,0,0,0-.58,1.65v20.1a2.23,2.23,0,0,0,.58,1.25A2.87,2.87,0,0,1,427.79,324.67Zm.15-34.55a1.09,1.09,0,0,1,.05.4,12,12,0,0,1-.45,2.85c-.33,1.26-.65,2-1,2.1s-1.77-.23-4.3-1.08-3.88-1.46-4.05-1.82a1.5,1.5,0,0,1-.15-.75,6.7,6.7,0,0,1,.7-2.85c.53-1.14,1.13-1.77,1.8-1.9a9.06,9.06,0,0,1,4,.87C426.49,288.66,427.61,289.38,427.94,290.12Z"/><path d="M456.14,320.77c.07.63-.57,1.78-1.9,3.45s-2.37,2.45-3.1,2.35q-2.14-.3-9.1-11.6c-.33.36-.9.95-1.7,1.75v5.9a5.31,5.31,0,0,0,.13.9c.08.43.14.75.17,1,.1,1.13-.13,1.86-.7,2.2a3.22,3.22,0,0,1-1.45.25,10.25,10.25,0,0,1-3.7-.7c-1.4-.54-2.1-1.17-2.1-1.9v-37.1a3.81,3.81,0,0,1,.5-1.75,2.32,2.32,0,0,1,1.15-1.2,1.11,1.11,0,0,1,.4,0,11.24,11.24,0,0,1,3.63.87c1.55.59,2.4,1.09,2.57,1.53a1.55,1.55,0,0,1,.15.6,2,2,0,0,1-.4,1,2.19,2.19,0,0,0-.4,1.18v17.35l7.4-10.15a2.08,2.08,0,0,1,1.65-.95,4.65,4.65,0,0,1,2.65,1.2c1.27.93,1.92,1.85,1.95,2.75q0,.54-2.35,3.9-3.7,5.3-4.35,6.3l6.5,8.95a4,4,0,0,0,1.45,1.05C455.79,320.12,456.11,320.43,456.14,320.77Z"/><path d="M483.09,320.77c.07.63-.57,1.78-1.9,3.45s-2.37,2.45-3.1,2.35q-2.14-.3-9.1-11.6c-.33.36-.9.95-1.7,1.75v5.9a5.31,5.31,0,0,0,.13.9c.08.43.14.75.17,1,.1,1.13-.13,1.86-.7,2.2a3.22,3.22,0,0,1-1.45.25,10.25,10.25,0,0,1-3.7-.7c-1.4-.54-2.1-1.17-2.1-1.9v-37.1a3.81,3.81,0,0,1,.5-1.75,2.32,2.32,0,0,1,1.15-1.2,1.11,1.11,0,0,1,.4,0,11.24,11.24,0,0,1,3.63.87c1.55.59,2.4,1.09,2.57,1.53a1.55,1.55,0,0,1,.15.6,2,2,0,0,1-.4,1,2.19,2.19,0,0,0-.4,1.18v17.35l7.4-10.15a2.08,2.08,0,0,1,1.65-.95,4.65,4.65,0,0,1,2.65,1.2c1.27.93,1.92,1.85,1.95,2.75q0,.54-2.35,3.9-3.71,5.3-4.35,6.3l6.5,8.95a4,4,0,0,0,1.45,1.05C482.74,320.12,483.06,320.43,483.09,320.77Z"/><path d="M506.14,316.92q.45.75-1.95,4.45a16.17,16.17,0,0,1-5.1,5.35,2.09,2.09,0,0,1-.9.15,15.19,15.19,0,0,1-5.1-1.2q-3.34-1.2-4.4-2.6-2.9-3.75-2.9-10.4a23.31,23.31,0,0,1,2.55-11.1q2.75-5.25,7-5.35a9.69,9.69,0,0,1,3.75.8,12.36,12.36,0,0,1,4.45,2.85,6.33,6.33,0,0,1,.85,2.7,23.2,23.2,0,0,1,.5,4.7c0,2.26-.37,3.83-1.1,4.7a39.26,39.26,0,0,1-10.5,1.85,17.42,17.42,0,0,0,.6,5.15c.47,1.8.95,2.71,1.45,2.75q1,0,2.4-1.65a7.53,7.53,0,0,0,1.55-2.45,24.19,24.19,0,0,1,.95-3.1,8.38,8.38,0,0,1,3.15.8C505,315.92,505.87,316.45,506.14,316.92Zm-8.9-15.3q-.86-.11-2.37,2.7a14.12,14.12,0,0,0-1.78,5.35,6.49,6.49,0,0,0,3.6-1.1c.53-.4.8-2.07.8-5C497.49,302.33,497.41,301.68,497.24,301.62Z"/><path d="M544,324.57a1.74,1.74,0,0,1-.6,1.2,1.5,1.5,0,0,1-1.25.4q-6.2-.85-6.9-2.35a.88.88,0,0,1-.1-.4,1,1,0,0,1,.23-.55,1.39,1.39,0,0,0,.27-.53,1,1,0,0,1,.2-.42,8.06,8.06,0,0,0,0-1.75,10.05,10.05,0,0,0-1.8,2.4,13,13,0,0,1-2.2,3,5.19,5.19,0,0,1-3.65,1.5,3.7,3.7,0,0,1-2.35-.95,24.12,24.12,0,0,1-1.95-1.95c-1.6-1.8-2.47-2.79-2.6-2.95a4.51,4.51,0,0,1-1.05-2.65,3.08,3.08,0,0,1,.1-.8q.95-4.41,5.9-8.35a56.39,56.39,0,0,1,10.2-6.05c0-1.07-.27-1.75-.8-2.05-.33-.2-1.5.17-3.5,1.12a21.23,21.23,0,0,0-4.2,2.43c-.27.26-.7.63-1.3,1.1a2,2,0,0,1-1.55.3,9.13,9.13,0,0,1-2.35-1.8,7.82,7.82,0,0,1-1.95-2.2,1.68,1.68,0,0,1,.85-2.1,19.4,19.4,0,0,1,2-.6l3.7-2a18.36,18.36,0,0,1,6.6-2,3.88,3.88,0,0,1,2.6,1.2c.87.76,1.74,1.52,2.63,2.27s1.79,1.48,2.72,2.18a3.79,3.79,0,0,1,1.6,2.7v18.9A4.89,4.89,0,0,1,544,324.57ZM536,310a10.84,10.84,0,0,0-4.2,2.9c-.87,1.06-1.73,2.11-2.6,3.15a12,12,0,0,0-2,2.72,6,6,0,0,0-.93,2.48c0,.26.1.4.3.4q1,0,4.7-4.53A32,32,0,0,0,536,310Z"/><path d="M564.39,301.17a2.74,2.74,0,0,1-.6,1.6,1.57,1.57,0,0,1-1.2.7,1.23,1.23,0,0,1-.35-.05,11.86,11.86,0,0,0-3.15-.25v19.75a5.86,5.86,0,0,1,.33.8,4.36,4.36,0,0,1,.32,1.5c0,1-.67,1.48-2,1.55a13.1,13.1,0,0,1-3.85-.9c-2-.67-3.12-1.29-3.25-1.85a3,3,0,0,1,.35-1.48,5.11,5.11,0,0,0,.45-1.72v-17.7h-1.7c-.63,0-1.42-.56-2.35-1.68a4.84,4.84,0,0,1-1.4-2.67,1.88,1.88,0,0,1,.58-1.35,1.72,1.72,0,0,1,1.27-.6h3.6v-4.5a3.54,3.54,0,0,1-.75-2.15,1.19,1.19,0,0,1,.9-1.3,5.86,5.86,0,0,1,1.25-.1,19.68,19.68,0,0,1,4.33.57,9.23,9.23,0,0,1,3.22,1.18.9.9,0,0,1,.35.7,3,3,0,0,1-.8,1.5,3.73,3.73,0,0,0-.85,1.4v2.7h1.6q.49,0,2.1,1.8C563.86,299.82,564.39,300.67,564.39,301.17Z"/><path d="M152.39,359.17a1.12,1.12,0,0,1-.55,1.3,11.74,11.74,0,0,0-1.15.65q-3.15,4.8-8.55,12.95,0,7.95.05,8.2c0,.16.16.59.38,1.27a5.65,5.65,0,0,1,.32,1.63,1.29,1.29,0,0,1-.85,1.3,3.76,3.76,0,0,1-1.5.25,12.44,12.44,0,0,1-4.2-.85c-1.93-.67-2.9-1.52-2.9-2.55a4.69,4.69,0,0,1,.4-1.45,4.63,4.63,0,0,0,.4-1.65v-19.8c-.36-1.87-.55-2.84-.55-2.9a1.81,1.81,0,0,1,1.4-1.95,6.1,6.1,0,0,1,1.45-.15,12.94,12.94,0,0,1,3.68.57c1.28.39,2,.79,2.27,1.23a1.06,1.06,0,0,1,.1.5,18.73,18.73,0,0,1-.7,2.4v2.4c.8-1.44,1.59-2.87,2.35-4.3,1-1.8,1.8-2.75,2.3-2.85.74-.14,1.85.3,3.35,1.3S152.23,358.5,152.39,359.17Z"/><path d="M174,376.92q.45.75-1.95,4.45a16.17,16.17,0,0,1-5.1,5.35,2.09,2.09,0,0,1-.9.15,15.19,15.19,0,0,1-5.1-1.2q-3.35-1.2-4.4-2.6-2.9-3.75-2.9-10.4a23.31,23.31,0,0,1,2.55-11.1q2.76-5.25,7-5.35a9.62,9.62,0,0,1,3.75.8,12.27,12.27,0,0,1,4.45,2.85,6.19,6.19,0,0,1,.85,2.7,22.5,22.5,0,0,1,.5,4.7c0,2.26-.36,3.83-1.1,4.7a39.26,39.26,0,0,1-10.5,1.85,18.11,18.11,0,0,0,.6,5.15c.47,1.8,1,2.71,1.45,2.75q1,0,2.4-1.65a7.36,7.36,0,0,0,1.55-2.45,25.89,25.89,0,0,1,.95-3.1,8.3,8.3,0,0,1,3.15.8C172.86,375.92,173.78,376.45,174,376.92Zm-8.9-15.3q-.84-.11-2.37,2.7a14.12,14.12,0,0,0-1.78,5.35,6.49,6.49,0,0,0,3.6-1.1c.54-.4.8-2.07.8-5C165.39,362.33,165.31,361.68,165.14,361.62Z"/><path d="M201.44,347.22a4.86,4.86,0,0,1-.37,1.95,10.76,10.76,0,0,0-.48,1.65v32.6a5.07,5.07,0,0,0,.25,2.05c.5.86.65,1.45.45,1.75s-.6.4-1.3.4a20.72,20.72,0,0,1-3.5-.45c-1.76-.37-2.7-.55-2.8-.55a1.6,1.6,0,0,1-1.3-1.2,2.43,2.43,0,0,1,0-.65,50.9,50.9,0,0,1,.55-6.1q-1.2,2.4-2.35,4.8-1.65,2.94-2.95,2.7-9.84-2-9.85-12.1a24.84,24.84,0,0,1,3.15-11.7q3.06-5.76,6.7-7.5a2.11,2.11,0,0,1,.95-.25q1.26,0,4.35,3.1V348a6.9,6.9,0,0,0-.45-1.43,4.92,4.92,0,0,1-.4-1.52c0-.7.47-1.05,1.4-1.05a13.54,13.54,0,0,1,3.6.7l3,.95A1.82,1.82,0,0,1,201.44,347.22Zm-8.7,12.9c-1.86.83-3.56,2.66-5.07,5.5a16.83,16.83,0,0,0-2.28,7.9q0,4.25,3.3,4.65Q190.45,378.37,192.74,360.12Z"/><path d="M227.94,347.22a4.86,4.86,0,0,1-.37,1.95,10.76,10.76,0,0,0-.48,1.65v32.6a5.07,5.07,0,0,0,.25,2.05c.5.86.65,1.45.45,1.75s-.6.4-1.3.4a20.72,20.72,0,0,1-3.5-.45c-1.76-.37-2.7-.55-2.8-.55a1.6,1.6,0,0,1-1.3-1.2,2.43,2.43,0,0,1,0-.65,50.9,50.9,0,0,1,.55-6.1q-1.2,2.4-2.35,4.8-1.65,2.94-2.95,2.7-9.84-2-9.85-12.1a24.84,24.84,0,0,1,3.15-11.7q3.06-5.76,6.7-7.5a2.11,2.11,0,0,1,.95-.25q1.26,0,4.35,3.1V348a6.9,6.9,0,0,0-.45-1.43,4.92,4.92,0,0,1-.4-1.52c0-.7.47-1.05,1.4-1.05a13.54,13.54,0,0,1,3.6.7l3,.95A1.82,1.82,0,0,1,227.94,347.22Zm-8.7,12.9c-1.86.83-3.56,2.66-5.07,5.5a16.83,16.83,0,0,0-2.28,7.9q0,4.25,3.3,4.65Q216.95,378.37,219.24,360.12Z"/><path d="M251.14,376.92q.45.75-1.95,4.45a16.17,16.17,0,0,1-5.1,5.35,2.09,2.09,0,0,1-.9.15,15.19,15.19,0,0,1-5.1-1.2q-3.34-1.2-4.4-2.6-2.9-3.75-2.9-10.4a23.31,23.31,0,0,1,2.55-11.1q2.76-5.25,7-5.35a9.62,9.62,0,0,1,3.75.8,12.27,12.27,0,0,1,4.45,2.85,6.19,6.19,0,0,1,.85,2.7,22.5,22.5,0,0,1,.5,4.7c0,2.26-.36,3.83-1.1,4.7a39.26,39.26,0,0,1-10.5,1.85,18.11,18.11,0,0,0,.6,5.15c.47,1.8,1,2.71,1.45,2.75q1,0,2.4-1.65a7.36,7.36,0,0,0,1.55-2.45,25.89,25.89,0,0,1,1-3.1,8.3,8.3,0,0,1,3.15.8C250,375.92,250.88,376.45,251.14,376.92Zm-8.9-15.3c-.56-.07-1.36.83-2.37,2.7a14.12,14.12,0,0,0-1.78,5.35,6.49,6.49,0,0,0,3.6-1.1c.54-.4.8-2.07.8-5C242.49,362.33,242.41,361.68,242.24,361.62Z"/><path d="M283.44,348.12a2.69,2.69,0,0,1-.45,1.7c-.36.63-.75.93-1.15.9a1.73,1.73,0,0,1-.95-.53,2,2,0,0,0-1.05-.57q-2.29-.4-2.3,4.25v1.55c0,.66,0,1.13,0,1.4h1.6c.37,0,1.09.6,2.15,1.8s1.59,2.05,1.55,2.55a2.74,2.74,0,0,1-.6,1.6,1.54,1.54,0,0,1-1.2.7,1.23,1.23,0,0,1-.35-.05,11.45,11.45,0,0,0-3.15-.25v19.75a1.94,1.94,0,0,0,.43,1,1.43,1.43,0,0,1,.32,1.08,2,2,0,0,1-2.1,1.75,13.58,13.58,0,0,1-3.85-.9c-2-.67-3.11-1.29-3.25-1.85a3.09,3.09,0,0,1,.35-1.48,5.11,5.11,0,0,0,.45-1.72v-17.7h-1.7c-.63,0-1.41-.56-2.32-1.68a4.85,4.85,0,0,1-1.38-2.67,2,2,0,0,1,.55-1.35,1.68,1.68,0,0,1,1.25-.6h3.6a30.45,30.45,0,0,1,.65-7.65,6.18,6.18,0,0,1,6.45-4.7c.44,0,.87,0,1.3,0a6.88,6.88,0,0,1,3.4,1.65C282.81,347,283.38,347.65,283.44,348.12Z"/><path d="M296.64,384.67a1.83,1.83,0,0,1-1.25,2.25,4,4,0,0,1-.7.05,16.92,16.92,0,0,1-4.45-.75c-1.9-.54-3-1.1-3.35-1.7-.16-.27,0-.79.45-1.55a5.85,5.85,0,0,0,.45-2.75v-21a10.87,10.87,0,0,1-.6-2.55c0-.44.62-.65,1.85-.65a14.06,14.06,0,0,1,4.18.92,8,8,0,0,1,3.22,1.63.8.8,0,0,1,.15.5,4.34,4.34,0,0,1-.57,1.5,4,4,0,0,0-.58,1.65v20.1a2.23,2.23,0,0,0,.58,1.25A2.87,2.87,0,0,1,296.64,384.67Zm.15-34.55a.9.9,0,0,1,0,.4,12,12,0,0,1-.45,2.85c-.33,1.26-.65,2-.95,2.1s-1.76-.23-4.3-1.08-3.88-1.46-4.05-1.82a1.5,1.5,0,0,1-.15-.75,6.85,6.85,0,0,1,.7-2.85c.54-1.14,1.14-1.77,1.8-1.9a9.06,9.06,0,0,1,4,.87C295.34,348.66,296.46,349.38,296.79,350.12Z"/><path d="M318.39,380.72a5.67,5.67,0,0,1-1.82,4.4,7.61,7.61,0,0,1-5.13,1.7,7.23,7.23,0,0,1-1.75-.25c-1.13-.3-1.73-.47-1.8-.5l-1.82-.43a3.83,3.83,0,0,1-1.58-.77,12.46,12.46,0,0,1-2.15-2.75q-.85-1.41-1.65-2.85a6.68,6.68,0,0,1-.8-1.75c0-.47.33-.82,1-1a2.68,2.68,0,0,1,.9-.1,28.71,28.71,0,0,1,3.78.32,7.77,7.77,0,0,1,2.47.55,11.62,11.62,0,0,1,.55,2.88c.2,1.53.55,2.3,1.05,2.3.77,0,1.15-1,1.15-3.1q0-4-2.1-4.95c-3.2-1.5-5.3-2.84-6.3-4-1.23-1.44-1.85-3.6-1.85-6.5a10.39,10.39,0,0,1,1.5-5.38,5.9,5.9,0,0,1,3.55-3c.6-.14,2.53.5,5.8,1.9.3.1,1.18.28,2.65.55a3.79,3.79,0,0,1,2.2,1.05,6.32,6.32,0,0,1,1.1,3.65c0,1.23.05,2.46.05,3.7a18.17,18.17,0,0,1,.35,2,1.44,1.44,0,0,1-1.35,1.6,8.1,8.1,0,0,1-2.75-.55,6.16,6.16,0,0,1-2.85-1.55,21.51,21.51,0,0,1-.3-3.75c-.1-2.24-.33-3.35-.7-3.35s-1,.65-1.4,1.95a12.82,12.82,0,0,0-.65,4.05c0,1.76.38,2.88,1.15,3.35l4.88,2.72a9.64,9.64,0,0,1,3.37,2.83A9.16,9.16,0,0,1,318.39,380.72Z"/><path d="M346.39,380.77c.07.63-.57,1.78-1.9,3.45s-2.37,2.45-3.1,2.35q-2.14-.3-9.1-11.6c-.33.36-.9.95-1.7,1.75v5.9a6.14,6.14,0,0,0,.12.9c.09.43.15.75.18,1,.1,1.13-.13,1.86-.7,2.2a3.22,3.22,0,0,1-1.45.25,10.25,10.25,0,0,1-3.7-.7c-1.4-.54-2.1-1.17-2.1-1.9v-37.1a3.81,3.81,0,0,1,.5-1.75,2.32,2.32,0,0,1,1.15-1.2,1.11,1.11,0,0,1,.4,0,11.24,11.24,0,0,1,3.63.87c1.55.59,2.4,1.09,2.57,1.53a1.55,1.55,0,0,1,.15.6,2,2,0,0,1-.4,1,2.19,2.19,0,0,0-.4,1.18v17.35l7.4-10.15a2.08,2.08,0,0,1,1.65-.95,4.65,4.65,0,0,1,2.65,1.2c1.27.93,1.92,1.85,1.95,2.75q0,.54-2.35,3.9-3.7,5.3-4.35,6.3l6.5,8.95a4,4,0,0,0,1.45,1.05C346,380.12,346.36,380.43,346.39,380.77Z"/><path d="M369.44,376.92q.45.75-1.95,4.45a16.17,16.17,0,0,1-5.1,5.35,2.09,2.09,0,0,1-.9.15,15.19,15.19,0,0,1-5.1-1.2q-3.34-1.2-4.4-2.6-2.89-3.75-2.9-10.4a23.31,23.31,0,0,1,2.55-11.1q2.75-5.25,7-5.35a9.69,9.69,0,0,1,3.75.8,12.36,12.36,0,0,1,4.45,2.85,6.33,6.33,0,0,1,.85,2.7,23.2,23.2,0,0,1,.5,4.7c0,2.26-.37,3.83-1.1,4.7a39.26,39.26,0,0,1-10.5,1.85,17.42,17.42,0,0,0,.6,5.15c.47,1.8.95,2.71,1.45,2.75q1,0,2.4-1.65a7.53,7.53,0,0,0,1.55-2.45,24.19,24.19,0,0,1,1-3.1,8.38,8.38,0,0,1,3.15.8C368.26,375.92,369.17,376.45,369.44,376.92Zm-8.9-15.3c-.57-.07-1.36.83-2.38,2.7a14.26,14.26,0,0,0-1.77,5.35,6.49,6.49,0,0,0,3.6-1.1c.53-.4.8-2.07.8-5C360.79,362.33,360.71,361.68,360.54,361.62Z"/><path d="M395.89,382.47a4.77,4.77,0,0,1,.4,1.9,2.06,2.06,0,0,1-1.15,2.05,3.55,3.55,0,0,1-1.25.15,19.08,19.08,0,0,1-4.05-.53,7.1,7.1,0,0,1-2.85-1,1,1,0,0,1-.25-.65,4.16,4.16,0,0,1,.75-1.78,4.14,4.14,0,0,0,.75-1.77q.11-19.71-.3-19.85-.7-.25-3.45,4.5-2.89,5-2.9,7.55v9.35a2.17,2.17,0,0,1,.65,1.6,2.59,2.59,0,0,1-1.7,2.6,1.48,1.48,0,0,1-.6.1A18.31,18.31,0,0,1,376,386a7.74,7.74,0,0,1-2.9-1,1.48,1.48,0,0,1-.3-.9,2,2,0,0,1,.57-1.2,2.37,2.37,0,0,0,.58-.9V358.77a2.13,2.13,0,0,0-.4-1,1.32,1.32,0,0,1-.25-1.1,1.92,1.92,0,0,1,1.55-1.35,10.36,10.36,0,0,1,3.75.55c2.13.53,3.3,1.08,3.5,1.65a2.79,2.79,0,0,1-.15,1.65,13,13,0,0,0-.55,2,4.29,4.29,0,0,0,.2,1.2,15.62,15.62,0,0,1,2.1-4.45c1.1-1.57,2.2-2.35,3.3-2.35a11.76,11.76,0,0,1,4.4,1.17c1.8.79,2.83,1.49,3.1,2.13Q395.89,362,395.89,382.47Z"/><path d="M409.69,370.92c-.07,1.23-.38,1.91-.95,2.05a2.83,2.83,0,0,1-.5,0,8.45,8.45,0,0,1-3.65-1.15,12.34,12.34,0,0,1-3.6-2.75q-.6-.66,0-2.4t.6-1.8V346a1.85,1.85,0,0,1,1.5-1.8,2.69,2.69,0,0,1,.85-.1,10.29,10.29,0,0,1,3.2.6,4.31,4.31,0,0,1,2.25,1.3,15.18,15.18,0,0,1,.1,2.7v20.4a5.09,5.09,0,0,0,.1.87A5.37,5.37,0,0,1,409.69,370.92Zm0,7.25a9,9,0,0,1,0,2.45c-.13,1.73-.2,2.8-.2,3.2a18.84,18.84,0,0,1-.2,3.1,1.48,1.48,0,0,1-1.25,1.3c-.4.1-1.55-.24-3.45-1s-3.2-1.55-3.6-2.15c-.23-.37-.15-1,.25-1.8a4.48,4.48,0,0,0,.35-1.85,39.7,39.7,0,0,1,0-4.2c.13-1.2.63-1.79,1.5-1.75a13.72,13.72,0,0,1,3.9,1.12C408.66,377.28,409.56,377.8,409.69,378.17Z"/></svg>
