<svg id="Layer_1" data-name="Layer 1" xmlns="http://www.w3.org/2000/svg" width="720" height="390" viewBox="0 0 720 390"><defs><style>.cls-1{fill:#0071bc;}.cls-2{fill:#71e1ff;}.cls-3,.cls-4{fill:#fff;}.cls-4{stroke:#000;stroke-miterlimit:10;}.cls-5{fill:#e8edef;}.cls-6{fill:#333;}</style></defs><title>gladfisk</title><path class="cls-1" d="M321.23,316.57c0-19.74,30.84-35.73,68.88-35.73s49.77,30.81,68.88,35.73c34.18,8.8-30.84,35.73-68.88,35.73S321.23,336.3,321.23,316.57Z"/><path class="cls-2" d="M705.5,199.27c0-30.75-116,5.95-71.73-55.67,18.78-26.13-40.26,6.62-63.09,36.32-19.1-30-77.59-59.2-145.34-75,5-3.1,7.75-7.89,7.75-15.17,0-28.89-138.27-3.63-97.62-52.31C370-3.95,237.85,60.85,237.85,89.74a18.08,18.08,0,0,0,3.06,10.82C147.26,118.4,80.42,165.25,80.42,220.24c0,70.36,118.62,176.33,244.44,127.4,111.86-43.5,193.69-66.29,244.44-127.4l.74-.93c20.9,30.74,74.8,65.74,63.73,35.63C608.66,186.58,705.5,230,705.5,199.27Z"/><circle class="cls-3" cx="168.2" cy="193.57" r="46.09"/><circle cx="163.28" cy="186.58" r="27.19"/><circle class="cls-4" cx="161.21" cy="183.99" r="6.99"/><ellipse class="cls-5" cx="288.61" cy="123.66" rx="28.48" ry="12.69"/><ellipse class="cls-5" cx="334.96" cy="129.87" rx="10.1" ry="6.47"/><path class="cls-6" d="M228.09,280.48c-2.88,12.54-19.64,23.3-43.87,23.3s-43.88-10.43-43.88-23.3,21.59-7,45.82-7S243.62,212.93,228.09,280.48Z"/></svg>
