<svg id="Layer_1" data-name="Layer 1" xmlns="http://www.w3.org/2000/svg" width="780" height="630" viewBox="0 0 780 630"><defs><style>.cls-1{fill:#7342ba;opacity:0.97;}</style></defs><title>levelcomplete</title><rect class="cls-1" x="61.5" y="32" width="646" height="522" rx="82.63"/><path d="M323.51,157.8a11.34,11.34,0,0,1-3.43,8.5q-3.43,3.33-9.52,3.47a12.44,12.44,0,0,1-3.29-.49c-2.15-.61-3.27-.91-3.36-.91l-3.4-.74a6.21,6.21,0,0,1-3-1.57,12,12,0,0,1-3.08-5.46,28.13,28.13,0,0,0-2.24-5.53,9.07,9.07,0,0,1-1.33-2,2.91,2.91,0,0,1,.38-2.07,2.71,2.71,0,0,1,1.44-1.29,5.36,5.36,0,0,1,1.54-.14,37.64,37.64,0,0,1,6,.59c2.36.4,3.68.76,4,1.09s.65,2,1.12,5q.63,4.2,1.89,4.69a1.39,1.39,0,0,0,.63.14c.88,0,1.64-.74,2.27-2.21a12.59,12.59,0,0,0,.95-5q0-6.09-3.78-8.12-8.68-4.7-12.18-8.68a14.44,14.44,0,0,1-3.64-10.92,22.21,22.21,0,0,1,3.81-10.61q3.47-5.36,7.32-6.26,1.6-.36,9.8,3.08c1.35.51,2.72,1,4.09,1.61a7.85,7.85,0,0,1,3.33,2.45c1.3,1.63,2,4.45,2,8.47,0,.74,0,1.84-.07,3.29-.05,1.26-.07,2.14-.07,2.66a8.65,8.65,0,0,0,.49,1.61,3.1,3.1,0,0,1,.28,1.54q-.15,3.08-2.59,3.43c-.94.14-2.66-.21-5.18-1.05-2.8-.89-4.58-1.85-5.32-2.87a3.59,3.59,0,0,1-.14-1.4c0-.7.08-2.29.24-4.76s.25-4.27.25-5.39c0-2-.24-3-.7-2.94q-2.18.14-3.61,3.11a15.49,15.49,0,0,0-1.43,6.76q0,6.3,3.71,9l8.4,5.32a17,17,0,0,1,5.53,5.18C322.85,150.66,323.51,153.78,323.51,157.8Z"/><path d="M359.84,166.27A2.48,2.48,0,0,1,359,168a2.1,2.1,0,0,1-1.75.56q-8.69-1.2-9.66-3.29a1.19,1.19,0,0,1-.14-.56,1.3,1.3,0,0,1,.31-.77,2.13,2.13,0,0,0,.39-.74,1.4,1.4,0,0,1,.28-.59,12,12,0,0,0,.07-2.45,14.07,14.07,0,0,0-2.52,3.36,18.59,18.59,0,0,1-3.08,4.2,7.28,7.28,0,0,1-5.11,2.1,5.17,5.17,0,0,1-3.29-1.33,33.11,33.11,0,0,1-2.73-2.73c-2.24-2.52-3.46-3.9-3.64-4.13a6.31,6.31,0,0,1-1.47-3.71,4.25,4.25,0,0,1,.14-1.12q1.32-6.17,8.26-11.69a78.83,78.83,0,0,1,14.28-8.47c0-1.5-.38-2.45-1.12-2.87q-.71-.42-4.9,1.57a29.64,29.64,0,0,0-5.88,3.4c-.38.37-1,.88-1.82,1.54a2.81,2.81,0,0,1-2.17.42,12.74,12.74,0,0,1-3.29-2.52c-1.68-1.54-2.59-2.57-2.73-3.08a2.34,2.34,0,0,1,1.19-2.94c0-.05,1-.33,2.8-.84q2.58-1.41,5.18-2.8a25.82,25.82,0,0,1,9.24-2.8,5.51,5.51,0,0,1,3.64,1.68c1.21,1.07,2.44,2.13,3.67,3.18s2.51,2.07,3.82,3.05q2.23,1.95,2.24,3.78v26.46A7,7,0,0,1,359.84,166.27Zm-11.2-20.44a15,15,0,0,0-5.88,4.06q-1.83,2.24-3.64,4.41a16.9,16.9,0,0,0-2.77,3.81,8.47,8.47,0,0,0-1.29,3.47c0,.37.14.56.42.56q1.47,0,6.58-6.34T348.64,145.83Zm2.8-25.55a8.44,8.44,0,0,1-7.28,3.78,7,7,0,0,1-4.83-1.75,7.28,7.28,0,0,1-2.52-5.67,8.92,8.92,0,0,1,1.89-5.46,8.68,8.68,0,0,1,7.28-3.71,7,7,0,0,1,4.69,1.68,7.18,7.18,0,0,1,2.59,5.67A9.16,9.16,0,0,1,351.44,120.28Zm-5.39-7.49a4.33,4.33,0,0,0-4.06,4.06,2,2,0,0,0,2.31,2.31,3.85,3.85,0,0,0,2.76-1.33,4,4,0,0,0,1.3-2.8A2,2,0,0,0,346.05,112.79Z"/><path d="M395.61,114a7,7,0,0,1-.53,2.73,15.71,15.71,0,0,0-.66,2.31v45.64a6.82,6.82,0,0,0,.35,2.87c.7,1.21.91,2,.63,2.45s-.84.56-1.82.56a28.73,28.73,0,0,1-4.9-.63c-2.48-.52-3.78-.77-3.92-.77a2.23,2.23,0,0,1-1.82-1.68,3.06,3.06,0,0,1-.07-.91,68,68,0,0,1,.77-8.54q-1.68,3.36-3.29,6.72-2.31,4.13-4.13,3.78-13.8-2.81-13.79-16.94a34.82,34.82,0,0,1,4.41-16.38q4.26-8.06,9.38-10.5a2.87,2.87,0,0,1,1.33-.35c1.16,0,3.19,1.44,6.09,4.34V115.1a10.62,10.62,0,0,0-.63-2,6.45,6.45,0,0,1-.56-2.13c0-1,.65-1.47,2-1.47a19.1,19.1,0,0,1,5,1c1.4.46,2.77.91,4.13,1.33A2.58,2.58,0,0,1,395.61,114ZM383.43,132q-3.93,1.74-7.11,7.7a23.65,23.65,0,0,0-3.18,11.06q0,5.94,4.62,6.51Q380.21,157.58,383.43,132Z"/><path d="M433.61,166.27a2.4,2.4,0,0,1-.84,1.68,2.08,2.08,0,0,1-1.75.56q-8.67-1.2-9.66-3.29a1.13,1.13,0,0,1,.18-1.33,1.93,1.93,0,0,0,.38-.74,1.42,1.42,0,0,1,.29-.59,11.54,11.54,0,0,0,.06-2.45,14.35,14.35,0,0,0-2.52,3.36,18,18,0,0,1-3.08,4.2,7.25,7.25,0,0,1-5.11,2.1,5.19,5.19,0,0,1-3.29-1.33,36.73,36.73,0,0,1-2.73-2.73q-3.36-3.78-3.64-4.13a6.31,6.31,0,0,1-1.47-3.71,4.26,4.26,0,0,1,.15-1.12q1.32-6.17,8.25-11.69a79.18,79.18,0,0,1,14.28-8.47c0-1.5-.37-2.45-1.11-2.87q-.71-.42-4.91,1.57a29.64,29.64,0,0,0-5.88,3.4,22.38,22.38,0,0,1-1.82,1.54,2.79,2.79,0,0,1-2.17.42,12.92,12.92,0,0,1-3.29-2.52c-1.68-1.54-2.59-2.57-2.72-3.08a2.35,2.35,0,0,1,1.18-2.94c.05-.05,1-.33,2.8-.84l5.19-2.8a25.73,25.73,0,0,1,9.23-2.8,5.47,5.47,0,0,1,3.64,1.68c1.22,1.07,2.44,2.13,3.68,3.18s2.51,2.07,3.82,3.05q2.24,1.95,2.23,3.78v26.46A6.53,6.53,0,0,1,433.61,166.27Zm-11.19-20.44a15,15,0,0,0-5.88,4.06c-1.22,1.49-2.43,3-3.65,4.41a17.19,17.19,0,0,0-2.76,3.81,8.53,8.53,0,0,0-1.3,3.47c0,.37.14.56.42.56q1.47,0,6.58-6.34T422.42,145.83Z"/><path d="M472.25,163.33a6.66,6.66,0,0,1,.56,2.66,2.88,2.88,0,0,1-1.61,2.87,5,5,0,0,1-1.75.21,26.73,26.73,0,0,1-5.67-.74c-2.19-.49-3.52-1-4-1.43a1.42,1.42,0,0,1-.35-.91,5.83,5.83,0,0,1,1.05-2.49,5.8,5.8,0,0,0,1.05-2.48q.15-27.59-.42-27.79-1-.36-4.83,6.3-4.05,7-4.06,10.57v13.09a3,3,0,0,1,.91,2.24,3.62,3.62,0,0,1-2.38,3.64,2,2,0,0,1-.84.14,25.55,25.55,0,0,1-5.53-.88c-2.42-.58-3.78-1.06-4.06-1.43a2.08,2.08,0,0,1-.42-1.26,2.85,2.85,0,0,1,.81-1.68,3.48,3.48,0,0,0,.8-1.26V130.15a3,3,0,0,0-.56-1.47,1.88,1.88,0,0,1-.35-1.54,2.7,2.7,0,0,1,2.17-1.89q1.13-.28,5.25.77,4.49,1.11,4.9,2.31a3.78,3.78,0,0,1-.21,2.31,19.54,19.54,0,0,0-.77,2.8,6,6,0,0,0,.28,1.68,21.84,21.84,0,0,1,2.94-6.23c1.54-2.2,3.08-3.29,4.62-3.29a16.48,16.48,0,0,1,6.16,1.64q3.78,1.65,4.34,3Q472.26,134.69,472.25,163.33Z"/><path d="M491.57,147.16c-.09,1.72-.53,2.68-1.33,2.87a4.05,4.05,0,0,1-.7.07,11.78,11.78,0,0,1-5.11-1.61,17.42,17.42,0,0,1-5-3.85q-.84-.91,0-3.36t.84-2.52V112.3a2.58,2.58,0,0,1,2.1-2.52,3.75,3.75,0,0,1,1.19-.14,14.37,14.37,0,0,1,4.48.84c1.68.56,2.73,1.16,3.15,1.82a21,21,0,0,1,.14,3.78v28.56a8.06,8.06,0,0,0,.14,1.22A7.3,7.3,0,0,1,491.57,147.16Zm0,10.15a12.66,12.66,0,0,1,0,3.43c-.18,2.42-.28,3.92-.28,4.48a25.47,25.47,0,0,1-.28,4.34,2.06,2.06,0,0,1-1.75,1.82q-.84.21-4.83-1.4-4.2-1.75-5-3c-.32-.52-.21-1.36.35-2.52a6.23,6.23,0,0,0,.49-2.59q-.14-1.55,0-5.88c.19-1.68.89-2.5,2.1-2.45a19.35,19.35,0,0,1,5.46,1.57C490.13,156.06,491.39,156.79,491.57,157.31Z"/><path d="M143.69,263a28.49,28.49,0,0,1-2.95,11.85,48.19,48.19,0,0,1-5.9,9.7c-2.1,2.6-3.65,4.11-4.65,4.55a4.52,4.52,0,0,1-1.7.3,11.5,11.5,0,0,1-5-1.4,12,12,0,0,1-3.75-2.5v-36a1.65,1.65,0,0,1,1.5-1.55,16.37,16.37,0,0,1,2.5.35,11.2,11.2,0,0,0,3-1,11,11,0,0,1,4.32-1.1,8.25,8.25,0,0,1,4.2,1.15,27.44,27.44,0,0,1,3.45,2.7,13.48,13.48,0,0,1,4.35,6.1A25.86,25.86,0,0,1,143.69,263Zm-8.3-9.65a1.59,1.59,0,0,0-.8-.15,12.62,12.62,0,0,0-6.35,2.3V278q3.4-1.95,5.8-9.55a40.15,40.15,0,0,0,2.05-11.9C136.09,254.7,135.86,253.63,135.39,253.37Z"/><path d="M170.79,259.12a1.67,1.67,0,0,1,.35,1,2.08,2.08,0,0,1-.57,1.2c-.38.46-.58.76-.58.9v23.25a3.2,3.2,0,0,0,.33,1,3.05,3.05,0,0,1,.32,1.1c0,.6-.51,1-1.55,1.3a10.61,10.61,0,0,1-3.75-.55c-2.13-.54-3.3-1.07-3.5-1.6A2.64,2.64,0,0,1,162,285a6,6,0,0,0,.5-1.8,7.28,7.28,0,0,0-.15-1.3,15.75,15.75,0,0,1-2.1,4.45c-1.1,1.53-2.2,2.3-3.3,2.3a12.06,12.06,0,0,1-4.4-1.15c-1.8-.77-2.83-1.47-3.1-2.1q-1.4-3.21-1.4-23.65a5,5,0,0,1-.4-1.9,2.1,2.1,0,0,1,1.15-2.1,3.59,3.59,0,0,1,1.25-.15,18.85,18.85,0,0,1,4.05.52,6.32,6.32,0,0,1,2.85,1.08,1,1,0,0,1,.25.65,4.14,4.14,0,0,1-.75,1.77,4.16,4.16,0,0,0-.75,1.78q-.09,19.69.3,19.85c.47.16,1.64-1.38,3.53-4.63s2.82-5.72,2.82-7.42v-9.35a2.2,2.2,0,0,1-.65-1.6,2.61,2.61,0,0,1,1.7-2.65,1.38,1.38,0,0,1,.6-.1,18.81,18.81,0,0,1,3.95.62C169.68,258.56,170.63,258.88,170.79,259.12Z"/><path d="M203.09,250.12a2.69,2.69,0,0,1-.45,1.7c-.36.63-.75.93-1.15.9a1.73,1.73,0,0,1-1-.53,2,2,0,0,0-1-.57q-2.3-.41-2.3,4.25v1.55c0,.66.05,1.13.05,1.4h1.6c.37,0,1.09.6,2.15,1.8s1.59,2.05,1.55,2.55a2.74,2.74,0,0,1-.6,1.6,1.54,1.54,0,0,1-1.2.7,1.23,1.23,0,0,1-.35-.05,11.45,11.45,0,0,0-3.15-.25v19.75a1.94,1.94,0,0,0,.43,1A1.43,1.43,0,0,1,198,287a2,2,0,0,1-2.1,1.75,13.58,13.58,0,0,1-3.85-.9c-2-.67-3.11-1.29-3.25-1.85a3.09,3.09,0,0,1,.35-1.48,5.11,5.11,0,0,0,.45-1.72v-17.7h-1.7c-.63,0-1.4-.56-2.32-1.68a4.85,4.85,0,0,1-1.38-2.67,2,2,0,0,1,.55-1.35,1.68,1.68,0,0,1,1.25-.6h3.6a30.45,30.45,0,0,1,.65-7.65,6.18,6.18,0,0,1,6.45-4.7c.44,0,.87,0,1.3.05a6.88,6.88,0,0,1,3.4,1.65C202.46,249,203,249.65,203.09,250.12Z"/><path d="M216.29,286.67a1.84,1.84,0,0,1-1.25,2.25,4,4,0,0,1-.7.05,16.92,16.92,0,0,1-4.45-.75c-1.9-.54-3-1.1-3.35-1.7-.16-.27,0-.79.45-1.55a5.85,5.85,0,0,0,.45-2.75v-21a10.87,10.87,0,0,1-.6-2.55c0-.44.62-.65,1.85-.65a14.06,14.06,0,0,1,4.18.92,8.09,8.09,0,0,1,3.22,1.63.8.8,0,0,1,.15.5,4.34,4.34,0,0,1-.57,1.5,4,4,0,0,0-.58,1.65v20.1a2.23,2.23,0,0,0,.58,1.25A2.87,2.87,0,0,1,216.29,286.67Zm.15-34.55a1.09,1.09,0,0,1,.05.4,12,12,0,0,1-.45,2.85c-.33,1.26-.65,2-.95,2.1s-1.76-.23-4.3-1.08-3.88-1.46-4-1.82a1.5,1.5,0,0,1-.15-.75,6.85,6.85,0,0,1,.7-2.85c.54-1.14,1.13-1.77,1.8-1.9a9.06,9.06,0,0,1,4,.87C215,250.66,216.11,251.38,216.44,252.12Z"/><path d="M244.64,282.77c.07.63-.57,1.78-1.9,3.45s-2.37,2.45-3.1,2.35q-2.14-.3-9.1-11.6c-.33.36-.9.95-1.7,1.75v5.9a6.14,6.14,0,0,0,.12.9c.09.43.15.75.18,1,.1,1.13-.13,1.86-.7,2.2a3.22,3.22,0,0,1-1.45.25,10.25,10.25,0,0,1-3.7-.7c-1.4-.54-2.1-1.17-2.1-1.9v-37.1a3.81,3.81,0,0,1,.5-1.75,2.32,2.32,0,0,1,1.15-1.2,1.11,1.11,0,0,1,.4-.05,11.24,11.24,0,0,1,3.63.87c1.55.59,2.4,1.09,2.57,1.53a1.55,1.55,0,0,1,.15.6,2,2,0,0,1-.4,1,2.19,2.19,0,0,0-.4,1.18v17.35l7.4-10.15a2.08,2.08,0,0,1,1.65-.95,4.65,4.65,0,0,1,2.65,1.2c1.27.93,1.92,1.85,1.95,2.75q0,.54-2.35,3.9-3.71,5.3-4.35,6.3l6.5,8.95a4,4,0,0,0,1.45,1.05C244.29,282.12,244.61,282.43,244.64,282.77Z"/><path d="M277.29,261.17a1.14,1.14,0,0,1-.55,1.3,11.74,11.74,0,0,0-1.15.65q-3.15,4.8-8.55,12.95,0,7.95,0,8.2c0,.16.16.59.37,1.27a5.74,5.74,0,0,1,.33,1.63,1.29,1.29,0,0,1-.85,1.3,3.83,3.83,0,0,1-1.5.25,12.35,12.35,0,0,1-4.2-.85c-1.93-.67-2.9-1.52-2.9-2.55a4.42,4.42,0,0,1,.4-1.45,4.63,4.63,0,0,0,.4-1.65v-19.8c-.37-1.87-.55-2.84-.55-2.9a1.81,1.81,0,0,1,1.4-1.95,6,6,0,0,1,1.45-.15,13,13,0,0,1,3.68.57c1.28.39,2,.79,2.27,1.23a1.06,1.06,0,0,1,.1.5,18.73,18.73,0,0,1-.7,2.4v2.4q1.2-2.16,2.35-4.3c1-1.8,1.8-2.75,2.3-2.85.73-.14,1.85.3,3.35,1.3S277.12,260.5,277.29,261.17Z"/><path d="M298.94,278.92q.45.75-1.95,4.45a16.17,16.17,0,0,1-5.1,5.35,2.09,2.09,0,0,1-.9.15,15.19,15.19,0,0,1-5.1-1.2q-3.34-1.2-4.4-2.6-2.89-3.75-2.9-10.4a23.31,23.31,0,0,1,2.55-11.1q2.75-5.25,7-5.35a9.69,9.69,0,0,1,3.75.8,12.36,12.36,0,0,1,4.45,2.85,6.33,6.33,0,0,1,.85,2.7,23.2,23.2,0,0,1,.5,4.7c0,2.26-.37,3.83-1.1,4.7a39.26,39.26,0,0,1-10.5,1.85,17.42,17.42,0,0,0,.6,5.15c.47,1.8.95,2.71,1.45,2.75q1,0,2.4-1.65a7.53,7.53,0,0,0,1.55-2.45,24.19,24.19,0,0,1,1-3.1,8.38,8.38,0,0,1,3.15.8C297.76,277.92,298.67,278.45,298.94,278.92Zm-8.9-15.3q-.85-.11-2.37,2.7a14.12,14.12,0,0,0-1.78,5.35,6.49,6.49,0,0,0,3.6-1.1c.53-.4.8-2.07.8-5C290.29,264.33,290.21,263.68,290,263.62Z"/><path d="M326.34,249.22a4.86,4.86,0,0,1-.37,1.95,10.76,10.76,0,0,0-.48,1.65v32.6a4.89,4.89,0,0,0,.25,2.05c.5.86.65,1.45.45,1.75s-.6.4-1.3.4a20.6,20.6,0,0,1-3.5-.45c-1.77-.37-2.7-.55-2.8-.55a1.6,1.6,0,0,1-1.3-1.2,2.43,2.43,0,0,1-.05-.65,48.86,48.86,0,0,1,.55-6.1q-1.2,2.4-2.35,4.8-1.65,2.94-2.95,2.7-9.86-2-9.85-12.1a24.84,24.84,0,0,1,3.15-11.7q3-5.76,6.7-7.5a2.08,2.08,0,0,1,.95-.25q1.24,0,4.35,3.1V250a6.9,6.9,0,0,0-.45-1.43,4.64,4.64,0,0,1-.4-1.52c0-.7.47-1,1.4-1a13.68,13.68,0,0,1,3.6.7c1,.33,2,.65,2.95.95A1.84,1.84,0,0,1,326.34,249.22Zm-8.7,12.9q-2.81,1.25-5.07,5.5a16.83,16.83,0,0,0-2.28,7.9q0,4.25,3.3,4.65Q315.35,280.37,317.64,262.12Z"/><path d="M352.84,249.22a4.86,4.86,0,0,1-.37,1.95,10.76,10.76,0,0,0-.48,1.65v32.6a4.89,4.89,0,0,0,.25,2.05c.5.86.65,1.45.45,1.75s-.6.4-1.3.4a20.6,20.6,0,0,1-3.5-.45c-1.77-.37-2.7-.55-2.8-.55a1.6,1.6,0,0,1-1.3-1.2,2.43,2.43,0,0,1-.05-.65,48.86,48.86,0,0,1,.55-6.1q-1.2,2.4-2.35,4.8-1.65,2.94-2.95,2.7-9.86-2-9.85-12.1a24.84,24.84,0,0,1,3.15-11.7q3-5.76,6.7-7.5a2.08,2.08,0,0,1,.95-.25q1.24,0,4.35,3.1V250a6.9,6.9,0,0,0-.45-1.43,4.64,4.64,0,0,1-.4-1.52c0-.7.47-1,1.4-1a13.68,13.68,0,0,1,3.6.7c1,.33,2,.65,2.95.95A1.84,1.84,0,0,1,352.84,249.22Zm-8.7,12.9q-2.81,1.25-5.07,5.5a16.83,16.83,0,0,0-2.28,7.9q0,4.25,3.3,4.65Q341.85,280.37,344.14,262.12Z"/><path d="M376,278.92q.45.75-2,4.45a16.17,16.17,0,0,1-5.1,5.35,2.09,2.09,0,0,1-.9.15,15.19,15.19,0,0,1-5.1-1.2q-3.35-1.2-4.4-2.6-2.89-3.75-2.9-10.4a23.31,23.31,0,0,1,2.55-11.1q2.75-5.25,7-5.35a9.69,9.69,0,0,1,3.75.8,12.36,12.36,0,0,1,4.45,2.85,6.33,6.33,0,0,1,.85,2.7,23.2,23.2,0,0,1,.5,4.7c0,2.26-.37,3.83-1.1,4.7a39.26,39.26,0,0,1-10.5,1.85,17.42,17.42,0,0,0,.6,5.15c.47,1.8.95,2.71,1.45,2.75q1,0,2.4-1.65a7.53,7.53,0,0,0,1.55-2.45,24.19,24.19,0,0,1,.95-3.1,8.38,8.38,0,0,1,3.15.8C374.86,277.92,375.77,278.45,376,278.92Zm-8.9-15.3q-.86-.11-2.37,2.7a14.12,14.12,0,0,0-1.78,5.35,6.49,6.49,0,0,0,3.6-1.1c.53-.4.8-2.07.8-5C367.39,264.33,367.31,263.68,367.14,263.62Z"/><path d="M396.29,263.17a2.74,2.74,0,0,1-.6,1.6,1.57,1.57,0,0,1-1.2.7,1.23,1.23,0,0,1-.35-.05,11.86,11.86,0,0,0-3.15-.25v19.75a5.86,5.86,0,0,1,.33.8,4.36,4.36,0,0,1,.32,1.5c0,1-.67,1.48-2,1.55a13.1,13.1,0,0,1-3.85-.9c-2-.67-3.12-1.29-3.25-1.85a3,3,0,0,1,.35-1.48,5.11,5.11,0,0,0,.45-1.72v-17.7h-1.7c-.63,0-1.42-.56-2.35-1.68a4.84,4.84,0,0,1-1.4-2.67,1.88,1.88,0,0,1,.58-1.35,1.72,1.72,0,0,1,1.27-.6h3.6v-4.5a3.54,3.54,0,0,1-.75-2.15,1.19,1.19,0,0,1,.9-1.3,5.86,5.86,0,0,1,1.25-.1,19.68,19.68,0,0,1,4.33.57,9.23,9.23,0,0,1,3.22,1.18.9.9,0,0,1,.35.7,3,3,0,0,1-.8,1.5,3.73,3.73,0,0,0-.85,1.4v2.7h1.6q.5,0,2.1,1.8C395.76,261.82,396.29,262.67,396.29,263.17Z"/><path d="M428.34,250.12a2.69,2.69,0,0,1-.45,1.7c-.37.63-.75.93-1.15.9a1.73,1.73,0,0,1-.95-.53,2,2,0,0,0-1.05-.57q-2.3-.41-2.3,4.25v1.55c0,.66.05,1.13.05,1.4h1.6c.37,0,1.08.6,2.15,1.8s1.58,2.05,1.55,2.55a2.74,2.74,0,0,1-.6,1.6,1.57,1.57,0,0,1-1.2.7,1.23,1.23,0,0,1-.35-.05,11.45,11.45,0,0,0-3.15-.25v19.75a1.94,1.94,0,0,0,.43,1,1.43,1.43,0,0,1,.32,1.08,2,2,0,0,1-2.1,1.75,13.51,13.51,0,0,1-3.85-.9c-2-.67-3.12-1.29-3.25-1.85a3,3,0,0,1,.35-1.48,5.11,5.11,0,0,0,.45-1.72v-17.7h-1.7c-.63,0-1.41-.56-2.32-1.68a4.85,4.85,0,0,1-1.38-2.67,1.93,1.93,0,0,1,.55-1.35,1.66,1.66,0,0,1,1.25-.6h3.6a30.45,30.45,0,0,1,.65-7.65,6.18,6.18,0,0,1,6.45-4.7c.43,0,.87,0,1.3.05a6.88,6.88,0,0,1,3.4,1.65C427.71,249,428.27,249.65,428.34,250.12Z"/><path d="M441.54,286.67a1.84,1.84,0,0,1-1.25,2.25,4.12,4.12,0,0,1-.7.05,16.92,16.92,0,0,1-4.45-.75c-1.9-.54-3-1.1-3.35-1.7-.17-.27,0-.79.45-1.55a5.85,5.85,0,0,0,.45-2.75v-21a10.87,10.87,0,0,1-.6-2.55c0-.44.62-.65,1.85-.65a14,14,0,0,1,4.17.92,8.08,8.08,0,0,1,3.23,1.63.8.8,0,0,1,.15.5,4.22,4.22,0,0,1-.58,1.5,4.09,4.09,0,0,0-.57,1.65v20.1a2.27,2.27,0,0,0,.57,1.25A2.8,2.8,0,0,1,441.54,286.67Zm.15-34.55a1.09,1.09,0,0,1,.05.4,12,12,0,0,1-.45,2.85c-.33,1.26-.65,2-1,2.1s-1.77-.23-4.3-1.08-3.88-1.46-4.05-1.82a1.5,1.5,0,0,1-.15-.75,6.7,6.7,0,0,1,.7-2.85c.53-1.14,1.13-1.77,1.8-1.9a9.06,9.06,0,0,1,4,.87C440.24,250.66,441.36,251.38,441.69,252.12Z"/><path d="M463.29,282.72a5.64,5.64,0,0,1-1.83,4.4,7.56,7.56,0,0,1-5.12,1.7,7.16,7.16,0,0,1-1.75-.25c-1.14-.3-1.74-.47-1.8-.5l-1.83-.43a3.85,3.85,0,0,1-1.57-.77,12.18,12.18,0,0,1-2.15-2.75q-.86-1.41-1.65-2.85a6.32,6.32,0,0,1-.8-1.75c0-.47.33-.82,1-1a2.6,2.6,0,0,1,.9-.1,28.45,28.45,0,0,1,3.77.32,7.88,7.88,0,0,1,2.48.55,12.2,12.2,0,0,1,.55,2.88c.2,1.53.55,2.3,1.05,2.3.76,0,1.15-1,1.15-3.1q0-4-2.1-4.95c-3.2-1.5-5.3-2.84-6.3-4-1.24-1.44-1.85-3.6-1.85-6.5a10.39,10.39,0,0,1,1.5-5.38,5.9,5.9,0,0,1,3.55-3c.6-.14,2.53.5,5.8,1.9.3.1,1.18.28,2.65.55a3.82,3.82,0,0,1,2.2,1.05,6.32,6.32,0,0,1,1.1,3.65c0,1.23.05,2.46.05,3.7a18.17,18.17,0,0,1,.35,2,1.44,1.44,0,0,1-1.35,1.6,8.06,8.06,0,0,1-2.75-.55,6.16,6.16,0,0,1-2.85-1.55,21.51,21.51,0,0,1-.3-3.75c-.1-2.24-.34-3.35-.7-3.35s-1,.65-1.4,1.95a12.54,12.54,0,0,0-.65,4.05c0,1.76.38,2.88,1.15,3.35,1.63.9,3.26,1.81,4.87,2.72a9.69,9.69,0,0,1,3.38,2.83A9.16,9.16,0,0,1,463.29,282.72Z"/><path d="M491.29,282.77c.06.63-.57,1.78-1.9,3.45s-2.37,2.45-3.1,2.35q-2.16-.3-9.1-11.6c-.34.36-.9.95-1.7,1.75v5.9a6.14,6.14,0,0,0,.12.9c.08.43.14.75.18,1,.1,1.13-.14,1.86-.7,2.2a3.25,3.25,0,0,1-1.45.25,10.25,10.25,0,0,1-3.7-.7c-1.4-.54-2.1-1.17-2.1-1.9v-37.1a3.69,3.69,0,0,1,.5-1.75,2.28,2.28,0,0,1,1.15-1.2,1.11,1.11,0,0,1,.4-.05,11.25,11.25,0,0,1,3.62.87c1.55.59,2.41,1.09,2.58,1.53a1.55,1.55,0,0,1,.15.6,2.12,2.12,0,0,1-.4,1,2.19,2.19,0,0,0-.4,1.18v17.35l7.4-10.15a2.08,2.08,0,0,1,1.65-.95,4.67,4.67,0,0,1,2.65,1.2c1.26.93,1.91,1.85,1.95,2.75q0,.54-2.35,3.9-3.71,5.3-4.35,6.3l6.5,8.95a3.92,3.92,0,0,0,1.45,1.05C490.94,282.12,491.25,282.43,491.29,282.77Z"/><path d="M514.34,278.92q.45.75-2,4.45a16.37,16.37,0,0,1-5.1,5.35,2.09,2.09,0,0,1-.9.15,15.19,15.19,0,0,1-5.1-1.2c-2.24-.8-3.7-1.67-4.4-2.6q-2.91-3.75-2.9-10.4a23.31,23.31,0,0,1,2.55-11.1q2.74-5.25,7-5.35a9.69,9.69,0,0,1,3.75.8,12.36,12.36,0,0,1,4.45,2.85,6.33,6.33,0,0,1,.85,2.7,23.2,23.2,0,0,1,.5,4.7c0,2.26-.37,3.83-1.1,4.7a39.39,39.39,0,0,1-10.5,1.85,17.42,17.42,0,0,0,.6,5.15c.46,1.8,1,2.71,1.45,2.75q1,0,2.4-1.65a7.53,7.53,0,0,0,1.55-2.45,24.19,24.19,0,0,1,.95-3.1,8.38,8.38,0,0,1,3.15.8C513.15,277.92,514.07,278.45,514.34,278.92Zm-8.9-15.3c-.57-.07-1.36.83-2.38,2.7a13.92,13.92,0,0,0-1.77,5.35,6.49,6.49,0,0,0,3.6-1.1c.53-.4.8-2.07.8-5C505.69,264.33,505.6,263.68,505.44,263.62Z"/><path d="M540.79,284.47a5,5,0,0,1,.4,1.9,2.07,2.07,0,0,1-1.15,2.05,3.59,3.59,0,0,1-1.25.15,18.93,18.93,0,0,1-4-.53,7.1,7.1,0,0,1-2.85-1,1,1,0,0,1-.25-.65,4.16,4.16,0,0,1,.75-1.78,4.14,4.14,0,0,0,.75-1.77q.09-19.71-.3-19.85-.71-.25-3.45,4.5c-1.94,3.33-2.9,5.85-2.9,7.55v9.35a2.17,2.17,0,0,1,.65,1.6,2.59,2.59,0,0,1-1.7,2.6,1.55,1.55,0,0,1-.6.1,18.31,18.31,0,0,1-4-.63,7.66,7.66,0,0,1-2.9-1,1.48,1.48,0,0,1-.3-.9,2,2,0,0,1,.57-1.2,2.52,2.52,0,0,0,.58-.9V260.77a2.24,2.24,0,0,0-.4-1,1.32,1.32,0,0,1-.25-1.1,1.91,1.91,0,0,1,1.55-1.35,10.36,10.36,0,0,1,3.75.55c2.13.53,3.3,1.08,3.5,1.65a2.79,2.79,0,0,1-.15,1.65,13,13,0,0,0-.55,2,4,4,0,0,0,.2,1.2,15.62,15.62,0,0,1,2.1-4.45c1.1-1.57,2.2-2.35,3.3-2.35a11.76,11.76,0,0,1,4.4,1.17c1.8.79,2.83,1.49,3.1,2.13Q540.79,264,540.79,284.47Z"/><path d="M554.59,272.92c-.07,1.23-.39,1.91-1,2.05a2.92,2.92,0,0,1-.5,0,8.41,8.41,0,0,1-3.65-1.15,12.34,12.34,0,0,1-3.6-2.75q-.6-.66,0-2.4t.6-1.8V248a1.85,1.85,0,0,1,1.5-1.8,2.69,2.69,0,0,1,.85-.1,10.29,10.29,0,0,1,3.2.6,4.31,4.31,0,0,1,2.25,1.3,16.44,16.44,0,0,1,.1,2.7v20.4a5.09,5.09,0,0,0,.1.87A6.59,6.59,0,0,1,554.59,272.92Zm0,7.25a9,9,0,0,1,0,2.45c-.14,1.73-.2,2.8-.2,3.2a18.84,18.84,0,0,1-.2,3.1,1.49,1.49,0,0,1-1.25,1.3c-.4.1-1.55-.24-3.45-1s-3.2-1.55-3.6-2.15c-.24-.37-.15-1,.25-1.8a4.65,4.65,0,0,0,.35-1.85,39.7,39.7,0,0,1,0-4.2c.13-1.2.63-1.79,1.5-1.75a13.72,13.72,0,0,1,3.9,1.12C553.55,279.28,554.45,279.8,554.59,280.17Z"/></svg>
