<svg id="Layer_1" data-name="Layer 1" xmlns="http://www.w3.org/2000/svg" xmlns:xlink="http://www.w3.org/1999/xlink" width="160" height="670" viewBox="0 0 160 670"><defs><style>.cls-1{fill:none;}.cls-2{fill:url(#linear-gradient);}.cls-3{fill:url(#linear-gradient-2);}.cls-4{fill:#ff0303;}.cls-5{fill:#fff;}.cls-6{clip-path:url(#clip-path);}.cls-7{fill:#fefefe;}.cls-8{fill:#fdfdfd;}.cls-9{fill:#fcfcfc;}.cls-10{fill:#fbfbfb;}.cls-11{fill:#fafafa;}.cls-12{fill:#f9f9f9;}.cls-13{fill:#f8f8f8;}.cls-14{fill:#f7f7f7;}.cls-15{fill:#f6f6f6;}.cls-16{fill:#f5f5f5;}.cls-17{fill:#f4f4f4;}.cls-18{fill:#f3f3f3;}.cls-19{fill:#f2f2f2;}.cls-20{fill:#f1f1f1;}.cls-21{fill:#f0f0f0;}.cls-22{fill:#efefef;}.cls-23{fill:#eee;}.cls-24{fill:#ededed;}.cls-25{fill:#ececec;}.cls-26{fill:#ebebeb;}.cls-27{fill:#eaeaea;}.cls-28{fill:#e9e9e9;}.cls-29{fill:#e8e8e8;}.cls-30{fill:#e7e7e7;}.cls-31{fill:#e6e6e6;}.cls-32{fill:#e5e5e5;}.cls-33{fill:#e4e4e4;}.cls-34{fill:#e3e3e3;}.cls-35{fill:#e2e2e2;}.cls-36{fill:#e1e1e1;}.cls-37{fill:#e0e0e0;}.cls-38{fill:#dfdfdf;}.cls-39{fill:#dedede;}.cls-40{fill:#ddd;}.cls-41{fill:#dcdcdc;}.cls-42{fill:#dbdbdb;}.cls-43{fill:#dadada;}.cls-44{fill:#d9d9d9;}.cls-45{fill:#d8d8d8;}.cls-46{fill:#d7d7d7;}.cls-47{fill:#d6d6d6;}.cls-48{fill:#d5d5d5;}.cls-49{fill:#d4d4d4;}.cls-50{fill:#d3d3d3;}.cls-51{fill:#d2d2d2;}.cls-52{fill:#d1d1d1;}.cls-53{fill:#d0d0d0;}.cls-54{fill:#cfcfcf;}.cls-55{fill:#cecece;}.cls-56{fill:#cdcdcd;}.cls-57{fill:#ccc;}.cls-58{fill:#cbcbcb;}.cls-59{fill:#cacaca;}.cls-60{fill:#c9c9c9;}.cls-61{fill:#c8c8c8;}.cls-62{fill:#c7c7c7;}.cls-63{fill:#c6c6c6;}.cls-64{fill:#c5c5c5;}.cls-65{fill:#c4c4c4;}.cls-66{fill:#c3c3c3;}.cls-67{fill:#c2c2c2;}.cls-68{fill:#c1c1c1;}.cls-69{fill:silver;}.cls-70{fill:#bfbfbf;}.cls-71{fill:#bebebe;}.cls-72{fill:#bdbdbd;}.cls-73{fill:#bcbcbc;}.cls-74{fill:#bbb;}.cls-75{fill:#bababa;}.cls-76{fill:#b9b9b9;}.cls-77{fill:#b8b8b8;}.cls-78{fill:#b7b7b7;}.cls-79{fill:#b6b6b6;}.cls-80{fill:#b5b5b5;}.cls-81{fill:#b4b4b4;}.cls-82{fill:#b3b3b3;}.cls-83{fill:#b2b2b2;}.cls-84{fill:#b1b1b1;}.cls-85{fill:#b0b0b0;}.cls-86{fill:#afafaf;}.cls-87{fill:#aeaeae;}.cls-88{fill:#adadad;}.cls-89{fill:#acacac;}.cls-90{fill:#ababab;}.cls-91{fill:#aaa;}.cls-92{fill:#a9a9a9;}.cls-93{fill:#a8a8a8;}.cls-94{fill:#a7a7a7;}.cls-95{fill:#a6a6a6;}.cls-96{fill:#a5a5a5;}.cls-97{fill:#a4a4a4;}.cls-98{fill:#a3a3a3;}.cls-99{fill:#a2a2a2;}.cls-100{fill:#a1a1a1;}.cls-101{fill:#a0a0a0;}.cls-102{fill:#9f9f9f;}.cls-103{fill:#9e9e9e;}.cls-104{fill:#9d9d9d;}.cls-105{fill:#9c9c9c;}.cls-106{fill:#9b9b9b;}.cls-107{fill:#9a9a9a;}.cls-108{fill:#999;}.cls-109{fill:#989898;}.cls-110{fill:#979797;}.cls-111{fill:#969696;}.cls-112{fill:#959595;}.cls-113{fill:#949494;}.cls-114{fill:#939393;}.cls-115{fill:#929292;}.cls-116{fill:#919191;}.cls-117{fill:#909090;}.cls-118{fill:#8f8f8f;}.cls-119{fill:#8e8e8e;}.cls-120{fill:#8d8d8d;}.cls-121{fill:#8c8c8c;}.cls-122{fill:#8b8b8b;}.cls-123{fill:#8a8a8a;}.cls-124{fill:#898989;}.cls-125{fill:#888;}.cls-126{fill:#878787;}.cls-127{fill:#868686;}</style><linearGradient id="linear-gradient" x1="-43.55" y1="424.28" x2="116.09" y2="286.54" gradientUnits="userSpaceOnUse"><stop offset="0"/><stop offset="1"/></linearGradient><linearGradient id="linear-gradient-2" x1="70.5" y1="154.72" x2="70.5" y2="329.91" gradientUnits="userSpaceOnUse"><stop offset="0"/><stop offset="1" stop-color="#5a4"/></linearGradient><clipPath id="clip-path"><path class="cls-1" d="M104.49,613.68c0-14.84-14.31-26.87-32-26.87s-32,12-32,26.87c0,9.41,5.76,17.69,14.48,22.49V649.5H89V636.7C98.28,632,104.49,623.45,104.49,613.68Z"/></clipPath></defs><title>livsbar</title><rect class="cls-2" x="34.5" y="78.12" width="71" height="496.38" rx="29.93"/><rect class="cls-3" x="42.5" y="92.27" width="56" height="471.84" rx="23.6"/><path class="cls-4" d="M97.07,42.17a15.38,15.38,0,0,0-.16-22A16.14,16.14,0,0,0,74.43,20h0L48.9,45,71.64,67.28l25.53-25Z"/><path class="cls-4" d="M68.64,20.35a16.14,16.14,0,0,0-22.48.16,15.38,15.38,0,0,0-.16,22h0l25.53,25L94.27,45.28l-25.53-25Z"/><path class="cls-5" d="M52.38,31.91c.56,5.61-4.85-1.85-5-4.41A4.75,4.75,0,0,1,56.88,27C57,29.59,51.8,26.09,52.38,31.91Z"/><g class="cls-6"><polygon class="cls-5" points="104.49 590.88 40.56 589.68 40.56 586.81 104.49 586.81 104.49 590.88"/><polygon class="cls-5" points="104.49 591.38 40.56 590.17 40.56 589.68 104.49 590.88 104.49 591.38"/><polygon class="cls-7" points="104.49 591.87 40.56 590.66 40.56 590.17 104.49 591.38 104.49 591.87"/><polygon class="cls-8" points="104.49 592.36 40.56 591.15 40.56 590.66 104.49 591.87 104.49 592.36"/><polygon class="cls-9" points="104.49 592.85 40.56 591.64 40.56 591.15 104.49 592.36 104.49 592.85"/><polygon class="cls-10" points="104.49 593.34 40.56 592.14 40.56 591.64 104.49 592.85 104.49 593.34"/><polygon class="cls-11" points="104.49 593.84 40.56 592.63 40.56 592.14 104.49 593.34 104.49 593.84"/><polygon class="cls-12" points="104.49 594.33 40.56 593.12 40.56 592.63 104.49 593.84 104.49 594.33"/><polygon class="cls-13" points="104.49 594.82 40.56 593.61 40.56 593.12 104.49 594.33 104.49 594.82"/><polygon class="cls-14" points="104.49 595.31 40.56 594.1 40.56 593.61 104.49 594.82 104.49 595.31"/><polygon class="cls-15" points="104.49 595.8 40.56 594.6 40.56 594.1 104.49 595.31 104.49 595.8"/><polygon class="cls-16" points="104.49 596.29 40.56 595.09 40.56 594.6 104.49 595.8 104.49 596.29"/><polygon class="cls-17" points="104.49 596.79 40.56 595.58 40.56 595.09 104.49 596.29 104.49 596.79"/><polygon class="cls-18" points="104.49 597.28 40.56 596.07 40.56 595.58 104.49 596.79 104.49 597.28"/><polygon class="cls-19" points="104.49 597.77 40.56 596.56 40.56 596.07 104.49 597.28 104.49 597.77"/><polygon class="cls-20" points="104.49 598.26 40.56 597.06 40.56 596.56 104.49 597.77 104.49 598.26"/><polygon class="cls-21" points="104.49 598.75 40.56 597.55 40.56 597.06 104.49 598.26 104.49 598.75"/><polygon class="cls-22" points="104.49 599.25 40.56 598.04 40.56 597.55 104.49 598.75 104.49 599.25"/><polygon class="cls-23" points="104.49 599.74 40.56 598.53 40.56 598.04 104.49 599.25 104.49 599.74"/><polygon class="cls-24" points="104.49 600.23 40.56 599.02 40.56 598.53 104.49 599.74 104.49 600.23"/><polygon class="cls-25" points="104.49 600.72 40.56 599.52 40.56 599.02 104.49 600.23 104.49 600.72"/><polygon class="cls-26" points="104.49 601.21 40.56 600.01 40.56 599.52 104.49 600.72 104.49 601.21"/><polygon class="cls-27" points="104.49 601.71 40.56 600.5 40.56 600.01 104.49 601.21 104.49 601.71"/><polygon class="cls-28" points="104.49 602.2 40.56 600.99 40.56 600.5 104.49 601.71 104.49 602.2"/><polygon class="cls-29" points="104.49 602.69 40.56 601.48 40.56 600.99 104.49 602.2 104.49 602.69"/><polygon class="cls-30" points="104.49 603.18 40.56 601.98 40.56 601.48 104.49 602.69 104.49 603.18"/><polygon class="cls-31" points="104.49 603.67 40.56 602.47 40.56 601.98 104.49 603.18 104.49 603.67"/><polygon class="cls-32" points="104.49 604.17 40.56 602.96 40.56 602.47 104.49 603.67 104.49 604.17"/><polygon class="cls-33" points="104.49 604.66 40.56 603.45 40.56 602.96 104.49 604.17 104.49 604.66"/><polygon class="cls-34" points="104.49 605.15 40.56 603.94 40.56 603.45 104.49 604.66 104.49 605.15"/><polygon class="cls-35" points="104.49 605.64 40.56 604.44 40.56 603.94 104.49 605.15 104.49 605.64"/><polygon class="cls-36" points="104.49 606.13 40.56 604.93 40.56 604.44 104.49 605.64 104.49 606.13"/><polygon class="cls-37" points="104.49 606.63 40.56 605.42 40.56 604.93 104.49 606.13 104.49 606.63"/><polygon class="cls-38" points="104.49 607.12 40.56 605.91 40.56 605.42 104.49 606.63 104.49 607.12"/><polygon class="cls-39" points="104.49 607.61 40.56 606.4 40.56 605.91 104.49 607.12 104.49 607.61"/><polygon class="cls-40" points="104.49 608.1 40.56 606.9 40.56 606.4 104.49 607.61 104.49 608.1"/><polygon class="cls-41" points="104.49 608.59 40.56 607.39 40.56 606.9 104.49 608.1 104.49 608.59"/><polygon class="cls-42" points="104.49 609.09 40.56 607.88 40.56 607.39 104.49 608.59 104.49 609.09"/><polygon class="cls-43" points="104.49 609.58 40.56 608.37 40.56 607.88 104.49 609.09 104.49 609.58"/><polygon class="cls-44" points="104.49 610.07 40.56 608.86 40.56 608.37 104.49 609.58 104.49 610.07"/><polygon class="cls-45" points="104.49 610.56 40.56 609.36 40.56 608.86 104.49 610.07 104.49 610.56"/><polygon class="cls-46" points="104.49 611.05 40.56 609.85 40.56 609.36 104.49 610.56 104.49 611.05"/><polygon class="cls-47" points="104.49 611.55 40.56 610.34 40.56 609.85 104.49 611.05 104.49 611.55"/><polygon class="cls-48" points="104.49 612.04 40.56 610.83 40.56 610.34 104.49 611.55 104.49 612.04"/><polygon class="cls-49" points="104.49 612.53 40.56 611.32 40.56 610.83 104.49 612.04 104.49 612.53"/><polygon class="cls-50" points="104.49 613.02 40.56 611.82 40.56 611.32 104.49 612.53 104.49 613.02"/><polygon class="cls-51" points="104.49 613.51 40.56 612.31 40.56 611.82 104.49 613.02 104.49 613.51"/><polygon class="cls-52" points="104.49 614.01 40.56 612.8 40.56 612.31 104.49 613.51 104.49 614.01"/><polygon class="cls-53" points="104.49 614.5 40.56 613.29 40.56 612.8 104.49 614.01 104.49 614.5"/><polygon class="cls-54" points="104.49 614.99 40.56 613.78 40.56 613.29 104.49 614.5 104.49 614.99"/><polygon class="cls-55" points="104.49 615.48 40.56 614.28 40.56 613.78 104.49 614.99 104.49 615.48"/><polygon class="cls-56" points="104.49 615.97 40.56 614.77 40.56 614.28 104.49 615.48 104.49 615.97"/><polygon class="cls-57" points="104.49 616.47 40.56 615.26 40.56 614.77 104.49 615.97 104.49 616.47"/><polygon class="cls-58" points="104.49 616.96 40.56 615.75 40.56 615.26 104.49 616.47 104.49 616.96"/><polygon class="cls-59" points="104.49 617.45 40.56 616.24 40.56 615.75 104.49 616.96 104.49 617.45"/><polygon class="cls-60" points="104.49 617.94 40.56 616.74 40.56 616.24 104.49 617.45 104.49 617.94"/><polygon class="cls-61" points="104.49 618.43 40.56 617.23 40.56 616.74 104.49 617.94 104.49 618.43"/><polygon class="cls-62" points="104.49 618.93 40.56 617.72 40.56 617.23 104.49 618.43 104.49 618.93"/><polygon class="cls-63" points="104.49 619.42 40.56 618.21 40.56 617.72 104.49 618.93 104.49 619.42"/><polygon class="cls-64" points="104.49 619.91 40.56 618.7 40.56 618.21 104.49 619.42 104.49 619.91"/><polygon class="cls-65" points="104.49 620.4 40.56 619.2 40.56 618.7 104.49 619.91 104.49 620.4"/><polygon class="cls-66" points="104.49 620.89 40.56 619.69 40.56 619.2 104.49 620.4 104.49 620.89"/><polygon class="cls-67" points="104.49 621.39 40.56 620.18 40.56 619.69 104.49 620.89 104.49 621.39"/><polygon class="cls-68" points="104.49 621.88 40.56 620.67 40.56 620.18 104.49 621.39 104.49 621.88"/><polygon class="cls-69" points="104.49 622.37 40.56 621.16 40.56 620.67 104.49 621.88 104.49 622.37"/><polygon class="cls-70" points="104.49 622.86 40.56 621.66 40.56 621.16 104.49 622.37 104.49 622.86"/><polygon class="cls-71" points="104.49 623.35 40.56 622.15 40.56 621.66 104.49 622.86 104.49 623.35"/><polygon class="cls-72" points="104.49 623.85 40.56 622.64 40.56 622.15 104.49 623.35 104.49 623.85"/><polygon class="cls-73" points="104.49 624.34 40.56 623.13 40.56 622.64 104.49 623.85 104.49 624.34"/><polygon class="cls-74" points="104.49 624.83 40.56 623.62 40.56 623.13 104.49 624.34 104.49 624.83"/><polygon class="cls-75" points="104.49 625.32 40.56 624.12 40.56 623.62 104.49 624.83 104.49 625.32"/><polygon class="cls-76" points="104.49 625.81 40.56 624.61 40.56 624.12 104.49 625.32 104.49 625.81"/><polygon class="cls-77" points="104.49 626.31 40.56 625.1 40.56 624.61 104.49 625.81 104.49 626.31"/><polygon class="cls-78" points="104.49 626.8 40.56 625.59 40.56 625.1 104.49 626.31 104.49 626.8"/><polygon class="cls-79" points="104.49 627.29 40.56 626.08 40.56 625.59 104.49 626.8 104.49 627.29"/><polygon class="cls-80" points="104.49 627.78 40.56 626.58 40.56 626.08 104.49 627.29 104.49 627.78"/><polygon class="cls-81" points="104.49 628.27 40.56 627.07 40.56 626.58 104.49 627.78 104.49 628.27"/><polygon class="cls-82" points="104.49 628.77 40.56 627.56 40.56 627.07 104.49 628.27 104.49 628.77"/><polygon class="cls-83" points="104.49 629.26 40.56 628.05 40.56 627.56 104.49 628.77 104.49 629.26"/><polygon class="cls-84" points="104.49 629.75 40.56 628.54 40.56 628.05 104.49 629.26 104.49 629.75"/><polygon class="cls-85" points="104.49 630.24 40.56 629.04 40.56 628.54 104.49 629.75 104.49 630.24"/><polygon class="cls-86" points="104.49 630.73 40.56 629.53 40.56 629.04 104.49 630.24 104.49 630.73"/><polygon class="cls-87" points="104.49 631.23 40.56 630.02 40.56 629.53 104.49 630.73 104.49 631.23"/><polygon class="cls-88" points="104.49 631.72 40.56 630.51 40.56 630.02 104.49 631.23 104.49 631.72"/><polygon class="cls-89" points="104.49 632.21 40.56 631 40.56 630.51 104.49 631.72 104.49 632.21"/><polygon class="cls-90" points="104.49 632.7 40.56 631.5 40.56 631 104.49 632.21 104.49 632.7"/><polygon class="cls-91" points="104.49 633.19 40.56 631.99 40.56 631.5 104.49 632.7 104.49 633.19"/><polygon class="cls-92" points="104.49 633.69 40.56 632.48 40.56 631.99 104.49 633.19 104.49 633.69"/><polygon class="cls-93" points="104.49 634.18 40.56 632.97 40.56 632.48 104.49 633.69 104.49 634.18"/><polygon class="cls-94" points="104.49 634.67 40.56 633.46 40.56 632.97 104.49 634.18 104.49 634.67"/><polygon class="cls-95" points="104.49 635.16 40.56 633.96 40.56 633.46 104.49 634.67 104.49 635.16"/><polygon class="cls-96" points="104.49 635.65 40.56 634.45 40.56 633.96 104.49 635.16 104.49 635.65"/><polygon class="cls-97" points="104.49 636.15 40.56 634.94 40.56 634.45 104.49 635.65 104.49 636.15"/><polygon class="cls-98" points="104.49 636.64 40.56 635.43 40.56 634.94 104.49 636.15 104.49 636.64"/><polygon class="cls-99" points="104.49 637.13 40.56 635.92 40.56 635.43 104.49 636.64 104.49 637.13"/><polygon class="cls-100" points="104.49 637.62 40.56 636.42 40.56 635.92 104.49 637.13 104.49 637.62"/><polygon class="cls-101" points="104.49 638.11 40.56 636.91 40.56 636.42 104.49 637.62 104.49 638.11"/><polygon class="cls-102" points="104.49 638.61 40.56 637.4 40.56 636.91 104.49 638.11 104.49 638.61"/><polygon class="cls-103" points="104.49 639.1 40.56 637.89 40.56 637.4 104.49 638.61 104.49 639.1"/><polygon class="cls-104" points="104.49 639.59 40.56 638.38 40.56 637.89 104.49 639.1 104.49 639.59"/><polygon class="cls-105" points="104.49 640.08 40.56 638.88 40.56 638.38 104.49 639.59 104.49 640.08"/><polygon class="cls-106" points="104.49 640.57 40.56 639.37 40.56 638.88 104.49 640.08 104.49 640.57"/><polygon class="cls-107" points="104.49 641.07 40.56 639.86 40.56 639.37 104.49 640.57 104.49 641.07"/><polygon class="cls-108" points="104.49 641.56 40.56 640.35 40.56 639.86 104.49 641.07 104.49 641.56"/><polygon class="cls-109" points="104.49 642.05 40.56 640.84 40.56 640.35 104.49 641.56 104.49 642.05"/><polygon class="cls-110" points="104.49 642.54 40.56 641.34 40.56 640.84 104.49 642.05 104.49 642.54"/><polygon class="cls-111" points="104.49 643.03 40.56 641.83 40.56 641.34 104.49 642.54 104.49 643.03"/><polygon class="cls-112" points="104.49 643.53 40.56 642.32 40.56 641.83 104.49 643.03 104.49 643.53"/><polygon class="cls-113" points="104.49 644.02 40.56 642.81 40.56 642.32 104.49 643.53 104.49 644.02"/><polygon class="cls-114" points="104.49 644.51 40.56 643.3 40.56 642.81 104.49 644.02 104.49 644.51"/><polygon class="cls-115" points="104.49 645 40.56 643.79 40.56 643.3 104.49 644.51 104.49 645"/><polygon class="cls-116" points="104.49 645.49 40.56 644.29 40.56 643.79 104.49 645 104.49 645.49"/><polygon class="cls-117" points="104.49 645.99 40.56 644.78 40.56 644.29 104.49 645.49 104.49 645.99"/><polygon class="cls-118" points="104.49 646.48 40.56 645.27 40.56 644.78 104.49 645.99 104.49 646.48"/><polygon class="cls-119" points="104.49 646.97 40.56 645.76 40.56 645.27 104.49 646.48 104.49 646.97"/><polygon class="cls-120" points="104.49 647.46 40.56 646.25 40.56 645.76 104.49 646.97 104.49 647.46"/><polygon class="cls-121" points="104.49 647.95 40.56 646.75 40.56 646.25 104.49 647.46 104.49 647.95"/><polygon class="cls-122" points="104.49 648.45 40.56 647.24 40.56 646.75 104.49 647.95 104.49 648.45"/><polygon class="cls-123" points="104.49 648.94 40.56 647.73 40.56 647.24 104.49 648.45 104.49 648.94"/><polygon class="cls-124" points="104.49 649.43 40.56 648.22 40.56 647.73 104.49 648.94 104.49 649.43"/><polygon class="cls-125" points="82.13 649.5 40.56 648.72 40.56 648.22 104.49 649.43 104.49 649.5 82.13 649.5"/><polygon class="cls-126" points="56.06 649.5 40.56 649.21 40.56 648.72 82.13 649.5 56.06 649.5"/><polygon class="cls-127" points="40.56 649.21 56.06 649.5 40.56 649.5 40.56 649.21"/></g><ellipse cx="62.03" cy="603.78" rx="4.5" ry="3.77"/><path d="M62,607.79c-2.61,0-4.74-1.8-4.74-4s2.13-4,4.74-4,4.75,1.8,4.75,4S64.65,607.79,62,607.79Zm0-7.54c-2.34,0-4.24,1.58-4.24,3.53s1.9,3.54,4.24,3.54,4.25-1.59,4.25-3.54S64.37,600.25,62,600.25Z"/><ellipse cx="82.51" cy="603.78" rx="4.5" ry="3.77"/><path d="M82.51,607.79c-2.62,0-4.74-1.8-4.74-4s2.12-4,4.74-4,4.75,1.8,4.75,4S85.13,607.79,82.51,607.79Zm0-7.54c-2.34,0-4.24,1.58-4.24,3.53s1.9,3.54,4.24,3.54,4.25-1.59,4.25-3.54S84.85,600.25,82.51,600.25Z"/><ellipse cx="69.27" cy="617.8" rx="1.26" ry="1.06"/><path d="M69.27,619.1a1.31,1.31,0,1,1,1.5-1.3A1.42,1.42,0,0,1,69.27,619.1Zm0-2.12a.84.84,0,1,0,1,.82A.93.93,0,0,0,69.27,617Z"/><ellipse cx="75.39" cy="617.91" rx="1.12" ry="0.95"/><path d="M75.39,619.1a1.2,1.2,0,1,1,1.38-1.19A1.29,1.29,0,0,1,75.39,619.1Zm0-1.9a.73.73,0,1,0,.88.71A.8.8,0,0,0,75.39,617.2Z"/><rect x="59.79" y="636.07" width="1" height="13.2"/><path d="M61,649.5H59.54V635.83H61ZM60,649h.49V636.3H60Z"/><rect x="63.78" y="636.07" width="1" height="13.2"/><path d="M65,649.5h-1.5V635.83H65ZM64,649h.5V636.3H64Z"/><rect x="67.78" y="636.07" width="1" height="13.2"/><path d="M69,649.5h-1.5V635.83H69ZM68,649h.5V636.3H68Z"/><rect x="71.77" y="636.07" width="1" height="13.2"/><path d="M73,649.5h-1.5V635.83H73ZM72,649h.5V636.3H72Z"/><rect x="75.77" y="636.07" width="1" height="13.2"/><path d="M77,649.5h-1.5V635.83H77ZM76,649h.5V636.3H76Z"/><rect x="79.76" y="636.07" width="1" height="13.2"/><path d="M81,649.5h-1.5V635.83H81ZM80,649h.5V636.3H80Z"/><rect x="84.26" y="636.07" width="1" height="13.2"/><path d="M85.51,649.5H84V635.83h1.5Zm-1-.47H85V636.3h-.5Z"/></svg>
