<svg id="Layer_1" data-name="Layer 1" xmlns="http://www.w3.org/2000/svg" width="170" height="160" viewBox="0 0 170 160"><defs><style>.cls-1{opacity:0.3;}.cls-2{fill:#fff;}</style></defs><title>playknap</title><rect x="23.5" y="16.34" width="128.19" height="129.16" rx="34.51"/><g class="cls-1"><path class="cls-2" d="M50.14,25.5h74.72c9.35,0,17,10.63,17.6,24,0-.55,0-1.1,0-1.65,0-14.15-7.91-25.65-17.64-25.65H50.14c-9.73,0-17.64,11.5-17.64,25.65,0,.55,0,1.1,0,1.65C33.13,36.13,40.79,25.5,50.14,25.5Z"/></g><path class="cls-2" d="M76.34,115.4A9.56,9.56,0,0,1,62.06,107l.17-24.67.17-24.67A9.56,9.56,0,0,1,76.8,49.5L98.08,62l21.28,12.49A9.56,9.56,0,0,1,119.25,91L97.79,103.22Z"/></svg>
