<svg id="Layer_1" data-name="Layer 1" xmlns="http://www.w3.org/2000/svg" xmlns:xlink="http://www.w3.org/1999/xlink" width="160" height="660" viewBox="0 0 160 660"><defs><style>.cls-1{fill:url(#linear-gradient);}.cls-2{fill:url(#linear-gradient-2);}.cls-3{fill:#0071bc;}.cls-4{fill:#71e1ff;}.cls-5,.cls-6{fill:#fff;}.cls-6{stroke:#000;stroke-miterlimit:10;}.cls-7{fill:#333;}.cls-8{fill:#e8edef;}</style><linearGradient id="linear-gradient" x1="-35.19" y1="428.13" x2="123.74" y2="291" gradientUnits="userSpaceOnUse"><stop offset="0"/><stop offset="1"/></linearGradient><linearGradient id="linear-gradient-2" x1="79.6" y1="146.13" x2="78.22" y2="347.66" gradientUnits="userSpaceOnUse"><stop offset="0"/><stop offset="1" stop-color="#5c94d6"/></linearGradient></defs><title>pointbar</title><rect class="cls-1" x="44.12" y="80.72" width="67.46" height="499.75" rx="31.24"/><rect class="cls-2" x="51.72" y="94.97" width="53.21" height="475.05" rx="24.64"/><path class="cls-3" d="M72.28,638.67c0-3.17,5-5.74,11.06-5.74s8,5,11.07,5.74c5.49,1.41-5,5.74-11.07,5.74S72.28,641.84,72.28,638.67Z"/><path class="cls-4" d="M134,619.83c0-4.94-18.63.95-11.52-8.94,3-4.2-6.47,1.06-10.13,5.83-3.07-4.81-12.47-9.51-23.35-12.05a2.62,2.62,0,0,0,1.25-2.43c0-4.64-22.21-.59-15.68-8.4,5.55-6.65-15.68,3.76-15.68,8.4a2.86,2.86,0,0,0,.49,1.73c-15,2.87-25.78,10.4-25.78,19.23,0,11.3,19.06,28.32,39.26,20.46,18-7,31.11-10.65,39.26-20.46a1.58,1.58,0,0,0,.12-.15c3.36,4.93,12,10.56,10.24,5.72C118.45,617.79,134,624.77,134,619.83Z"/><circle class="cls-5" cx="47.7" cy="618.91" r="7.4"/><circle cx="46.91" cy="617.79" r="4.37"/><circle class="cls-6" cx="46.58" cy="617.37" r="1.12"/><path class="cls-7" d="M58.85,631.51c0,1.54-3.58-.87-9.28,2.79-4.31,2.77-9.27-1.25-9.27-2.79s4.15-2.78,9.27-2.78S58.85,630,58.85,631.51Z"/><ellipse class="cls-8" cx="67.04" cy="607.68" rx="4.57" ry="2.04"/><ellipse class="cls-8" cx="74.49" cy="608.68" rx="1.62" ry="1.04"/><path class="cls-3" d="M72,58.84c0-3,4.73-5.48,10.56-5.48s7.62,4.73,10.55,5.48c5.24,1.35-4.72,5.48-10.55,5.48S72,61.87,72,58.84Z"/><path class="cls-4" d="M130.9,40.86c0-4.71-17.78.92-11-8.53,2.88-4-6.17,1-9.67,5.57C107.3,33.31,98.34,28.82,88,26.4a2.51,2.51,0,0,0,1.18-2.32c0-4.43-21.19-.56-15-8,5.3-6.34-15,3.59-15,8a2.71,2.71,0,0,0,.47,1.65c-14.35,2.74-24.6,9.92-24.6,18.35,0,10.78,18.18,27,37.47,19.52C89.7,56.94,102.24,53.44,110,44.08l.11-.15c3.21,4.72,11.47,10.08,9.77,5.47C116.05,38.92,130.9,45.58,130.9,40.86Z"/><circle class="cls-5" cx="48.54" cy="39.99" r="7.06"/><circle cx="47.79" cy="38.92" r="4.17"/><circle class="cls-6" cx="47.47" cy="38.52" r="1.07"/><ellipse class="cls-8" cx="67" cy="29.27" rx="4.37" ry="1.94"/><ellipse class="cls-8" cx="74.1" cy="30.23" rx="1.55" ry="0.99"/><path class="cls-7" d="M57.72,53.31c-.44,1.92-3,3.57-6.72,3.57s-6.72-1.6-6.72-3.57,3.3-1.07,7-1.07S60.1,43,57.72,53.31Z"/></svg>
