<svg id="Layer_1" data-name="Layer 1" xmlns="http://www.w3.org/2000/svg" width="140" height="150" viewBox="0 0 140 150"><defs><style>.cls-1{fill:#fff;}.cls-2{opacity:0.3;}</style></defs><title>replayknap</title><rect x="12" y="15" width="119" height="119.9" rx="34.51"/><path class="cls-1" d="M64.29,31.8A3.74,3.74,0,0,1,69.91,35l0,10.82,0,10.82a3.74,3.74,0,0,1-5.6,3.25L55,54.54l-9.38-5.39a3.74,3.74,0,0,1,0-6.48l9.36-5.44Z"/><path class="cls-1" d="M69.47,114.43a6.79,6.79,0,1,1,0-13.58,24.18,24.18,0,1,0,0-48.35,6.79,6.79,0,1,1,0-13.57,37.75,37.75,0,0,1,0,75.5Z"/><path class="cls-1" d="M69.61,114.66A37.79,37.79,0,0,1,31.86,76.91a6.79,6.79,0,1,1,13.57,0,24.18,24.18,0,0,0,48.35,0,6.79,6.79,0,0,1,13.58,0A37.8,37.8,0,0,1,69.61,114.66Z"/><g class="cls-2"><path class="cls-1" d="M41.63,21.91H99.37c7.22,0,13.14,4,13.6,8.94,0-.21,0-.41,0-.62,0-5.27-6.11-9.55-13.63-9.55H41.63C34.11,20.68,28,25,28,30.23c0,.21,0,.41,0,.62C28.49,25.87,34.41,21.91,41.63,21.91Z"/></g></svg>
