<svg id="Layer_1" data-name="Layer 1" xmlns="http://www.w3.org/2000/svg" width="820" height="570" viewBox="0 0 820 570"><defs><style>.cls-1{fill:#7342ba;opacity:0.97;}</style></defs><title>settingsmenu</title><rect class="cls-1" x="83" y="22" width="646" height="522" rx="82.63"/><path d="M321.17,147.8a11.3,11.3,0,0,1-3.43,8.5q-3.42,3.33-9.52,3.47a12.56,12.56,0,0,1-3.29-.49c-2.14-.61-3.26-.91-3.36-.91-1.12-.24-2.25-.48-3.39-.74a6.19,6.19,0,0,1-3-1.57,12.07,12.07,0,0,1-3.08-5.46,27.49,27.49,0,0,0-2.24-5.53,9.87,9.87,0,0,1-1.33-2,2.87,2.87,0,0,1,.39-2.07,2.66,2.66,0,0,1,1.43-1.29,5.4,5.4,0,0,1,1.54-.14,37.75,37.75,0,0,1,6,.59c2.35.4,3.67.76,4,1.09s.66,2,1.12,5q.63,4.2,1.89,4.69a1.46,1.46,0,0,0,.63.14c.89,0,1.65-.74,2.28-2.21a12.59,12.59,0,0,0,.94-5q0-6.09-3.78-8.12-8.67-4.7-12.18-8.68a14.48,14.48,0,0,1-3.64-10.92,22.34,22.34,0,0,1,3.82-10.61q3.46-5.36,7.31-6.26,1.62-.36,9.8,3.08c1.36.51,2.72,1,4.1,1.61a7.87,7.87,0,0,1,3.32,2.45q2,2.44,2,8.47c0,.74,0,1.84-.07,3.29,0,1.26-.07,2.14-.07,2.66a9.52,9.52,0,0,0,.49,1.61,2.9,2.9,0,0,1,.28,1.54q-.14,3.08-2.59,3.43-1.4.21-5.18-1-4.2-1.33-5.32-2.87a3.82,3.82,0,0,1-.14-1.4c0-.7.08-2.29.25-4.76s.24-4.27.24-5.39c0-2-.23-3-.7-2.94-1.44.09-2.65,1.13-3.6,3.11a15.35,15.35,0,0,0-1.44,6.76q0,6.3,3.71,9l8.4,5.32a16.94,16.94,0,0,1,5.53,5.18C320.52,140.66,321.17,143.78,321.17,147.8Z"/><path d="M355.05,145.56c.42.7-.49,2.77-2.73,6.23q-3.63,5.52-7.14,7.49a2.92,2.92,0,0,1-1.26.21,21.27,21.27,0,0,1-7.14-1.68c-3.12-1.12-5.18-2.34-6.16-3.64q-4-5.25-4.06-14.56a32.63,32.63,0,0,1,3.57-15.54q3.86-7.35,9.8-7.49a13.58,13.58,0,0,1,5.25,1.12,17.24,17.24,0,0,1,6.23,4c.42.42.82,1.68,1.19,3.78a32,32,0,0,1,.7,6.58q0,4.75-1.54,6.58a54.69,54.69,0,0,1-14.7,2.59,24.94,24.94,0,0,0,.84,7.21c.66,2.52,1.33,3.8,2,3.85q1.41.06,3.36-2.31a10.36,10.36,0,0,0,2.17-3.43,35.5,35.5,0,0,1,1.33-4.34c.75-.1,2.22.28,4.41,1.12S354.68,144.9,355.05,145.56Zm-12.46-21.42q-1.18-.15-3.32,3.78a19.79,19.79,0,0,0-2.49,7.49,9,9,0,0,0,5-1.54c.75-.56,1.12-2.9,1.12-7C342.94,125.14,342.83,124.23,342.59,124.14Z"/><path d="M383.4,123.51a3.82,3.82,0,0,1-.84,2.24,2.16,2.16,0,0,1-1.68,1,1.81,1.81,0,0,1-.49-.07,16.43,16.43,0,0,0-4.41-.35V154a9.29,9.29,0,0,1,.46,1.12,6,6,0,0,1,.45,2.1c0,1.35-.93,2.07-2.8,2.17a18.49,18.49,0,0,1-5.39-1.26q-4.26-1.41-4.55-2.59a4.26,4.26,0,0,1,.49-2.07,7.16,7.16,0,0,0,.63-2.41V126.24h-2.38c-.88,0-2-.78-3.29-2.35s-2-2.81-2-3.74a2.66,2.66,0,0,1,.81-1.89,2.41,2.41,0,0,1,1.78-.84h5v-6.3a4.94,4.94,0,0,1-1-3,1.67,1.67,0,0,1,1.26-1.82,8.09,8.09,0,0,1,1.75-.14,27.62,27.62,0,0,1,6.06.8,12.82,12.82,0,0,1,4.51,1.65,1.24,1.24,0,0,1,.49,1,4.16,4.16,0,0,1-1.12,2.1,5.4,5.4,0,0,0-1.19,2v3.78h2.24q.7,0,2.94,2.52C382.66,121.62,383.4,122.81,383.4,123.51Z"/><path d="M413.08,123.51a3.88,3.88,0,0,1-.84,2.24,2.16,2.16,0,0,1-1.68,1,1.81,1.81,0,0,1-.49-.07,16.43,16.43,0,0,0-4.41-.35V154a9.29,9.29,0,0,1,.46,1.12,6,6,0,0,1,.45,2.1c0,1.35-.93,2.07-2.8,2.17a18.49,18.49,0,0,1-5.39-1.26q-4.26-1.41-4.55-2.59a4.26,4.26,0,0,1,.49-2.07A7.16,7.16,0,0,0,395,151V126.24h-2.38c-.88,0-2-.78-3.29-2.35s-2-2.81-2-3.74a2.66,2.66,0,0,1,.81-1.89,2.41,2.41,0,0,1,1.78-.84h5v-6.3a4.94,4.94,0,0,1-1.05-3,1.67,1.67,0,0,1,1.26-1.82,8.09,8.09,0,0,1,1.75-.14,27.62,27.62,0,0,1,6.06.8,12.82,12.82,0,0,1,4.51,1.65,1.24,1.24,0,0,1,.49,1,4.16,4.16,0,0,1-1.12,2.1,5.4,5.4,0,0,0-1.19,2v3.78h2.24q.71,0,2.94,2.52C412.33,121.62,413.08,122.81,413.08,123.51Z"/><path d="M431.28,156.41c.19,1.68-.4,2.73-1.75,3.15a5.91,5.91,0,0,1-1,.07,23.64,23.64,0,0,1-6.23-1q-4-1.12-4.69-2.38c-.23-.38,0-1.1.63-2.17a8.19,8.19,0,0,0,.63-3.85v-29.4a15.26,15.26,0,0,1-.84-3.57c0-.61.86-.91,2.59-.91a19.47,19.47,0,0,1,5.85,1.29c2.49.87,4,1.62,4.51,2.28a1.12,1.12,0,0,1,.21.7,6.06,6.06,0,0,1-.8,2.1,5.64,5.64,0,0,0-.81,2.31v28.14a3.17,3.17,0,0,0,.81,1.75A4.22,4.22,0,0,1,431.28,156.41Zm.21-48.37a1.38,1.38,0,0,1,.07.56,16.89,16.89,0,0,1-.63,4c-.47,1.77-.91,2.75-1.33,2.94s-2.47-.32-6-1.51-5.44-2-5.67-2.55a2.12,2.12,0,0,1-.21-1,9.5,9.5,0,0,1,1-4c.75-1.59,1.59-2.48,2.52-2.66s2.94.22,5.6,1.22S431,107,431.49,108Z"/><path d="M469.92,153.33a6.83,6.83,0,0,1,.56,2.66,2.9,2.9,0,0,1-1.61,2.87,5,5,0,0,1-1.75.21,26.58,26.58,0,0,1-5.67-.74c-2.19-.49-3.52-1-4-1.43a1.42,1.42,0,0,1-.35-.91,5.83,5.83,0,0,1,1.05-2.49,5.8,5.8,0,0,0,1-2.48q.14-27.59-.42-27.79-1-.36-4.83,6.3-4.06,7-4.06,10.57v13.09a3,3,0,0,1,.91,2.24,3.62,3.62,0,0,1-2.38,3.64,2,2,0,0,1-.84.14,25.55,25.55,0,0,1-5.53-.88c-2.43-.58-3.78-1.06-4.06-1.43a2.08,2.08,0,0,1-.42-1.26,2.85,2.85,0,0,1,.81-1.68,3.48,3.48,0,0,0,.8-1.26V120.15a3.06,3.06,0,0,0-.56-1.47,1.88,1.88,0,0,1-.35-1.54,2.68,2.68,0,0,1,2.17-1.89q1.13-.28,5.25.77,4.49,1.11,4.9,2.31a3.78,3.78,0,0,1-.21,2.31,19.54,19.54,0,0,0-.77,2.8,5.67,5.67,0,0,0,.28,1.68,21.84,21.84,0,0,1,2.94-6.23c1.54-2.2,3.08-3.29,4.62-3.29a16.48,16.48,0,0,1,6.16,1.64q3.78,1.65,4.34,3Q469.92,124.69,469.92,153.33Z"/><path d="M506.11,120.78s-.26.51-.77,1.4a3.69,3.69,0,0,0-.49,1.54v30.66q0,11.61-8.61,14.91a20.57,20.57,0,0,1-7.28,1.54,11.83,11.83,0,0,1-8.26-3.22,40.37,40.37,0,0,1-3.36-3.64L476,162.64a2.74,2.74,0,0,1-.77-1.61q-.08-1,2.1-1.68a3.58,3.58,0,0,1,.84-.07,13.24,13.24,0,0,1,3.67.63,7.18,7.18,0,0,1,3,1.54l2.31,2.87a4,4,0,0,0,2.8,1.61c1.91.18,3.15-1.12,3.71-3.92a41.43,41.43,0,0,0,.42-7.21c-.14.18-.58.79-1.33,1.82a9,9,0,0,1-1.47,1.61,2.4,2.4,0,0,1-1.61.7,9.64,9.64,0,0,1-6.23-2Q476,150.6,476,138.35a29.12,29.12,0,0,1,3.29-13.93q3.43-6.58,9-8.26A2.29,2.29,0,0,1,489,116a4.36,4.36,0,0,1,2.52,1c.79.6,1.59,1.23,2.38,1.89.28-.8.57-1.58.87-2.35a1.83,1.83,0,0,1,1.44-1.29,14.28,14.28,0,0,1,5.22.94q3.74,1.15,4.23,2A2.85,2.85,0,0,1,506.11,120.78ZM493.72,138a72.3,72.3,0,0,0,.56-7.91c0-3.78-.61-5.91-1.82-6.37q-1.47-.57-3.57,5a28.61,28.61,0,0,0-2.1,10.08q0,8.25,1.89,13.09A32,32,0,0,0,493.72,138Z"/><path d="M537,150.88a7.89,7.89,0,0,1-2.56,6.16q-2.55,2.31-7.17,2.38a9.77,9.77,0,0,1-2.45-.35c-1.59-.42-2.43-.66-2.52-.7l-2.56-.6a5.28,5.28,0,0,1-2.2-1.08,17.13,17.13,0,0,1-3-3.85q-1.2-2-2.31-4a9.09,9.09,0,0,1-1.12-2.45c0-.66.46-1.15,1.4-1.47a3.64,3.64,0,0,1,1.26-.14,39,39,0,0,1,5.28.45c2.13.31,3.28.56,3.47.77a16.78,16.78,0,0,1,.77,4c.28,2.14.77,3.22,1.47,3.22,1.07,0,1.61-1.45,1.61-4.34q0-5.53-2.94-6.93-6.72-3.15-8.82-5.6-2.6-3-2.59-9.1a14.52,14.52,0,0,1,2.1-7.53c1.4-2.35,3-3.77,5-4.23.84-.19,3.54.7,8.12,2.66.42.14,1.65.39,3.71.77a5.33,5.33,0,0,1,3.08,1.47,8.87,8.87,0,0,1,1.54,5.11c0,1.72.07,3.45.07,5.18a25.91,25.91,0,0,1,.49,2.8,2,2,0,0,1-1.89,2.24,11.2,11.2,0,0,1-3.85-.77c-2.1-.7-3.43-1.43-4-2.17a29.94,29.94,0,0,1-.42-5.25c-.14-3.13-.47-4.69-1-4.69-.7,0-1.36.91-2,2.73a17.72,17.72,0,0,0-.91,5.67c0,2.47.53,4,1.61,4.69,2.28,1.26,4.56,2.53,6.82,3.81a13.48,13.48,0,0,1,4.73,4A12.87,12.87,0,0,1,537,150.88Z"/><path d="M185,276.72c-.23,1.43-.63,2.21-1.2,2.35-.8.2-2.33,0-4.6-.65s-3.76-1.34-4.1-2a1.93,1.93,0,0,1-.15-.75,6.76,6.76,0,0,1,.13-1,6.59,6.59,0,0,0,.12-1.12v-22.7q-2.34,4.59-6.15,20.7a2,2,0,0,0,0,.45,11.33,11.33,0,0,0,.18,1.6,11,11,0,0,1,.17,1.4,13.17,13.17,0,0,1-.15,2,1.46,1.46,0,0,1-1.05,1.2,6.88,6.88,0,0,1-1.75.15q-6.49,0-8.95-2.25a1.44,1.44,0,0,1-.3-1.25,4.69,4.69,0,0,0,0-1.45q-1.84-5.7-3.3-10-3.5-10.41-4.55-12.25v19.9a6.17,6.17,0,0,0,.4,1.8,11.45,11.45,0,0,1,.55,1.75,8.66,8.66,0,0,1,.1,2.4c-.06,1.13-.3,1.83-.7,2.1a2.3,2.3,0,0,1-1.15.2,18.41,18.41,0,0,1-4.4-.65c-1.83-.44-2.91-.89-3.25-1.35a1.49,1.49,0,0,1-.25-.85,4.59,4.59,0,0,1,.18-1,5.28,5.28,0,0,0,.17-1.1V238.92a2.68,2.68,0,0,1,.5-1.38,2.49,2.49,0,0,1,1.15-1q.85-.36,6.55,1.2,6,1.54,6.3,2.7a2.69,2.69,0,0,1,.05,1.2c-.1.7-.15,1.11-.15,1.25a2,2,0,0,0,.15.8l6.75,18.15q1.41-4.45,5.1-18c1.24-4.64,2.24-7.05,3-7.25a2.83,2.83,0,0,1,.8-.1,15,15,0,0,1,2.85.45,22.08,22.08,0,0,0,3,.6c2.64.23,4.15.38,4.55.45,1.57.3,2.45.85,2.65,1.65a2.57,2.57,0,0,1,.1.75,5.71,5.71,0,0,1-.25,1.42,6.33,6.33,0,0,0-.25,1.38v30.6a3.34,3.34,0,0,0,.63,1.5A2.37,2.37,0,0,1,185,276.72Z"/><path d="M211.74,249.12a1.67,1.67,0,0,1,.35,1,2.08,2.08,0,0,1-.57,1.2c-.39.46-.58.76-.58.9v23.25a3.2,3.2,0,0,0,.33,1,3.28,3.28,0,0,1,.32,1.1c0,.6-.51,1-1.55,1.3a10.61,10.61,0,0,1-3.75-.55c-2.13-.54-3.3-1.07-3.5-1.6a2.64,2.64,0,0,1,.15-1.75,6,6,0,0,0,.5-1.8,7.28,7.28,0,0,0-.15-1.3,15.75,15.75,0,0,1-2.1,4.45c-1.1,1.53-2.2,2.3-3.3,2.3a12.06,12.06,0,0,1-4.4-1.15c-1.8-.77-2.83-1.47-3.1-2.1q-1.39-3.21-1.4-23.65a5,5,0,0,1-.4-1.9,2.1,2.1,0,0,1,1.15-2.1,3.59,3.59,0,0,1,1.25-.15,18.85,18.85,0,0,1,4,.52,6.32,6.32,0,0,1,2.85,1.08,1,1,0,0,1,.25.65,4.14,4.14,0,0,1-.75,1.77,4.16,4.16,0,0,0-.75,1.78q-.09,19.7.3,19.85c.47.16,1.64-1.38,3.53-4.63s2.82-5.72,2.82-7.42v-9.35a2.2,2.2,0,0,1-.65-1.6,2.61,2.61,0,0,1,1.7-2.65,1.38,1.38,0,0,1,.6-.1,18.81,18.81,0,0,1,3.95.62C210.63,248.56,211.58,248.88,211.74,249.12Z"/><path d="M233.89,272.72a5.67,5.67,0,0,1-1.82,4.4,7.61,7.61,0,0,1-5.13,1.7,7.3,7.3,0,0,1-1.75-.25c-1.13-.3-1.73-.47-1.8-.5l-1.82-.43a3.83,3.83,0,0,1-1.58-.77,12.46,12.46,0,0,1-2.15-2.75q-.84-1.41-1.65-2.85a6.68,6.68,0,0,1-.8-1.75c0-.47.34-.82,1-1a2.68,2.68,0,0,1,.9-.1,28.71,28.71,0,0,1,3.78.32,7.77,7.77,0,0,1,2.47.55,11.62,11.62,0,0,1,.55,2.88c.2,1.53.55,2.3,1,2.3.77,0,1.15-1,1.15-3.1q0-4-2.1-4.95c-3.2-1.5-5.3-2.84-6.3-4-1.23-1.44-1.85-3.6-1.85-6.5a10.39,10.39,0,0,1,1.5-5.38,5.93,5.93,0,0,1,3.55-3c.6-.14,2.53.5,5.8,1.9.3.1,1.19.28,2.65.55a3.75,3.75,0,0,1,2.2,1.05,6.24,6.24,0,0,1,1.1,3.65c0,1.23,0,2.46,0,3.7a18.17,18.17,0,0,1,.35,2,1.44,1.44,0,0,1-1.35,1.6,8.1,8.1,0,0,1-2.75-.55,6.16,6.16,0,0,1-2.85-1.55,21.51,21.51,0,0,1-.3-3.75c-.1-2.24-.33-3.35-.7-3.35s-1,.65-1.4,1.95a12.82,12.82,0,0,0-.65,4.05c0,1.76.38,2.88,1.15,3.35,1.64.9,3.26,1.81,4.88,2.72a9.64,9.64,0,0,1,3.37,2.83A9.08,9.08,0,0,1,233.89,272.72Z"/><path d="M247.74,276.67a1.84,1.84,0,0,1-1.25,2.25,4.12,4.12,0,0,1-.7.05,16.92,16.92,0,0,1-4.45-.75c-1.9-.54-3-1.1-3.35-1.7-.17-.27,0-.79.45-1.55a5.85,5.85,0,0,0,.45-2.75v-21a10.87,10.87,0,0,1-.6-2.55c0-.44.62-.65,1.85-.65a14.06,14.06,0,0,1,4.18.92,8.09,8.09,0,0,1,3.22,1.63.8.8,0,0,1,.15.5,4.34,4.34,0,0,1-.57,1.5,4,4,0,0,0-.58,1.65v20.1a2.23,2.23,0,0,0,.58,1.25A2.87,2.87,0,0,1,247.74,276.67Zm.15-34.55a1.09,1.09,0,0,1,.05.4,12,12,0,0,1-.45,2.85c-.33,1.26-.65,2-1,2.1s-1.77-.23-4.3-1.08-3.88-1.46-4.05-1.82a1.5,1.5,0,0,1-.15-.75,6.7,6.7,0,0,1,.7-2.85c.53-1.14,1.13-1.77,1.8-1.9a9.06,9.06,0,0,1,4,.87C246.44,240.66,247.56,241.38,247.89,242.12Z"/><path d="M272.69,267.92q0,.94-1.65,2.55a21.45,21.45,0,0,1-2.4,4.25,8.79,8.79,0,0,1-5.65,3.55,10.74,10.74,0,0,1-1.35.1q-2.81,0-6.9-2.7-3.56-2.4-3.55-11.05a32.79,32.79,0,0,1,1.95-11.6q2.15-5.66,5.25-5.85a14.11,14.11,0,0,1,6,1.3,10.74,10.74,0,0,1,4.8,3.2,6.41,6.41,0,0,1,1.05,3.85c0,.43,0,1.06-.1,1.87a11.11,11.11,0,0,0-.05,1.73c.07.9.1,1.31.1,1.25,0,1.06-.52,1.58-1.55,1.55a12.93,12.93,0,0,1-3.4-.55,3.83,3.83,0,0,1-2.6-2.05q-.15-.45.42-1.2a1.64,1.64,0,0,0,.48-1.25,8.59,8.59,0,0,0,.1-1.75c0-2-.35-3-1.05-3.1q-1.6-.11-2.7,4.85a43.07,43.07,0,0,0-1,9.6c0,4.1.48,6.26,1.45,6.5.77.16,1.77-.67,3-2.5a10.88,10.88,0,0,0,1.67-3.18c.09-.55.16-1.11.23-1.67a1.55,1.55,0,0,1,1.8-1.3,12.15,12.15,0,0,1,3.15,1.15c1.5.7,2.29,1.22,2.37,1.57A3.59,3.59,0,0,1,272.69,267.92Z"/><path d="M282.49,249.62a3.59,3.59,0,0,1-.6,1.9,5.59,5.59,0,0,0-.8,2.4,7.77,7.77,0,0,1,0,1.2c-.13,1-.4,1.53-.8,1.7s-1.57-.11-3.3-.93-2.7-1.44-2.9-1.87.07-1.24.7-2.8a21.06,21.06,0,0,1,1.4-3,1.17,1.17,0,0,1,1.1-.5,25.67,25.67,0,0,0,3,.6C281.62,248.55,282.36,249,282.49,249.62Zm0,23a3.59,3.59,0,0,1-.6,1.9,5.59,5.59,0,0,0-.8,2.4,7.18,7.18,0,0,1,0,1.15c-.13,1-.4,1.53-.8,1.7s-1.57-.11-3.3-.93-2.7-1.42-2.9-1.82.07-1.24.7-2.8a21.06,21.06,0,0,1,1.4-3,1.17,1.17,0,0,1,1.1-.5,25.67,25.67,0,0,0,3,.6C281.62,271.55,282.36,272,282.49,272.62Z"/><path d="M163.34,390.52a8.06,8.06,0,0,1-2.45,6.07,9.73,9.73,0,0,1-6.8,2.48,8.93,8.93,0,0,1-2.35-.35c-1.53-.44-2.33-.65-2.4-.65-.8-.17-1.6-.34-2.42-.53a4.48,4.48,0,0,1-2.13-1.12,8.61,8.61,0,0,1-2.2-3.9,19.76,19.76,0,0,0-1.6-3.95,7.27,7.27,0,0,1-1-1.4,2.08,2.08,0,0,1,.28-1.48,1.9,1.9,0,0,1,1-.92,3.91,3.91,0,0,1,1.1-.1,26.75,26.75,0,0,1,4.28.42,7.2,7.2,0,0,1,2.82.78,13.14,13.14,0,0,1,.8,3.6c.3,2,.75,3.11,1.35,3.35a1.14,1.14,0,0,0,.45.1c.64,0,1.18-.53,1.63-1.58a9,9,0,0,0,.67-3.57c0-2.9-.9-4.84-2.7-5.8q-6.19-3.36-8.7-6.2a10.34,10.34,0,0,1-2.6-7.8,16,16,0,0,1,2.73-7.58q2.47-3.83,5.22-4.47,1.16-.26,7,2.2c1,.36,1.94.75,2.93,1.15a5.62,5.62,0,0,1,2.37,1.75c.94,1.16,1.4,3.18,1.4,6.05,0,.53,0,1.31-.05,2.35s0,1.53,0,1.9a7.33,7.33,0,0,0,.35,1.15,2,2,0,0,1,.2,1.1c-.06,1.46-.68,2.28-1.85,2.45a9.79,9.79,0,0,1-3.7-.75c-2-.64-3.26-1.32-3.8-2a2.85,2.85,0,0,1-.1-1c0-.5.06-1.64.18-3.4s.17-3.05.17-3.85c0-1.44-.16-2.14-.5-2.1-1,.06-1.89.81-2.57,2.22a11,11,0,0,0-1,4.83c0,3,.89,5.13,2.65,6.4l6,3.8a12.09,12.09,0,0,1,3.95,3.7A13.29,13.29,0,0,1,163.34,390.52Z"/><path d="M184.29,369c1.84.86,3.25,2.61,4.25,5.25a24.18,24.18,0,0,1,1.35,8.5,27.44,27.44,0,0,1-2.3,11.7q-2.55,5.29-6.35,4.8c-.93-.24-2.33-.52-4.2-.85a22.78,22.78,0,0,1-3.7-.75c-1.9-.5-3.41-2.12-4.55-4.85a23.55,23.55,0,0,1-1.55-8.9,26.2,26.2,0,0,1,1.6-9.35,12.12,12.12,0,0,1,5-6.45,3.17,3.17,0,0,1,1.5-.3,22.31,22.31,0,0,1,4,.65A28.77,28.77,0,0,1,184.29,369Zm-5.6,4.5c-.9,0-1.73,1.09-2.5,3.27a19.15,19.15,0,0,0-1.15,6.28,30.37,30.37,0,0,0,.85,7.1q1,3.79,2.2,4.1,1.6.35,2.85-3.6a27.86,27.86,0,0,0,1.2-8.4,19.66,19.66,0,0,0-.65-5Q180.59,373.52,178.69,373.52Z"/><path d="M217,369.12a1.67,1.67,0,0,1,.35,1,2.08,2.08,0,0,1-.57,1.2c-.39.46-.58.76-.58.9v23.25a3.2,3.2,0,0,0,.33,1,3.28,3.28,0,0,1,.32,1.1c0,.6-.51,1-1.55,1.3a10.61,10.61,0,0,1-3.75-.55c-2.13-.54-3.3-1.07-3.5-1.6a2.64,2.64,0,0,1,.15-1.75,6,6,0,0,0,.5-1.8,7.28,7.28,0,0,0-.15-1.3,15.75,15.75,0,0,1-2.1,4.45c-1.1,1.53-2.2,2.3-3.3,2.3a12.06,12.06,0,0,1-4.4-1.15c-1.8-.77-2.83-1.47-3.1-2.1q-1.4-3.21-1.4-23.65a5,5,0,0,1-.4-1.9,2.1,2.1,0,0,1,1.15-2.1,3.59,3.59,0,0,1,1.25-.15,18.85,18.85,0,0,1,4.05.52,6.32,6.32,0,0,1,2.85,1.08,1,1,0,0,1,.25.65,4.14,4.14,0,0,1-.75,1.77,4.16,4.16,0,0,0-.75,1.78q-.09,19.69.3,19.85c.47.16,1.64-1.38,3.53-4.63s2.82-5.72,2.82-7.42v-9.35a2.2,2.2,0,0,1-.65-1.6,2.61,2.61,0,0,1,1.7-2.65,1.38,1.38,0,0,1,.6-.1,18.81,18.81,0,0,1,3.95.62C215.93,368.56,216.88,368.88,217,369.12Z"/><path d="M244.64,394.47a4.77,4.77,0,0,1,.4,1.9,2.06,2.06,0,0,1-1.15,2.05,3.55,3.55,0,0,1-1.25.15,19.08,19.08,0,0,1-4-.53,7.16,7.16,0,0,1-2.85-1,1,1,0,0,1-.25-.65,4.16,4.16,0,0,1,.75-1.78,4.14,4.14,0,0,0,.75-1.77q.1-19.71-.3-19.85c-.47-.17-1.61,1.33-3.45,4.5q-2.9,5-2.9,7.55v9.35A2.17,2.17,0,0,1,231,396a2.59,2.59,0,0,1-1.7,2.6,1.48,1.48,0,0,1-.6.1,18.31,18.31,0,0,1-3.95-.63,7.55,7.55,0,0,1-2.9-1,1.48,1.48,0,0,1-.3-.9,2,2,0,0,1,.58-1.2,2.43,2.43,0,0,0,.57-.9V370.77a2.13,2.13,0,0,0-.4-1,1.32,1.32,0,0,1-.25-1.1,1.92,1.92,0,0,1,1.55-1.35,10.34,10.34,0,0,1,3.75.55c2.13.53,3.3,1.08,3.5,1.65a2.79,2.79,0,0,1-.15,1.65,14.53,14.53,0,0,0-.55,2,4.29,4.29,0,0,0,.2,1.2,15.62,15.62,0,0,1,2.1-4.45c1.1-1.57,2.2-2.35,3.3-2.35a11.72,11.72,0,0,1,4.4,1.17c1.8.79,2.83,1.49,3.1,2.13Q244.64,374,244.64,394.47Z"/><path d="M272.64,359.22a4.86,4.86,0,0,1-.37,1.95,10.76,10.76,0,0,0-.48,1.65v32.6a4.89,4.89,0,0,0,.25,2.05c.5.86.65,1.45.45,1.75s-.6.4-1.3.4a20.6,20.6,0,0,1-3.5-.45c-1.77-.37-2.7-.55-2.8-.55a1.6,1.6,0,0,1-1.3-1.2,2.43,2.43,0,0,1,0-.65,48.86,48.86,0,0,1,.55-6.1q-1.2,2.4-2.35,4.8-1.65,2.94-2.95,2.7-9.86-2-9.85-12.1a24.84,24.84,0,0,1,3.15-11.7q3-5.76,6.7-7.5a2.08,2.08,0,0,1,.95-.25q1.25,0,4.35,3.1V360a6.9,6.9,0,0,0-.45-1.43,4.64,4.64,0,0,1-.4-1.52c0-.7.47-1.05,1.4-1.05a13.68,13.68,0,0,1,3.6.7c1,.33,2,.65,2.95.95A1.84,1.84,0,0,1,272.64,359.22Zm-8.7,12.9q-2.81,1.25-5.07,5.5a16.83,16.83,0,0,0-2.28,7.9q0,4.25,3.3,4.65Q261.65,390.37,263.94,372.12Z"/><path d="M308.34,388.92q.45.75-1.95,4.45a16.17,16.17,0,0,1-5.1,5.35,2.09,2.09,0,0,1-.9.15,15.19,15.19,0,0,1-5.1-1.2q-3.35-1.2-4.4-2.6-2.89-3.75-2.9-10.4a23.31,23.31,0,0,1,2.55-11.1q2.74-5.25,7-5.35a9.69,9.69,0,0,1,3.75.8,12.36,12.36,0,0,1,4.45,2.85,6.33,6.33,0,0,1,.85,2.7,23.2,23.2,0,0,1,.5,4.7c0,2.26-.37,3.83-1.1,4.7a39.26,39.26,0,0,1-10.5,1.85,17.42,17.42,0,0,0,.6,5.15c.47,1.8,1,2.71,1.45,2.75q1,0,2.4-1.65a7.53,7.53,0,0,0,1.55-2.45,24.19,24.19,0,0,1,.95-3.1,8.38,8.38,0,0,1,3.15.8C307.16,387.92,308.07,388.45,308.34,388.92Zm-8.9-15.3q-.85-.11-2.37,2.7a14.12,14.12,0,0,0-1.78,5.35,6.49,6.49,0,0,0,3.6-1.1c.53-.4.8-2.07.8-5C299.69,374.33,299.61,373.68,299.44,373.62Z"/><path d="M328.14,360.12a2.69,2.69,0,0,1-.45,1.7c-.37.63-.75.93-1.15.9a1.73,1.73,0,0,1-1-.53,2,2,0,0,0-1-.57q-2.3-.4-2.3,4.25v1.55c0,.66.05,1.13.05,1.4h1.6c.37,0,1.08.6,2.15,1.8s1.58,2.05,1.55,2.55a2.74,2.74,0,0,1-.6,1.6,1.57,1.57,0,0,1-1.2.7,1.23,1.23,0,0,1-.35-.05,11.45,11.45,0,0,0-3.15-.25v19.75a1.94,1.94,0,0,0,.43,1A1.43,1.43,0,0,1,323,397a2,2,0,0,1-2.1,1.75,13.51,13.51,0,0,1-3.85-.9c-2-.67-3.12-1.29-3.25-1.85a3,3,0,0,1,.35-1.48,5.11,5.11,0,0,0,.45-1.72v-17.7h-1.7c-.63,0-1.41-.56-2.32-1.68a4.85,4.85,0,0,1-1.38-2.67,1.93,1.93,0,0,1,.55-1.35,1.66,1.66,0,0,1,1.25-.6h3.6a30.45,30.45,0,0,1,.65-7.65,6.18,6.18,0,0,1,6.45-4.7c.43,0,.87,0,1.3,0a6.88,6.88,0,0,1,3.4,1.65C327.51,359,328.07,359.65,328.14,360.12Z"/><path d="M349.39,360.12a2.69,2.69,0,0,1-.45,1.7c-.37.63-.75.93-1.15.9a1.73,1.73,0,0,1-1-.53,2,2,0,0,0-1-.57q-2.3-.4-2.3,4.25v1.55c0,.66.05,1.13.05,1.4h1.6c.37,0,1.08.6,2.15,1.8s1.58,2.05,1.55,2.55a2.74,2.74,0,0,1-.6,1.6,1.57,1.57,0,0,1-1.2.7,1.23,1.23,0,0,1-.35-.05,11.45,11.45,0,0,0-3.15-.25v19.75a1.94,1.94,0,0,0,.43,1,1.43,1.43,0,0,1,.32,1.08,2,2,0,0,1-2.1,1.75,13.51,13.51,0,0,1-3.85-.9c-2-.67-3.12-1.29-3.25-1.85a3,3,0,0,1,.35-1.48,5.11,5.11,0,0,0,.45-1.72v-17.7h-1.7c-.63,0-1.41-.56-2.32-1.68a4.85,4.85,0,0,1-1.38-2.67,1.93,1.93,0,0,1,.55-1.35,1.66,1.66,0,0,1,1.25-.6h3.6a30.45,30.45,0,0,1,.65-7.65,6.18,6.18,0,0,1,6.45-4.7c.43,0,.87,0,1.3,0a6.88,6.88,0,0,1,3.4,1.65C348.76,359,349.32,359.65,349.39,360.12Z"/><path d="M371.09,388.92q.45.75-1.95,4.45a16.17,16.17,0,0,1-5.1,5.35,2.09,2.09,0,0,1-.9.15,15.19,15.19,0,0,1-5.1-1.2q-3.35-1.2-4.4-2.6-2.89-3.75-2.9-10.4a23.31,23.31,0,0,1,2.55-11.1q2.74-5.25,7-5.35a9.69,9.69,0,0,1,3.75.8,12.36,12.36,0,0,1,4.45,2.85,6.33,6.33,0,0,1,.85,2.7,23.2,23.2,0,0,1,.5,4.7c0,2.26-.37,3.83-1.1,4.7a39.26,39.26,0,0,1-10.5,1.85,17.42,17.42,0,0,0,.6,5.15c.47,1.8,1,2.71,1.45,2.75q1,0,2.4-1.65a7.53,7.53,0,0,0,1.55-2.45,24.19,24.19,0,0,1,.95-3.1,8.38,8.38,0,0,1,3.15.8C369.91,387.92,370.82,388.45,371.09,388.92Zm-8.9-15.3c-.57-.07-1.36.83-2.38,2.7a14.26,14.26,0,0,0-1.77,5.35,6.49,6.49,0,0,0,3.6-1.1c.53-.4.8-2.07.8-5C362.44,374.33,362.36,373.68,362.19,373.62Z"/><path d="M396.49,387.92q0,.94-1.65,2.55a21.45,21.45,0,0,1-2.4,4.25,8.79,8.79,0,0,1-5.65,3.55,10.74,10.74,0,0,1-1.35.1q-2.81,0-6.9-2.7-3.56-2.4-3.55-11.05a32.79,32.79,0,0,1,1.95-11.6q2.15-5.65,5.25-5.85a14.11,14.11,0,0,1,6,1.3,10.74,10.74,0,0,1,4.8,3.2,6.41,6.41,0,0,1,1.05,3.85c0,.43,0,1.06-.1,1.87a11.11,11.11,0,0,0-.05,1.73c.07.9.1,1.31.1,1.25,0,1.06-.52,1.58-1.55,1.55a12.93,12.93,0,0,1-3.4-.55,3.83,3.83,0,0,1-2.6-2.05q-.15-.45.42-1.2a1.64,1.64,0,0,0,.48-1.25,8.59,8.59,0,0,0,.1-1.75c0-2-.35-3-1.05-3.1q-1.61-.11-2.7,4.85a43.07,43.07,0,0,0-1,9.6c0,4.1.48,6.26,1.45,6.5.77.16,1.77-.67,3-2.5a10.88,10.88,0,0,0,1.67-3.18c.09-.55.16-1.11.23-1.67a1.55,1.55,0,0,1,1.8-1.3,12.15,12.15,0,0,1,3.15,1.15c1.5.7,2.29,1.22,2.37,1.57A3.59,3.59,0,0,1,396.49,387.92Z"/><path d="M416.09,373.17a2.74,2.74,0,0,1-.6,1.6,1.57,1.57,0,0,1-1.2.7,1.23,1.23,0,0,1-.35-.05,11.86,11.86,0,0,0-3.15-.25v19.75a5.38,5.38,0,0,1,.32.8,4.17,4.17,0,0,1,.33,1.5c0,1-.67,1.48-2,1.55a13.1,13.1,0,0,1-3.85-.9c-2-.67-3.12-1.29-3.25-1.85a3,3,0,0,1,.35-1.48,5.11,5.11,0,0,0,.45-1.72v-17.7h-1.7c-.63,0-1.42-.56-2.35-1.68a4.84,4.84,0,0,1-1.4-2.67,1.91,1.91,0,0,1,.57-1.35,1.75,1.75,0,0,1,1.28-.6h3.6v-4.5a3.54,3.54,0,0,1-.75-2.15,1.19,1.19,0,0,1,.9-1.3,5.86,5.86,0,0,1,1.25-.1,19.6,19.6,0,0,1,4.32.57,9.3,9.3,0,0,1,3.23,1.18.9.9,0,0,1,.35.7,3,3,0,0,1-.8,1.5,3.73,3.73,0,0,0-.85,1.4v2.7h1.6q.5,0,2.1,1.8C415.56,371.82,416.09,372.67,416.09,373.17Z"/><path d="M437.49,392.72a5.64,5.64,0,0,1-1.83,4.4,7.56,7.56,0,0,1-5.12,1.7,7.23,7.23,0,0,1-1.75-.25c-1.13-.3-1.73-.47-1.8-.5l-1.83-.43a3.85,3.85,0,0,1-1.57-.77,12.46,12.46,0,0,1-2.15-2.75q-.85-1.41-1.65-2.85a6.68,6.68,0,0,1-.8-1.75c0-.47.33-.82,1-1a2.68,2.68,0,0,1,.9-.1,28.45,28.45,0,0,1,3.77.32,7.79,7.79,0,0,1,2.48.55,11.62,11.62,0,0,1,.55,2.88c.2,1.53.55,2.3,1.05,2.3.77,0,1.15-1,1.15-3.1q0-4-2.1-4.95c-3.2-1.5-5.3-2.84-6.3-4-1.23-1.44-1.85-3.6-1.85-6.5a10.39,10.39,0,0,1,1.5-5.38,5.9,5.9,0,0,1,3.55-3c.6-.14,2.53.5,5.8,1.9.3.1,1.18.28,2.65.55a3.79,3.79,0,0,1,2.2,1.05,6.32,6.32,0,0,1,1.1,3.65c0,1.23.05,2.46.05,3.7a18.17,18.17,0,0,1,.35,2,1.44,1.44,0,0,1-1.35,1.6,8.1,8.1,0,0,1-2.75-.55,6.16,6.16,0,0,1-2.85-1.55,21.51,21.51,0,0,1-.3-3.75c-.1-2.24-.33-3.35-.7-3.35s-1,.65-1.4,1.95a12.82,12.82,0,0,0-.65,4.05c0,1.76.38,2.88,1.15,3.35,1.63.9,3.26,1.81,4.87,2.72a9.6,9.6,0,0,1,3.38,2.83A9.16,9.16,0,0,1,437.49,392.72Z"/><path d="M449.24,369.62a3.79,3.79,0,0,1-.6,1.9,5.46,5.46,0,0,0-.8,2.4,7.77,7.77,0,0,1,0,1.2c-.14,1-.4,1.53-.8,1.7s-1.57-.11-3.3-.93-2.7-1.44-2.9-1.87.06-1.24.7-2.8a21.06,21.06,0,0,1,1.4-3,1.16,1.16,0,0,1,1.1-.5,25.67,25.67,0,0,0,3,.6C448.37,368.55,449.1,369,449.24,369.62Zm0,23a3.79,3.79,0,0,1-.6,1.9,5.46,5.46,0,0,0-.8,2.4,7.18,7.18,0,0,1,0,1.15c-.14,1-.4,1.53-.8,1.7s-1.57-.11-3.3-.93-2.7-1.42-2.9-1.82.06-1.24.7-2.8a21.06,21.06,0,0,1,1.4-3,1.16,1.16,0,0,1,1.1-.5,25.67,25.67,0,0,0,3,.6C448.37,391.55,449.1,392,449.24,392.62Z"/></svg>
