<svg id="Layer_1" data-name="Layer 1" xmlns="http://www.w3.org/2000/svg" width="200" height="170" viewBox="0 0 200 170"><title>settings</title><path d="M101.38,113.54a31.95,31.95,0,1,1,32-31.94A32,32,0,0,1,101.38,113.54Zm0-60.77A28.83,28.83,0,1,0,130.21,81.6,28.86,28.86,0,0,0,101.38,52.77Z"/><path d="M169.54,88.53V74.67l-21.32-4a48,48,0,0,0-6.06-14.58L154.39,38.3l-9.8-9.8L126.75,40.75a47.84,47.84,0,0,0-14.51-6l-3.93-21.11H94.45L90.53,34.76a47.39,47.39,0,0,0-14.48,6L58.44,28.65l-9.79,9.8L60.69,56a47.69,47.69,0,0,0-6.16,14.8L33.64,74.67V88.53l20.89,3.88a47.74,47.74,0,0,0,6,14.6L48.5,124.6l9.8,9.8,17.56-12.06a47.77,47.77,0,0,0,14.67,6.1l3.92,21.11h13.86l3.93-21.11a47.73,47.73,0,0,0,14.7-6.12l17.8,12.22,9.8-9.79-12.26-17.86a48,48,0,0,0,5.94-14.4ZM101.38,112A30.39,30.39,0,1,1,131.77,81.6,30.38,30.38,0,0,1,101.38,112Z"/><path d="M109.61,151.11H93.16l-4-21.39a49,49,0,0,1-13.27-5.52l-17.8,12.22L46.48,124.78,58.71,107a49,49,0,0,1-5.46-13.2L32.08,89.83V73.37l21.17-3.93A49.07,49.07,0,0,1,58.83,56L46.63,38.26,58.26,26.63,76.1,38.88a49,49,0,0,1,13.08-5.4l4-21.39h16.45l4,21.39A49,49,0,0,1,126.7,38.9l18.08-12.42,11.63,11.64L144,56.17a49.35,49.35,0,0,1,5.48,13.19l21.6,4V89.83l-21.6,4a49,49,0,0,1-5.37,13l12.43,18.1-11.63,11.63-18-12.38a49,49,0,0,1-13.3,5.54ZM95.75,148H107l3.87-20.84,1-.23A46.08,46.08,0,0,0,126.11,121l.87-.54,17.57,12.06,8-8-12.11-17.63.54-.87a46.11,46.11,0,0,0,5.75-13.92l.23-1,21-3.91V76l-21-3.91-.23-1A46.11,46.11,0,0,0,140.84,57l-.55-.87,12.08-17.59-8-8L126.79,42.62l-.87-.54a45.84,45.84,0,0,0-14-5.8l-1-.23L107,15.21H95.75L91.88,36.05l-1,.23a46.18,46.18,0,0,0-14,5.78L76,42.6,58.63,30.67l-8,8L62.56,56l-.55.87a46,46,0,0,0-6,14.31l-.23,1L35.2,76V87.23l20.62,3.83.23,1a46.28,46.28,0,0,0,5.84,14.13l.54.86L50.52,124.41l8,8,17.34-11.91.87.55a46,46,0,0,0,14.19,5.9l1,.23Zm5.63-34.45a31.95,31.95,0,1,1,32-31.94A32,32,0,0,1,101.38,113.54Zm0-60.77A28.83,28.83,0,1,0,130.21,81.6,28.86,28.86,0,0,0,101.38,52.77Z"/><path d="M101.38,113.54a31.95,31.95,0,1,1,32-31.94A32,32,0,0,1,101.38,113.54Zm0-60.77A28.83,28.83,0,1,0,130.21,81.6,28.86,28.86,0,0,0,101.38,52.77Z"/></svg>
