<svg id="Layer_1" data-name="Layer 1" xmlns="http://www.w3.org/2000/svg" width="80" height="100" viewBox="0 0 80 100"><title>sugereor</title><path d="M64.33,24.43,48.06,19.21l-.16,0-.16-.06a1.64,1.64,0,0,0-1.91.74A1.73,1.73,0,0,0,44.54,21a2.86,2.86,0,0,0-.07.28,1.71,1.71,0,0,0-1.26,1.16v0A1.71,1.71,0,0,0,42,23.64a1.57,1.57,0,0,0-.06.28,1.71,1.71,0,0,0-1.26,1.17,2.68,2.68,0,0,0-.07.27,1.75,1.75,0,0,0-1.26,1.17,1.89,1.89,0,0,0,0,.23,1.75,1.75,0,0,0-1.1,1.12,1.69,1.69,0,0,0-.06.8,1.71,1.71,0,0,0-.62,1.87,1.59,1.59,0,0,0-.26.48l-16,49.85a1.51,1.51,0,1,0,2.87.92L40.1,32a1.66,1.66,0,0,0,.06-.54,1.72,1.72,0,0,0,.59-.83,1.7,1.7,0,0,0,0-.92,1.76,1.76,0,0,0,.5-.78.86.86,0,0,0,.06-.23,1.73,1.73,0,0,0,1.1-1.12,1.27,1.27,0,0,0,.06-.28,1.71,1.71,0,0,0,1.26-1.16,1.4,1.4,0,0,0,.06-.28,1.73,1.73,0,0,0,1.27-1.16v0a1.73,1.73,0,0,0,1.24-1.15,1.57,1.57,0,0,0,.06-.28,1.69,1.69,0,0,0,1.08-.79,1.63,1.63,0,0,0,.8-.39L63.54,26.9a1.3,1.3,0,1,0,.79-2.47Z"/></svg>
