<svg id="Layer_1" data-name="Layer 1" xmlns="http://www.w3.org/2000/svg" width="340" height="580" viewBox="0 0 340 580"><defs><style>.cls-1{fill:#d1d66e;}.cls-2{fill:#698e4c;}.cls-3{fill:#97d35e;}</style></defs><title>tang_1</title><path class="cls-1" d="M289,317.11c0,114-23.92,206.48-53.42,206.48s-53.42-92.44-53.42-206.48,53.42-236,53.42-206.49C235.58,161.64,289,203.07,289,317.11Z"/><path class="cls-2" d="M175.34,318.91c0,114-23.91,206.48-53.42,206.48S68.5,432.94,68.5,318.91s86.44-421.38,53.42-206.49C114.17,162.85,175.34,204.87,175.34,318.91Z"/><path class="cls-3" d="M226,334.51c0,114-23.91,206.49-53.42,206.49S64.09,434.39,119.13,334.51C151.54,275.69,170.54,98.59,172.55,128,183.36,286.5,226,220.48,226,334.51Z"/></svg>
