<svg id="Layer_1" data-name="Layer 1" xmlns="http://www.w3.org/2000/svg" width="180" height="170" viewBox="0 0 180 170"><defs><style>.cls-1{fill:#97d35e;}.cls-2{fill:#415e21;}.cls-3{fill:#7f9620;}</style></defs><title>tang</title><path class="cls-1" d="M114.26,114.12a13.87,13.87,0,0,1-1.13,2.52,12,12,0,0,1-1.06,1.56,13.93,13.93,0,0,1-1.48,1.59l-.4.35-.52.41c-.37.27-.75.53-1.14.77a13.22,13.22,0,0,1-5,1.74,13.33,13.33,0,0,1-2.32.12,12.89,12.89,0,0,1-1.87-.2l-.92-.2-.62-.18c-.41-.12-.81-.27-1.21-.43l-.59-.25-.41-.21-.79-.43-.39-.24-.34-.22q-.56-.37-1.08-.81a15.29,15.29,0,0,1-2.75-2.94,14.66,14.66,0,0,1-1.83-3.42l-.19-.51c-.06-.18-.12-.39-.18-.59a11.43,11.43,0,0,1-.3-1.25,13,13,0,0,1-.21-1.51l0-.44v-.08l-.07-.63-.16-1.27c-.19-1.69-.36-3.41-.49-5.14-.27-3.47-.41-7-.34-10.67a79.57,79.57,0,0,1,3.59-22.7l.47-1.44c.17-.49.36-1,.54-1.47l.56-1.47L92.25,63l.63-1.45.69-1.42c.45-1,1-1.88,1.47-2.81a61.58,61.58,0,0,1,7.43-10.59,56.54,56.54,0,0,1,10.16-9.12,51.82,51.82,0,0,1,13-6.56,45.89,45.89,0,0,0-17.45,21.25,47.45,47.45,0,0,0-3.27,22.3,59.55,59.55,0,0,0,5.36,19c1.33,2.9,2.81,5.69,4.4,8.43q1.2,2.05,2.47,4.07l.64,1,.32.5.08.13,0,0v0l-16.45.81h.12a2.72,2.72,0,0,0,.46-.1,3,3,0,0,0,.38-.15l.14-.07.06,0,0,0,0,0,0,0c-.1.08-.17.15-.33.3a2.88,2.88,0,0,0-.67,1.11.38.38,0,0,0,0,.2s0,0,0,.05v0h0s0,0-.06-.07a.15.15,0,0,0-.07,0l-.14-.09-.11,0h0l1.51.61c1.23.48,2.48.94,3.73,1.38Q110.4,113.1,114.26,114.12Z"/><path class="cls-1" d="M95.05,70.75a16.31,16.31,0,0,1,5.61,1.08,20.94,20.94,0,0,1,5.45,3,26.06,26.06,0,0,1,4.55,4.54c.33.42.66.86,1,1.3s.64,1,.92,1.4c.58.91,1.08,1.78,1.53,2.59L115.3,87q.56,1,1.08,2.13c.7,1.44,1.35,2.92,2,4.42a70.79,70.79,0,0,1,3,9.35A59.71,59.71,0,0,0,99.23,90.4a20.18,20.18,0,0,0-2.86-.64,16.44,16.44,0,0,0-2.79-.16,15,15,0,0,0-5.25,1.07A14,14,0,0,0,84,93.38a12.9,12.9,0,0,0-2.73,3.52Z"/><path class="cls-1" d="M78.34,111.18a16.65,16.65,0,0,1-1.26-1.52A16.12,16.12,0,0,1,76,108a14.41,14.41,0,0,1-1.3-3.54A15.51,15.51,0,0,1,74.48,99a18.77,18.77,0,0,1,.73-3.28A21.39,21.39,0,0,1,76,93.57c.52-1.3,1-2.62,1.6-3.92s1.17-2.57,1.83-3.83,1.3-2.52,2-3.72A77.39,77.39,0,0,1,91.73,68.44a79.3,79.3,0,0,1,29-19.63,65.8,65.8,0,0,0-18.39,31.51A52.61,52.61,0,0,0,100.86,96c0,1.23.24,2.49.39,3.67s.43,2.38.67,3.5.63,2.26,1,3.32l0,.1-6.71-3.24-1-.47-.91-.39-.82-.32a16.38,16.38,0,0,0-2.67-.76,5,5,0,0,0-1.63-.07c-.34,0-.43.16-.32.07h0l-.3.27L87,103l-2.93,2.69Q81.19,108.4,78.34,111.18Z"/><path class="cls-1" d="M99.19,108.21c-.43-2.72-.74-5.23-1.08-7.52A58.25,58.25,0,0,0,97,94.62a15.08,15.08,0,0,0-1.58-4.08,3.75,3.75,0,0,0-1.67-1.63,6.23,6.23,0,0,0-1.89,0c-.65.11-1.2.45-1.26.88a8.44,8.44,0,0,1,4.51-6.38,13.31,13.31,0,0,1,9.43-1.31,20.07,20.07,0,0,1,7.83,4,46.14,46.14,0,0,1,6.87,6.89c4.19,5,7.79,10.45,11.77,13.9Z"/><path class="cls-1" d="M101.37,69.12l3.08,23.51L106,104.38l.19,1.47a3.9,3.9,0,0,0,.21,1c0,.09.07.12.1.12l-1.34.08-1.28.1-1,.09-.95.09a33,33,0,0,0-4.52.73c-.25.07-.4.1-.61.17l-.25.07-1.34.46s.06,0,0,0a3.34,3.34,0,0,0-.66.44,4.14,4.14,0,0,0-.79.84,1.87,1.87,0,0,0-.29.58,1.87,1.87,0,0,1,.29-.58,4.14,4.14,0,0,1,.79-.84,3.53,3.53,0,0,1,.66-.44s0,0,0,0l1.33-.46.24-.07c.21-.07.37-.1.62-.17l.77-.17,1-.19,1.21-.18,1.3-.16a1.93,1.93,0,0,1-1.21-.36,12.73,12.73,0,0,1-2.38-2.6L88.54,92.59,69.56,69Z"/><path class="cls-1" d="M93.81,101.45A48.83,48.83,0,0,0,99,101a1.22,1.22,0,0,0,.39-.09,1.45,1.45,0,0,0,.22-.09l.41-.2a5.67,5.67,0,0,0,.73-.45,3.26,3.26,0,0,0,1.45-2.53,3.55,3.55,0,0,0-.36-1.56l0-.07s0,0,0-.08l0-.12,0-.23.14-1,.26-1.89.53-3.79L105,73.85l6.45,17.37L113,95.56l.8,2.17.41,1.09c.06.17.13.37.2.53l.22.47a20.69,20.69,0,0,1,2.07,9.29,17.58,17.58,0,0,1-2.45,8,24.62,24.62,0,0,1-6.17,7,31.48,31.48,0,0,1-4.33,2.85c-.78.43-1.6.84-2.45,1.22-.42.2-.85.38-1.29.56a11.11,11.11,0,0,0-1.17.54c-2.69,1.39-5.24,2.6-7.38,3.86Z"/><path class="cls-1" d="M82.15,83.55l-1.25-.44L65.25,77.63,76.83,63a27.31,27.31,0,0,1,4.87-4.76A32.67,32.67,0,0,1,86.92,55a48.22,48.22,0,0,1,9.55-3.46c1.47-.38,2.83-.68,4.24-1l2.13-.4,2.17-.33a64.86,64.86,0,0,1,9.07-.65,50.28,50.28,0,0,1,20,3.92,43.28,43.28,0,0,1,5.13,2.59c.84.52,1.64,1,2.51,1.59s1.79,1.31,2.71,2.1a31.63,31.63,0,0,1,2.79,2.7,28,28,0,0,1,2.79,3.58,27.43,27.43,0,0,1,2.49,4.72,26.56,26.56,0,0,1,1.61,5.88,24.11,24.11,0,0,0-2.53-5.54,22.2,22.2,0,0,0-3.24-4.06,21.83,21.83,0,0,0-6.6-4.46,24,24,0,0,0-3-1.1c-1-.26-1.88-.42-2.8-.6a33.37,33.37,0,0,0-5.37-.48,34.23,34.23,0,0,0-9.68,1.3,38.06,38.06,0,0,0-8.11,3.37A47.71,47.71,0,0,0,106,69.27c-.52.42-1,.84-1.52,1.27l-1.45,1.31a38.11,38.11,0,0,0-2.68,2.73c-1.61,1.83-2.8,3.8-3,5.57a2.75,2.75,0,0,0,0,.64,2.1,2.1,0,0,0,.09.61,2,2,0,0,0,.19.56l.14.25c.06.11-.06-.07-.09-.12l-.13-.21a11,11,0,0,0-1.67-2L94.39,55.05l1.48-.21Z"/><path class="cls-1" d="M92.24,67.43l-.78-3.66L117.67,62c1.24,7,4,14,7.47,21.7l11.06,24.1-12.66-9.83c-4.22-3.29-8.46-6.52-12.62-9.82A128.81,128.81,0,0,1,98.74,77.26,81.43,81.43,0,0,1,93,70.72a71.84,71.84,0,0,1-5.15-7.65l33.21-2.28,2.79,3.37Z"/><path class="cls-1" d="M88.69,128.82a18.4,18.4,0,0,1-5.94-1.49,26.29,26.29,0,0,1-5.5-3.28c-.84-.65-1.59-1.28-2.28-1.89l-1.74-1.57c-1.18-1-2.25-2.17-3.34-3.3a70.34,70.34,0,0,1-11-15.31,73.19,73.19,0,0,1-8.69-37.74c4.74,14.21,13.48,24.84,23.27,31.37a46.53,46.53,0,0,0,15.06,6.77,36.37,36.37,0,0,0,3.75.72l1.83.24a3.6,3.6,0,0,0,1.39-.33,11.38,11.38,0,0,0,1.86-1.61,6.36,6.36,0,0,0,1.17-2.06l-4.78,14.23Z"/><path class="cls-1" d="M68.64,52.91c3-.5,6.15-1,9.5-1.39A83.25,83.25,0,0,1,88.88,51a55.59,55.59,0,0,1,12.05,1.54,52,52,0,0,1,6.16,1.95,58.82,58.82,0,0,1,5.59,2.5,107.64,107.64,0,0,1,9.4,5.48l7.77,5L145,77.28l-20-3.54-10.08-1.8a84.43,84.43,0,0,0-10.28-1.29,32.38,32.38,0,0,0-9.58.83,37,37,0,0,0-8.23,3.25c-5.18,2.73-9.94,6.26-15.57,9.89Z"/><path class="cls-1" d="M110,61.2a17.24,17.24,0,0,1,5.31-7.9,17.45,17.45,0,0,1,8.63-3.94l18.3-2.85-3.93,19.55a101.2,101.2,0,0,1-13.71,34,105.27,105.27,0,0,1-25.44,27.73c15.18-23.84,17.5-50.44,10.71-69.87l16.29,8.58a1.21,1.21,0,0,0,.17.49,1.41,1.41,0,0,0-.54-.36l-.74-.26Q117.54,63.68,110,61.2Z"/><path class="cls-1" d="M64.49,117.06c-.34.11-1.07-.43-1.77-1.21a12.72,12.72,0,0,1-1.95-3,18.79,18.79,0,0,1-1.28-3.79c-.15-.66-.27-1.3-.37-2s-.16-1.34-.21-1.88a49.5,49.5,0,0,1,.54-13.26A67.1,67.1,0,0,1,62.7,80.08a107.44,107.44,0,0,1,4.46-10.27c1.57-3.2,3.18-6.2,4.71-9.06s3.12-5.81,5-9a86,86,0,0,1,6.75-9.69,61.07,61.07,0,0,1,9.62-9.51,50.77,50.77,0,0,0-6.68,12.2A64.24,64.24,0,0,0,83.4,56.38c-.69,3.72-1.1,7.29-1.49,10.81s-.77,7.1-1,10.63a74.44,74.44,0,0,0,0,10.34,34.77,34.77,0,0,0,1.81,9.18,17.85,17.85,0,0,0,4,6.62c.39.55.81.4,1.23.56a4.91,4.91,0,0,0,1.27.09,5.58,5.58,0,0,0,2.26-.63Z"/><path class="cls-1" d="M114.19,55.87a3.58,3.58,0,0,0-.23,2.18l.33,4.74q.43,7,1,14,1.05,14,2.47,27.83-9.37-14-18.37-28.41Q94.85,69,90.46,61.62A27.7,27.7,0,0,1,86.79,52a22,22,0,0,1-.3-3.38,33.71,33.71,0,0,1,.07-3.49,29.34,29.34,0,0,1,1.39-7L101.2,47Z"/><path class="cls-1" d="M57.66,98.34l-1.43-12.4c-.49-4-1-7.91-1.74-11.51a62.68,62.68,0,0,0-2.68-9.87A40.57,40.57,0,0,0,50,60.42c-.16-.32-.34-.62-.51-.93L49.27,59a4.87,4.87,0,0,1-.25-.6c-.12-.31-.23-.62-.36-1a23.43,23.43,0,0,1-.73-2.78,22,22,0,0,1-.41-4.47,20.77,20.77,0,0,1,6.65-14.95,20.57,20.57,0,0,0-4.82,8,18.53,18.53,0,0,0-.83,7,16.23,16.23,0,0,0,.88,4.19,13.21,13.21,0,0,0,1.17,2.48c.2.33.38.59.57.85s.38.51.48.49l.73.34c.49.24,1,.48,1.48.74a42.43,42.43,0,0,1,5.8,3.77A73.11,73.11,0,0,1,70.38,73.62c3.38,4,6.57,8.27,9.71,12.5l9.38,12.57Z"/><path class="cls-1" d="M79.49,46.72a115.39,115.39,0,0,1,28.45,30.67,116.64,116.64,0,0,1,16.07,40C107.71,89.75,81.92,74.08,58.7,70.82Z"/><path class="cls-1" d="M76.51,127.75a7.36,7.36,0,0,1-2.2-2.82,17,17,0,0,1-1.45-4.31l-1.13-6.44q-1-5.75-1.64-11.57A216.79,216.79,0,0,1,68.7,79,196.77,196.77,0,0,0,86,102.94q4.65,5.49,9.58,10.47c.82.83,1.64,1.65,2.48,2.45l1.24,1.21a2,2,0,0,0,.62.37,1,1,0,0,0,.3,0c.1,0,.21,0,.31,0a8.58,8.58,0,0,0,2.48.06,9.83,9.83,0,0,0,2.26-.57Z"/><path class="cls-1" d="M130.31,73.11Q131,77,131.36,81c.13,1.32.23,2.64.3,4l.09,2c0,1,0,2,0,3a55,55,0,0,1-.44,6,26,26,0,0,1-1.46,5.77A22.68,22.68,0,0,1,127,107a26.66,26.66,0,0,1-4.08,4.42q-1.14,1-2.4,1.89c-.83.61-1.73,1.13-2.6,1.69a56.48,56.48,0,0,1-5.62,3l-.73.33-.83.34-.79.32-.57.24c-.76.29-1.53.6-2.3.87-1.54.54-3.11,1-4.71,1.45a57.53,57.53,0,0,1-20,1.61,49.5,49.5,0,0,0,18.55-9.44,45.61,45.61,0,0,0,3.53-3.22c.55-.55,1.07-1.14,1.58-1.7s1.17-1.22,1.65-1.82a24.87,24.87,0,0,0,4.37-7.33,11.87,11.87,0,0,0,.64-3.72,10.26,10.26,0,0,0-.7-3.76,15.29,15.29,0,0,0-1.78-3.3,15.87,15.87,0,0,0-2.14-2.5,12,12,0,0,0-1.13-.94c-.36-.46-.73-1-1.11-1.52q-1.12-1.53-2.31-3a65.37,65.37,0,0,0-4.94-5.38Z"/><path class="cls-1" d="M55.9,100.62A28.79,28.79,0,0,1,53.64,85a32.59,32.59,0,0,1,2-7.89,33.49,33.49,0,0,1,3.92-7.21A41.52,41.52,0,0,1,72.24,58.42a52.49,52.49,0,0,1,7.05-3.5,50.79,50.79,0,0,1,7.42-2.42,37.26,37.26,0,0,1,9.42-1.08,32.25,32.25,0,0,1,5.68.61,30.85,30.85,0,0,1,3,.76c.47.13,1.09.36,1.63.56s1.1.44,1.64.68a28.8,28.8,0,0,1,11.19,8.86,27.08,27.08,0,0,1,4,7.37,26,26,0,0,1,1.47,9.45,24.17,24.17,0,0,0-2.79-9A23.08,23.08,0,0,0,105.62,59a21.34,21.34,0,0,0-2.89-.33,24.15,24.15,0,0,0-2.58.09,21.75,21.75,0,0,0-4.6,1,23.79,23.79,0,0,0-7,3.71,36.77,36.77,0,0,0-5,4.67,32.57,32.57,0,0,0-3.81,5.15,18.38,18.38,0,0,0-2.93,10.54A8.91,8.91,0,0,0,80.15,90a6.35,6.35,0,0,0,5.69,1.1L71,95.78Z"/><path class="cls-1" d="M113.34,88.13c-.56-.19-1.14.29-1.41.82a3.12,3.12,0,0,0-.18.42,1.08,1.08,0,0,0,0,.19c0,.08,0,.16-.1.31a31,31,0,0,1-1.39,3.34,23.71,23.71,0,0,1-1.66,2.85c-.17.25-.38.53-.58.79s-.17.23-.33.42l-.45.53a18.53,18.53,0,0,1-1.88,1.88,19.35,19.35,0,0,1-4.19,2.76,18.4,18.4,0,0,1-5.22,1.68,17.33,17.33,0,0,1-7.08-.3,16.92,16.92,0,0,1-7.64-4.27,17.29,17.29,0,0,1-2.52-3.11,19.62,19.62,0,0,1-1.41-2.65c-.34-.77-.56-1.39-.74-1.89s-.27-.82-.4-1.23a37.5,37.5,0,0,1-1.67-9.49,46.36,46.36,0,0,1,.48-8.86A70.14,70.14,0,0,1,79,57.55l.64-1.63.65-1.57c.42-1,.86-2.05,1.35-3.12a72.92,72.92,0,0,1,3.41-6.67,51.36,51.36,0,0,1,4.9-7,42.91,42.91,0,0,1,7-6.72,48.06,48.06,0,0,1,16.89-8.16,64.27,64.27,0,0,1,16.6-2.13,65.11,65.11,0,0,0-15.72,6,43.47,43.47,0,0,0-13.15,10.76,31.94,31.94,0,0,0-4.19,6.89A37.36,37.36,0,0,0,95.08,51a73.94,73.94,0,0,0-1.54,13,43.73,43.73,0,0,0,.92,12.06A19.44,19.44,0,0,0,96.33,81a11.49,11.49,0,0,0,2.81,3.38,3,3,0,0,0,.38.29s.06,0,.08,0h0l-.81.27-1.4.49-1,.4a17.38,17.38,0,0,0-2.3,1.07,4.74,4.74,0,0,0-.87.61c-.16.14-.1.17,0-.12a3.27,3.27,0,0,0,.07-1.31A4.62,4.62,0,0,0,93,84.86c-.12-.26-.14-.23,0,0a3.62,3.62,0,0,0,.36.39l.13.12.07.06,0,0c2,1.68-2.75-2.28-2.27-1.89l0,0-.53-.41a40.86,40.86,0,0,0-5-3.09c-.35-.17-.43-1-.21-2.38l.11-.56.14-.64c.12-.45.27-1,.4-1.37a26.43,26.43,0,0,1,1-2.62,25.94,25.94,0,0,1,2.75-4.82c1-1.46,2.25-2.76,2.85-3.63L104,77.17Z"/><path class="cls-1" d="M108,53.69a21.09,21.09,0,0,1,11.13,4,27.47,27.47,0,0,1,8.05,9.41,38.92,38.92,0,0,1,4.15,23,41,41,0,0,1-3.21,11.51,42.68,42.68,0,0,1-6.39,10.17,46.4,46.4,0,0,1-19.33,13.53,40.21,40.21,0,0,0,13.59-19,31.19,31.19,0,0,0,1.55-10.19,24.74,24.74,0,0,0-1.84-9,20,20,0,0,0-4.43-6.66,13.16,13.16,0,0,0-5.77-3.44,8.27,8.27,0,0,0-5.44.59A6.78,6.78,0,0,0,96.82,81l5.1-12.42Z"/><path class="cls-1" d="M85.4,117.91a32.68,32.68,0,0,1-7.1.07,22.29,22.29,0,0,1-5.3-1.23,21.15,21.15,0,0,1-5.7-3.2A21.64,21.64,0,0,1,63,109a26,26,0,0,1-2.6-4.64A38.17,38.17,0,0,1,58,96.7c-.21-1.08-.39-2.14-.54-2.93l-.44-2.58c-.28-1.72-.54-3.44-.77-5.17s-.43-3.47-.6-5.21l-.25-2.64c-.07-.91-.13-1.88-.18-2.89a50.23,50.23,0,0,1,.15-6.73,36.76,36.76,0,0,1,.53-3.84,33.66,33.66,0,0,1,1-4,40.75,40.75,0,0,1,3.19-7.59c.65-1.13,1.31-2.31,2-3.33.35-.53.71-1.07,1.07-1.57l1.11-1.47c.37-.5.75-1,1.13-1.4L66.62,44c.76-.82,1.54-1.71,2.31-2.46l1.16-1.16,1.15-1.08c.77-.74,1.52-1.38,2.28-2.06,3-2.62,5.92-4.83,8.56-6.86-1.92,3.14-4.07,6.45-6.14,10A70.74,70.74,0,0,0,70.38,51.9a40.23,40.23,0,0,0-1.74,6.34,28.43,28.43,0,0,0-.44,6.4,22.46,22.46,0,0,0,1,5.88,34.15,34.15,0,0,0,2,5.08c1.53,3.19,3.23,6.27,5,9.25q1.32,2.24,2.71,4.4l1.39,2.14a15.18,15.18,0,0,0,1.42,1.87,7.42,7.42,0,0,0,1.44,1.26,2.42,2.42,0,0,0,1.36.44l.3-.07,0,0-.27.12-.52.25-.92.48c-.28.15-.57.35-.76.45a7.15,7.15,0,0,0-1.48,1.2l-.06.07s0,0,0,0h0l-.08.13,0,0a6,6,0,0,0,.42-.83,20.59,20.59,0,0,0,1.17-4.58l.16-1,.12-1.05c.06-.43.11-.85.15-1.28s.08-1,.08-.89a1.47,1.47,0,0,1,.24-.59,4.36,4.36,0,0,1,1.4-1.2Z"/><path class="cls-1" d="M99.67,51.2c.81.73,2.07,1.71,3.86,3a81.26,81.26,0,0,1,6.62,5.22,53.75,53.75,0,0,1,7.06,7.76q1.58,2.13,3,4.42c.46.76.9,1.54,1.33,2.33.49,1,1,2,1.4,3.06a30.83,30.83,0,0,1,2,7.42A24.91,24.91,0,0,1,124,95.05a22.94,22.94,0,0,1-3,6.17,23.91,23.91,0,0,1-2.23,2.77,23.51,23.51,0,0,1-2.54,2.32,28.22,28.22,0,0,1-2.44,1.71c-.77.48-1.5.88-2.18,1.23s-1.28.63-1.84.88l-1.49.64a77.58,77.58,0,0,1-19.19,5.48,69.41,69.41,0,0,0,16.6-13,43.27,43.27,0,0,0,4.57-4.91,14.2,14.2,0,0,0,1.09-1.71,12.35,12.35,0,0,0,.8-1.84,10.79,10.79,0,0,0,.59-3.62A10.57,10.57,0,0,0,111,85.64a14.8,14.8,0,0,0-3.17-3.51,30.83,30.83,0,0,0-15-6.21,61.73,61.73,0,0,1-8.37-1.37,30.81,30.81,0,0,1-11-5.17Q86.58,60.25,99.67,51.2Z"/><path class="cls-1" d="M91.38,88.12a29.32,29.32,0,0,0,.05,5c.08.83.2,1.64.35,2.45a3,3,0,0,0,.24.78c0,.07.08.1.11.1l-.6.1-.76.14c-.42.07-.88.17-1.28.26a18,18,0,0,0-3.32,1l-.47.22-.36.19-.24.16,0,0,0,0h0l.15-.11h0l0,0,0,0,.15-.14.18-.2c.09-.1.13-.17.22-.28a7.75,7.75,0,0,0,.6-.88c.12-.19.2-.34.32-.56s.25-.47.36-.71l.38-.81c.13-.3.22-.56.36-.9s.27-.71.39-1.07l.4-1.19.19-.64c0-.08,0-.07,0-.07h0l.06,0s.12,0,.18-.06c.36-.06,1-.1,1.9-.16,8.69-.32,17.74-1.45,27.38-2.62-9.57,6.46-18.55,12.94-28.7,18.47a27.88,27.88,0,0,1-4,1.87,14.1,14.1,0,0,1-5,.87,11.69,11.69,0,0,1-3.08-.48,12.36,12.36,0,0,1-3.29-1.54,15.21,15.21,0,0,1-3-2.59,22,22,0,0,1-2.24-3c-1.28-2-2.19-3.87-3-5.45a52.77,52.77,0,0,1-2.3-4.78A55.68,55.68,0,0,1,60.4,80.87Z"/><path class="cls-1" d="M81.8,109a110.26,110.26,0,0,0,12.82-1.61,29.82,29.82,0,0,0,9.38-3.33,11.52,11.52,0,0,0,2.77-2.19,2.42,2.42,0,0,0,.81-1.69.2.2,0,0,0,0-.11v0h0l.43.31h0l0,0,.07,0a5.77,5.77,0,0,0,1.17.45,8.55,8.55,0,0,0,1.94.32,5.56,5.56,0,0,0,1.53-.13,5.56,5.56,0,0,1-1.53.13l-.49,0-.51-.07-.24,0h0l.07,0,.15,0a3.73,3.73,0,0,1,.56.2,5.15,5.15,0,0,1,1.93,1.56,6.32,6.32,0,0,1,1.19,2.47,12.52,12.52,0,0,1-.51,6.68,26.36,26.36,0,0,1-3.77,7.09c-3.34,4.63-8.13,8.68-13.19,12.18s-10.45,6.58-15.33,9.62Z"/><path class="cls-2" d="M108,110.35a18.1,18.1,0,0,1-7.47,1.76,23.3,23.3,0,0,1-5.74-.66,31.08,31.08,0,0,1-4-1.29l-1.53-.61L87.88,109a49.47,49.47,0,0,1-10.17-6.07A50.6,50.6,0,0,1,62.43,83.46a43,43,0,0,0,13.41,6.76A37.5,37.5,0,0,0,89,91.7a30.2,30.2,0,0,0,11.38-3.06c.41-.21.82-.44,1.22-.66.19-.12.4-.23.58-.35a6.25,6.25,0,0,0,.45-.44,3.4,3.4,0,0,0,.67-1L103,87c-.11.26-.21.52-.31.79-.2.52-.37,1-.52,1.45a15.09,15.09,0,0,0-.9,4.13,3.71,3.71,0,0,0,.12,1.39l.41,1Q104.85,103.06,108,110.35Z"/><path class="cls-2" d="M82.16,60.23q12.59-2,25.38-3.25l1.63-.15c.6,0,1.3-.09,2.12-.1a27.21,27.21,0,0,1,6.37.64,25.11,25.11,0,0,1,4.23,1.36c.74.32,1.49.69,2.23,1.09a24.72,24.72,0,0,1,2.1,1.31,26.87,26.87,0,0,1,6.43,6.32,29.64,29.64,0,0,1,3.69,6.86,36.38,36.38,0,0,1,1.77,6.5,86.1,86.1,0,0,1,.9,9c-1.49-2.14-2.89-5.23-4.85-8.6a40.93,40.93,0,0,0-3.49-5.09A23.4,23.4,0,0,0,126,71.83a18.38,18.38,0,0,0-5.74-2.73,13,13,0,0,0-3-.47,11.14,11.14,0,0,0-2.72.25,13.08,13.08,0,0,0-4.14,1.74c-1.17.72-2.18,1.5-3.23,2.26Q94.63,82.08,83.28,92Z"/><path class="cls-2" d="M102.79,111.67a24.25,24.25,0,0,1-4.91,1,25.65,25.65,0,0,1-5.1-.14,29.12,29.12,0,0,1-5.07-1.12,36.74,36.74,0,0,1-4.92-2,40.7,40.7,0,0,1-4.45-2.59c-.36-.24-.7-.49-1-.74l-1-.71c-.61-.44-1.21-.9-1.8-1.37a50.15,50.15,0,0,1-6.62-6.43A44.46,44.46,0,0,0,80.5,98.72c1,0,2-.14,3-.26s2-.25,3-.44a26,26,0,0,0,5.49-1.67,20,20,0,0,0,4.61-2.79A17.89,17.89,0,0,0,100,89.8a16.37,16.37,0,0,0,2.91-9Z"/><path class="cls-2" d="M74.28,59l12.27-.23,6.13-.11c2,0,4.23-.08,6.83,0a47.1,47.1,0,0,1,8.78,1.27,37.68,37.68,0,0,1,5.08,1.68c.45.19.85.34,1.33.58l1.43.71c.93.5,1.85,1,2.73,1.62a31.73,31.73,0,0,1,9.49,9.6,28.45,28.45,0,0,1,3.3,7.39,28.16,28.16,0,0,1,1.07,9,25.42,25.42,0,0,0-3-8.57,22.53,22.53,0,0,0-4.84-5.91,22.91,22.91,0,0,0-10.78-5.18c-.88-.17-1.76-.27-2.62-.35a17.63,17.63,0,0,0-2.51,0,23,23,0,0,0-4.46.73,32.5,32.5,0,0,0-7.44,3.13c-2.25,1.26-4.35,2.64-6.56,4L84,82.44,70.81,90.58Z"/><path class="cls-2" d="M123.75,96.6l.73,5.31.37,2.65a12.54,12.54,0,0,1-.08,3.58,16,16,0,0,1-1.15,4.11,17.09,17.09,0,0,1-1.3,2.4,15.59,15.59,0,0,1-1.67,2.15,17.16,17.16,0,0,1-3.55,2.94,19.76,19.76,0,0,1-2.89,1.47c-.83.34-1.52.57-2.09.75l-1.32.4c-1.13.36-2.3.69-3.49,1a50.33,50.33,0,0,1-7.53,1.26,44.06,44.06,0,0,1-8.27-.06c-.71-.06-1.43-.17-2.16-.27s-1.47-.25-2.21-.42a37.32,37.32,0,0,1-4.4-1.2,38.56,38.56,0,0,1-8.66-4.11,36.84,36.84,0,0,1-8-6.85,30.82,30.82,0,0,0,10.37,3.67,29.66,29.66,0,0,0,9.41,0A28,28,0,0,0,100,108.7a33.23,33.23,0,0,0,4.65-5q1-1.35,1.83-2.73a1,1,0,0,0,.2-.65.22.22,0,0,1,0-.08s0-.14,0,.15l.29,1.06c.2.65.34,1.1.49,1.54a13.08,13.08,0,0,0,.78,1.76,3.69,3.69,0,0,0,.54.76l.08.07,0,0h0l-.11-.06a4.67,4.67,0,0,0-1.22-.35c-.21,0-.36-.06-.63-.11l-.84-.1-.55,0-.63,0-.87-.06-1.07,0-1.38-.06-2.17-.07a.27.27,0,0,1-.15,0,.92.92,0,0,1-.3-.27l-2.35-2.67-4.72-5.34Z"/><path class="cls-2" d="M61.92,79.85A22.18,22.18,0,0,1,70.26,67a24,24,0,0,1,7.18-3.63c.62-.19,1.34-.4,2-.55s1.25-.29,1.82-.41c1.14-.23,2.11-.39,3-.54,1.71-.3,3.44-.57,5.17-.81s3-.44,6.28-.63a57.46,57.46,0,0,1,8.4,0,31.86,31.86,0,0,1,8,1.65,25.51,25.51,0,0,1,12.77,9.71,37.06,37.06,0,0,1,5.71,15.81A52.81,52.81,0,0,1,131,96.5l0,1.14-.08,1.19c0,.59-.06,1.12-.11,1.66-.09,1.09-.2,2.14-.33,3.19a98.43,98.43,0,0,1-2.25,11.61A119.52,119.52,0,0,0,126.55,103c-.21-1.06-.43-2.1-.69-3.15-.12-.52-.25-1-.4-1.57-.12-.7-.24-1.37-.4-2a39.42,39.42,0,0,0-2.37-7.1,31.61,31.61,0,0,0-3.35-5.79A21.54,21.54,0,0,0,115.2,79a13.76,13.76,0,0,0-5.1-2.62,13.91,13.91,0,0,0-5.78-.19,26.78,26.78,0,0,0-9.55,4.16c-.3.2-.59.41-.87.62s-.25.2-.44.31l-.55.32c-.72.43-1.44.86-2.15,1.3q-2.15,1.32-4.18,2.72c-1.42.93-2.36,1.87-2.58,2.77a6.27,6.27,0,0,0-.45,2.82,5.43,5.43,0,0,0,2.23,4.11l-10.3-6.72Z"/><path class="cls-2" d="M72.62,111.33c-.34-.06-.86-.59-1.32-1.28a11.7,11.7,0,0,1-1.25-2.53,17.33,17.33,0,0,1-.75-3c-.09-.51-.15-1-.21-1.59S69,102,69,101.71l-1-7.25-1-7.25c-.09-.59-.17-1.22-.24-2,0-.3-.07-1-.1-1.5s0-1.12,0-1.68a35.2,35.2,0,0,1,.58-6.7A33.58,33.58,0,0,1,74.87,60c.48-.56,1-1.11,1.49-1.65s1-1.06,1.58-1.58l1.45-1.35,1.37-1.19a64,64,0,0,1,5.44-4.07c-1.3,2.11-2.54,4.3-3.66,6.6-.29.58-.56,1.16-.82,1.74s-.51,1.18-.82,1.83-.58,1.31-.84,2-.49,1.31-.7,2a23.32,23.32,0,0,0-.27,14.61,20.45,20.45,0,0,0,2.28,4.64,46.53,46.53,0,0,0,2.86,3.74l5.84,7.23,5.84,7.23a1.69,1.69,0,0,0,.73.6c.12.06.24,0,.37,0l.37.08a7.07,7.07,0,0,0,1.52.16,8.63,8.63,0,0,0,2.85-.48Z"/><path class="cls-2" d="M100.43,71.73a1.13,1.13,0,0,0-.55.9,3.9,3.9,0,0,0,0,.59,1.56,1.56,0,0,0,0,.26,3,3,0,0,1,0,.34,53.18,53.18,0,0,0-.31,6.11,18.43,18.43,0,0,0,.2,2.31,3.72,3.72,0,0,0,.2.76,3.32,3.32,0,0,0,.23.37,3,3,0,0,0,1.15,1,2.7,2.7,0,0,0,1.29.27c.06,0,.08,0,.19,0l.37.14.86.32a4.79,4.79,0,0,0,1.51.38.41.41,0,0,0,.31-.09c.1-.28-.19.58-.33,1l-.2.74-.17.67c-.1.44-.18.79-.23,1.16s-.1.64-.13.88l-.14,1.67v-.09s0,0,0,.09a6.37,6.37,0,0,0,.5,2,5,5,0,0,0,1.14,1.75,5,5,0,0,1-1.14-1.75,6.37,6.37,0,0,1-.5-2c0-.07,0-.1,0-.09v.09l.14-1.67c0-.06,0,0,0,0V90a.8.8,0,0,1,0,.15l-.07.29a3.06,3.06,0,0,1-.26.55,4.56,4.56,0,0,1-2.16,1.73,12.37,12.37,0,0,1-3.39.86c-.63.09-1.24.16-1.87.21l-1.83.13a15.9,15.9,0,0,1-7.77-1.62,18.8,18.8,0,0,1-6.9-6.23A36.07,36.07,0,0,1,78,81.58c-.75-1.51-1.42-3.07-2-4.61-1.22-3.11-2.22-6.14-3.24-9l-.13-.78-.1-.84c0-.61-.08-1.21-.1-1.79A26.39,26.39,0,0,1,72.46,61,29.52,29.52,0,0,1,73,57.45c.26-1.14.58-2.23.83-3.17L87.8,63.41Z"/><path class="cls-2" d="M91.48,93.54a38.74,38.74,0,0,1-1.29-5.28c-.08-.46-.15-.9-.21-1.37a13.5,13.5,0,0,1,.11-3.3,15.13,15.13,0,0,1,.75-3,15.89,15.89,0,0,1,1.82-3.54,16.55,16.55,0,0,1,2.4-2.77,18.28,18.28,0,0,1,2.14-1.7c1.26-.85,2.09-1.27,2.55-1.55l.15-.1.1-.07.21-.14.4-.28,1.63-1.11c1.08-.74,2.18-1.47,3.29-2.19q6.64-4.32,13.72-8.15a195.33,195.33,0,0,0-7.89,23c-.52,1.91-1,3.83-1.48,5.74l-.66,2.87c-.1.48-.24,1-.3,1.43a.8.8,0,0,0,0,.31l0,.07-.09-.18-.16-.36-.66-1.37c-.15-.32-.31-.64-.47-.95l-.36-.69c-.21-.4-.41-.73-.56-1a5.27,5.27,0,0,0-1.15-1.47c-.13-.09,0,0,.15.06a4.37,4.37,0,0,0,.87.24,15.93,15.93,0,0,0,2.15.26l1,.07,1.51.06,2.47.07,1.62,0,1.46,0h0c.4.11.8.28,1.2.39a18.62,18.62,0,0,0,4.86.83Z"/><path class="cls-2" d="M63.18,70.35a10.11,10.11,0,0,1,1.31-4.91,18.23,18.23,0,0,1,3.91-5.11A23.67,23.67,0,0,1,71,58.24a29.46,29.46,0,0,1,2.85-1.77c1.82-1,3-1.57,4.43-2.29A92.07,92.07,0,0,1,95.71,47.8,96.05,96.05,0,0,1,114.31,45a97.72,97.72,0,0,1,19.2.95,85.46,85.46,0,0,0-19.43,7A77.74,77.74,0,0,0,98.37,63.48a66,66,0,0,0-11.49,13l-1.12,1.72A5.8,5.8,0,0,0,85,79.79a2.58,2.58,0,0,0-.08.71c0,.2,0,.43.06.65a6.3,6.3,0,0,0,.23,1.31,6.42,6.42,0,0,0,1.17,2.3,6.73,6.73,0,0,0,1.68,1.5Z"/><path class="cls-2" d="M111.1,65.27a1.49,1.49,0,0,0-1.22-.44,2.34,2.34,0,0,0-1.28.5,3.23,3.23,0,0,0-.52.46,6.11,6.11,0,0,1-.53.59l-.9,1c-.28.37-.59.69-.86,1.07a27,27,0,0,0-4.68,10.77c-.19,1-.38,2.06-.48,3.11-.07.52-.09,1-.14,1.57s0,1.1-.07,1.64a50.51,50.51,0,0,0,.33,6.87A91.84,91.84,0,0,0,104,107.46a106.12,106.12,0,0,1-11.18-15,49.82,49.82,0,0,1-6.75-18.35A41.73,41.73,0,0,1,89,51.51c.41-1,.92-1.95,1.41-2.94s1.07-1.92,1.72-2.91a21.67,21.67,0,0,1,2.45-3,25.78,25.78,0,0,1,3.06-2.83,25.41,25.41,0,0,1,7.5-4.09,29.31,29.31,0,0,1,4.09-1.06c1.36-.26,2.66-.41,3.78-.56l-1,17.35Z"/><path class="cls-2" d="M62.35,120.59a30.81,30.81,0,0,1-2.7-3.12c-.81-1.07-1.55-2.16-2.19-3.21a62,62,0,0,1-3.16-6l-1.21-2.61c-.39-.84-.75-1.69-1.12-2.55-.72-1.7-1.43-3.43-2.08-5.17a130.83,130.83,0,0,1-6.1-21.8A114.32,114.32,0,0,0,65.42,94.5c1.89,1.24,3.83,2.4,5.76,3.5A65.37,65.37,0,0,0,77,101a14.26,14.26,0,0,0,5.59,1.33,6.76,6.76,0,0,0,2.45-.46,5.15,5.15,0,0,0,1.06-.57l1-.71Z"/><path class="cls-2" d="M108.39,48.65a22.54,22.54,0,0,1,8.68,5.51,26.53,26.53,0,0,1,5.75,8.73,40,40,0,0,1,2.47,9.22c.43,2.72.6,4.85.84,7.21.13,1.16.2,2.32.26,3.49l.19,3.49,0,3.5c0,1.17,0,2.34,0,3.51l-.11,3.51c0,1.16-.16,2.33-.24,3.5-.13,2.34-.44,4.66-.71,7a135,135,0,0,1-6.6,27.48,135.87,135.87,0,0,1-12.49,25.82,124.9,124.9,0,0,0,5.14-28.87,117.21,117.21,0,0,0-1.69-27.3c-.44-2.18-.84-4.3-1.4-6.41-.27-1.06-.51-2.09-.81-3.13l-.93-3.07-.47-1.51-.53-1.5-1.06-3L103.52,83c-.39-.95-.78-1.89-1.24-2.81L101,77.43A20.56,20.56,0,0,0,99.6,75c-.94-1.42-2-2.29-2.87-2.39a4.56,4.56,0,0,0-2.65.17,3.78,3.78,0,0,0-1.84,1.46l7.68-12Z"/><path class="cls-2" d="M92.06,119.9c-6-1.66-12.14-3.44-18.51-5.83a97,97,0,0,1-19.27-9.56A68.22,68.22,0,0,1,36.75,88.06a57.18,57.18,0,0,1-6.56-11.42A52,52,0,0,1,26.44,63a45.71,45.71,0,0,0,7.49,12.29,46.89,46.89,0,0,0,9.5,8.46,52.59,52.59,0,0,0,20.43,8.08,79.47,79.47,0,0,0,19.72.6C90,91.92,96.39,91,103.1,90.06Z"/><path class="cls-3" d="M88.69,53.73c-.44-.23-.21-.49.28-.71a6.46,6.46,0,0,1,2-.42,14.52,14.52,0,0,1,2.62.11c.45.06.89.14,1.33.22s1,.22,1.33.31c2.48.55,4.84,1.16,7.24,1.89a94,94,0,0,1,14,5.51c2.28,1.11,4.52,2.33,6.72,3.64,1.1.65,2.19,1.32,3.27,2l.81.53.41.27.44.31c.58.4,1.19.85,1.8,1.31a38.37,38.37,0,0,1,7.77,7.87,30.76,30.76,0,0,1,3.61,6.58,29.12,29.12,0,0,1,2,8.66,25.38,25.38,0,0,0-3.84-8,22.86,22.86,0,0,0-5.08-5.09,25,25,0,0,0-9.77-4.12,31.88,31.88,0,0,0-4.34-.56c-1.39-.11-2.77-.17-4.14-.19a73.62,73.62,0,0,0-8,.27,69.36,69.36,0,0,0-14.87,3,59.18,59.18,0,0,0-6.67,2.57,7.53,7.53,0,0,0-1.14,2.22,9.8,9.8,0,0,0-.36,2.31Z"/><path class="cls-3" d="M107.64,71.07c-8,10.4-11.93,23.35-11.27,34.91C85.18,93.06,79.66,71.17,85.82,47.91Z"/><path class="cls-3" d="M100.89,92.24a13.33,13.33,0,0,0-.24,1.92,2.38,2.38,0,0,0,.12,1.13.14.14,0,0,0,.08.1s0,0,0,0l-.84-.09a23.46,23.46,0,0,0-2.94-.07,9.73,9.73,0,0,0-3,.51l-.17.08s-.07,0,0,0l.07,0,0,0h0c-.51.39-.14.11-.25.2h0l0,0,.06,0,.15-.13.18-.18a9,9,0,0,0,1-1.29,18.54,18.54,0,0,0,1.33-2.35c.28-.53.48-1,.77-1.66l.39-1,.21-.53.1-.26,0-.14s0,0,0,0,.11-.1.26-.13a13.35,13.35,0,0,1,1.38-.09,18.74,18.74,0,0,0,10.83-4.26c-.49,7.17-5.42,15-13.77,19.89a18.21,18.21,0,0,1-7.32,2.73,11.43,11.43,0,0,1-5.12-.67,14.35,14.35,0,0,1-5.37-3.7,21.48,21.48,0,0,1-3.69-5.74,39.43,39.43,0,0,1-2-5.73c-.5-1.82-.88-3.5-1.23-5.1s-.66-3.11-1-4.48Z"/><path class="cls-3" d="M87.33,78.79c-.58-.1,0-1.29.82-2.38a14,14,0,0,1,3.68-3.13,22.18,22.18,0,0,1,2.26-1.21c.86-.39,1.62-.7,2.15-.92,1.14-.46,2.27-1,3.43-1.36A76.39,76.39,0,0,1,114,66a79.72,79.72,0,0,1,15.09-1,82.21,82.21,0,0,1,15.39,2A65.89,65.89,0,0,0,115,81.88a52.74,52.74,0,0,0-9.41,11c-.62,1-1.18,2-1.72,3a1.86,1.86,0,0,0-.32,1.35,8.93,8.93,0,0,0,.07,1.27,7.91,7.91,0,0,0,.76,2.43,11.05,11.05,0,0,0,1.24,1.89Z"/><path class="cls-3" d="M117.77,122.15a22.42,22.42,0,0,1-5.1,1.47,27.25,27.25,0,0,1-5.37.34,52.57,52.57,0,0,1-9-1.21l-1.67-.33-1.72-.37c-1.19-.26-2.48-.58-3.86-1a37.46,37.46,0,0,1-9.26-4.12,42.16,42.16,0,0,1-5.58-4.28c-1.58-1.42-2.87-2.74-4-3.9s-2.07-2.13-2.9-2.89-1.69-1.56-2.57-2.31a77.14,77.14,0,0,0-11.07-8,76,76,0,0,1,17.84,1.91,80.31,80.31,0,0,1,9.28,2.69c3.19,1.09,6.57,2.09,9.57,2A24.64,24.64,0,0,0,98.85,101l6.66-2.12c2.15-.76,3.92-1.8,4.44-3.14a8.55,8.55,0,0,0,.49-2,6,6,0,0,0-.14-2L114,106.7Z"/><path class="cls-3" d="M64.52,68.26c-1,.76-1.79,1.45-2.4,1.93a5.36,5.36,0,0,1-1.33.85c-.59.17-.71-.34-.49-1.2a10.71,10.71,0,0,1,1.85-3.3,18,18,0,0,1,3.36-3.26,24.69,24.69,0,0,1,8.87-4c1.46-.37,2.67-.61,3.58-.82l2.82-.62Q92.06,55.31,103.41,53q22.7-4.59,45.58-8.39-22.08,11.73-43.44,24.15Q94.87,75,84.38,81.39L81.76,83a7.92,7.92,0,0,0-2,1.53A5.41,5.41,0,0,0,79,87.43a4.66,4.66,0,0,0,.89,2.69c.53.71,1.1,1.07,1.36,1.42q-2.69-3.65-5.3-7.31L71,77.34Z"/><path class="cls-3" d="M107.56,63.08a172.68,172.68,0,0,0,28,28.82,177.14,177.14,0,0,1-55.9-13.54Z"/><path class="cls-3" d="M88.2,126a44.68,44.68,0,0,1-12.37,2.33,46,46,0,0,1-25.28-6.3c-.5-.3-1-.62-1.49-.94A15.29,15.29,0,0,1,47.37,120a26.32,26.32,0,0,1-4.22-4.11c-.35-.42-.74-1-1.1-1.46s-.74-1.12-1.1-1.76a22.44,22.44,0,0,1-1.07-2.14c-.17-.4-.33-.78-.49-1.2s-.31-.91-.45-1.38l-.2-.7-.18-.78c-.11-.53-.21-1.05-.29-1.59a21.81,21.81,0,0,1-.22-3.57c0-.62.05-1.24.12-1.87s.17-1.27.29-1.9a23,23,0,0,1,1-3.67,23.19,23.19,0,0,0-.56,3.77c0,.64,0,1.27,0,1.89s.07,1.22.14,1.82a18.9,18.9,0,0,0,.7,3.35c.16.5.33,1,.52,1.43l.29.69c.1.23.2.42.3.62q.31.6.66,1.17c.22.36.44.68.67,1a15.4,15.4,0,0,0,1.41,1.68,16.11,16.11,0,0,0,1.4,1.28,15.78,15.78,0,0,0,1.37,1,16,16,0,0,0,5,2,7.14,7.14,0,0,0,2.07.19c.64,0,1.26,0,1.88,0a32.55,32.55,0,0,0,13.27-3.49,27,27,0,0,0,9.16-7.63,19.19,19.19,0,0,0,3.86-9.68Z"/><path class="cls-3" d="M103.79,121.51a17.07,17.07,0,0,1-4.17-.05,18,18,0,0,1-3.74-.95A18.53,18.53,0,0,1,90.06,117a17.91,17.91,0,0,1-2.23-2.37c-.34-.42-.68-.9-1-1.33s-.54-.84-.78-1.25a23,23,0,0,1-2-4.79,30.92,30.92,0,0,1-.93-4c-.2-1.18-.31-2.11-.43-3.15A40.17,40.17,0,0,1,82.56,94a41.25,41.25,0,0,1,9-23.33C89.7,81.48,92.86,91,98.19,97a22.26,22.26,0,0,0,4.37,3.77A12.84,12.84,0,0,0,105,102a6.16,6.16,0,0,0,1.22.29,4.15,4.15,0,0,0,.61,0l.3,0,.14,0h0a12.78,12.78,0,0,0-2.82.88l-.18.09-.14.08,0,0h0l-.84.5h0l0,0,.06,0c.08,0,.08-.06,0,0a2.53,2.53,0,0,0-.51.78,2.08,2.08,0,0,0-.18.53,1.41,1.41,0,0,0,0,.29l0,.31Q103.2,113.58,103.79,121.51Z"/><path class="cls-3" d="M76.62,71.35c.14-.37,0-.52.11-.34a.8.8,0,0,0,.08.17,1,1,0,0,0,.15.25,1.83,1.83,0,0,0,.24.31c.09.08.21.24.33.33a8.66,8.66,0,0,0,1.8,1.24,7.6,7.6,0,0,0,.93.43l.35.15.28.1c.38.12.25.05-.2,0l-.46-.07h-.06l7.07.9h0v.79l0,.07,0,.16c0,.1.06.21.08.31a4.25,4.25,0,0,0,1,2,3.76,3.76,0,0,0,1.34.82,4.6,4.6,0,0,0,.7.2l.16,0a.56.56,0,0,1,.23.07l1,.55a54.58,54.58,0,0,0,8.75,3.59c.75.22,1.5.45,2.25.64.37.1.76.2,1.12.28s.63.14.92.17a10.9,10.9,0,0,0,2.95.16,1.58,1.58,0,0,0,.7-.24s.07,0,.08-.07v0h0s0,0,0,0l0,.31,0,.62,0,.51c0,.35.08.7.14,1a9.29,9.29,0,0,0,1,3.56,3.1,3.1,0,0,1-.37-.78l-.08-.22,0-.11-.06-.16a5.63,5.63,0,0,1-.18-.64l-.19-.79L109,87.3l0-.21v0a.11.11,0,0,1,0,.05,4.22,4.22,0,0,1-2,3.46,16,16,0,0,1-5,2.4c-.48.16-1,.28-1.48.42s-1.06.23-1.6.33c-1.07.21-2.16.38-3.27.54a64.09,64.09,0,0,1-13.9.31c-.6,0-1.2-.1-1.81-.18s-1.31-.22-2-.37a27.29,27.29,0,0,1-4.13-1.25,22.34,22.34,0,0,1-7.78-5,27.18,27.18,0,0,1-6.59-12c-.17-.6-.33-1.21-.47-1.83L58.82,73a6.38,6.38,0,0,0-.21-.86l-.23-.65-.11-.32s0,0,0,0v-.79a25.16,25.16,0,0,1,.22-3.49,19.8,19.8,0,0,1,.9-3.77,18.63,18.63,0,0,1,2.55-4.81,18.88,18.88,0,0,1,7.37-5.93,18.36,18.36,0,0,1,3-1.09,20,20,0,0,1,3.32-.61A23.26,23.26,0,0,1,79,50.57,22.49,22.49,0,0,1,82,51q-1.74,7.76-3.89,15.42L77,70.22l-.33,1.11Z"/></svg>
