<svg id="Layer_1" data-name="Layer 1" xmlns="http://www.w3.org/2000/svg" xmlns:xlink="http://www.w3.org/1999/xlink" width="380" height="160" viewBox="0 0 380 160"><defs><style>.cls-1{filter:url(#AI_Shadow_2);}.cls-2{fill:#7342ba;}.cls-3,.cls-4{fill:#fff;}.cls-3{opacity:0.3;}</style><filter id="AI_Shadow_2" x="-15" y="-15" width="140" height="130" name="AI_Shadow_2"><feGaussianBlur result="blur" stdDeviation="6" in="SourceAlpha"/><feOffset result="offsetBlurredAlpha" dx="8" dy="8" in="blur"/><feMerge><feMergeNode in="offsetBlurredAlpha"/><feMergeNode in="SourceGraphic"/></feMerge></filter></defs><title>tidsknap</title><g class="cls-1"><rect class="cls-2" x="31.5" y="30.5" width="306" height="102" rx="46"/></g><path class="cls-3" d="M85,41.5H282A46.55,46.55,0,0,1,328.39,85c.07-1,.11-2,.11-3A46.55,46.55,0,0,0,282,35.5H85A46.55,46.55,0,0,0,38.5,82c0,1,0,2,.11,3A46.55,46.55,0,0,1,85,41.5Z"/><path class="cls-4" d="M152.59,83.77c0,15.48-5.74,24-15.82,24-8.89,0-14.91-8.33-15.05-23.39,0-15.26,6.58-23.66,15.82-23.66C147.13,60.74,152.59,69.28,152.59,83.77Zm-24.71.7c0,11.84,3.64,18.56,9.24,18.56,6.3,0,9.31-7.35,9.31-19,0-11.2-2.87-18.55-9.24-18.55C131.8,65.5,127.88,72.08,127.88,84.47Z"/><path class="cls-4" d="M158.75,78.73a4.14,4.14,0,0,1,4.2-4.41c2.45,0,4.06,1.82,4.13,4.41a4.17,4.17,0,1,1-8.33,0Zm0,24.72A4.14,4.14,0,0,1,163,99c2.45,0,4.06,1.82,4.13,4.41a4.17,4.17,0,1,1-8.33,0Z"/><path class="cls-4" d="M186.12,67.25H186l-7.91,4.27-1.19-4.69,9.94-5.32h5.25V107h-5.95Z"/><path class="cls-4" d="M208.66,107v-3.78l4.83-4.69c11.62-11.07,16.87-17,16.94-23.81,0-4.62-2.24-8.89-9-8.89a15.49,15.49,0,0,0-9.66,3.85l-2-4.34a20,20,0,0,1,12.88-4.62c9.8,0,13.93,6.72,13.93,13.23,0,8.4-6.09,15.2-15.68,24.44l-3.64,3.36v.14h20.44V107Z"/></svg>
